<svg width="50" height="50" viewBox="0 0 50 50" fill="none" xmlns="http://www.w3.org/2000/svg">
<rect width="50" height="50" fill="white"/>
<g clip-path="url(#clip0_63_140)">
<path d="M11.7188 33.5938H5.46875V24.2188H11.7188V33.5938Z" fill="#009FEF"/>
<path d="M19.5312 33.5938H13.2812V22.6562H19.5312V33.5938Z" fill="#009FEF"/>
<path d="M27.3438 33.5938H21.0938V21.0938H27.3438V33.5938Z" fill="#009FEF"/>
<path d="M5.46875 11.7188H19.5312V18.75H5.46875V11.7188Z" fill="#009FEF"/>
<path d="M49.2188 25C49.2188 21.532 47.1492 18.5438 44.1844 17.1875C47.1492 15.8313 49.2188 12.843 49.2188 9.375C49.2188 4.63672 45.3633 0.78125 40.625 0.78125C37.9625 0.78125 35.5789 1.99922 34.0008 3.90625H4.6875C2.53359 3.90625 0.78125 5.65859 0.78125 7.8125C0.78125 8.82969 1.43672 9.68906 2.34375 10.0125V36.7188H20.3125V41.4852C18.532 41.8484 17.1875 43.4258 17.1875 45.3125C17.1875 47.4664 18.9398 49.2188 21.0938 49.2188C23.2477 49.2188 25 47.4664 25 45.3125C25 43.4266 23.6555 41.8484 21.875 41.4852V36.7188H32.9797C32.3781 37.8922 32.0312 39.218 32.0312 40.625C32.0312 45.3633 35.8867 49.2188 40.625 49.2188C45.3633 49.2188 49.2188 45.3633 49.2188 40.625C49.2188 37.157 47.1492 34.1688 44.1844 32.8125C47.1492 31.4562 49.2188 28.468 49.2188 25ZM23.4375 45.3125C23.4375 46.6047 22.3859 47.6562 21.0938 47.6562C19.8016 47.6562 18.75 46.6047 18.75 45.3125C18.75 44.0203 19.8016 42.9688 21.0938 42.9688C22.3859 42.9688 23.4375 44.0203 23.4375 45.3125ZM47.6562 25C47.6562 26.4484 47.2156 27.7961 46.4617 28.9156C45.6719 27.7328 44.55 26.8344 43.2516 26.3086C44.0328 25.5945 44.5312 24.5766 44.5312 23.4375C44.5312 21.2836 42.7789 19.5312 40.625 19.5312C38.4711 19.5312 36.7188 21.2836 36.7188 23.4375C36.7188 24.5766 37.2172 25.5945 37.9984 26.3094C36.7008 26.8344 35.5781 27.7336 34.7883 28.9164C34.0344 27.7961 33.5938 26.4484 33.5938 25C33.5938 21.1234 36.7477 17.9688 40.625 17.9688C44.5023 17.9688 47.6562 21.1234 47.6562 25ZM38.2812 23.4375C38.2812 22.1453 39.3328 21.0938 40.625 21.0938C41.9172 21.0938 42.9688 22.1453 42.9688 23.4375C42.9688 24.7297 41.9172 25.7812 40.625 25.7812C39.3328 25.7812 38.2812 24.7297 38.2812 23.4375ZM38.2812 7.8125C38.2812 6.52031 39.3328 5.46875 40.625 5.46875C41.9172 5.46875 42.9688 6.52031 42.9688 7.8125C42.9688 9.10469 41.9172 10.1562 40.625 10.1562C39.3328 10.1562 38.2812 9.10469 38.2812 7.8125ZM40.625 16.4062C38.7867 16.4062 37.1164 15.6914 35.8617 14.532C36.8211 12.8125 38.632 11.7188 40.625 11.7188C42.618 11.7188 44.4289 12.8125 45.3883 14.532C44.1336 15.6914 42.4633 16.4062 40.625 16.4062ZM40.625 2.34375C44.5023 2.34375 47.6562 5.49844 47.6562 9.375C47.6562 10.8234 47.2156 12.1711 46.4617 13.2906C45.6719 12.1078 44.55 11.2094 43.2516 10.6836C44.0328 9.96953 44.5312 8.95156 44.5312 7.8125C44.5312 5.65859 42.7789 3.90625 40.625 3.90625C38.4711 3.90625 36.7188 5.65859 36.7188 7.8125C36.7188 8.95156 37.2172 9.96953 37.9984 10.6844C36.7008 11.2094 35.5781 12.1086 34.7883 13.2914C34.0344 12.1711 33.5938 10.8234 33.5938 9.375C33.5938 5.49844 36.7477 2.34375 40.625 2.34375ZM4.6875 5.46875H32.9797C32.4906 6.42266 32.1719 7.47656 32.0703 8.59375H3.125C2.69375 8.59375 2.34375 8.24297 2.34375 7.8125C2.34375 6.52031 3.39531 5.46875 4.6875 5.46875ZM3.90625 35.1562V10.1562H32.0711C32.3547 13.2883 34.3266 15.9344 37.0664 17.1875C34.1008 18.5438 32.0312 21.532 32.0312 25C32.0312 28.468 34.1008 31.4562 37.0656 32.8125C35.875 33.357 34.8258 34.1586 34.0008 35.1562H3.90625ZM35.8617 45.782C36.8211 44.0625 38.632 42.9688 40.625 42.9688C42.618 42.9688 44.4289 44.0625 45.3883 45.782C44.1336 46.9414 42.4633 47.6562 40.625 47.6562C38.7867 47.6562 37.1164 46.9414 35.8617 45.782ZM38.2812 39.0625C38.2812 37.7703 39.3328 36.7188 40.625 36.7188C41.9172 36.7188 42.9688 37.7703 42.9688 39.0625C42.9688 40.3547 41.9172 41.4062 40.625 41.4062C39.3328 41.4062 38.2812 40.3547 38.2812 39.0625ZM47.6562 40.625C47.6562 42.0734 47.2156 43.4211 46.4617 44.5406C45.6719 43.3578 44.55 42.4594 43.2516 41.9336C44.0328 41.2195 44.5312 40.2016 44.5312 39.0625C44.5312 36.9086 42.7789 35.1562 40.625 35.1562C38.4711 35.1562 36.7188 36.9086 36.7188 39.0625C36.7188 40.2016 37.2172 41.2195 37.9984 41.9344C36.7008 42.4594 35.5781 43.3586 34.7883 44.5414C34.0344 43.4211 33.5938 42.0734 33.5938 40.625C33.5938 36.7484 36.7477 33.5938 40.625 33.5938C44.5023 33.5938 47.6562 36.7484 47.6562 40.625ZM35.8617 30.157C36.8211 28.4375 38.632 27.3438 40.625 27.3438C42.618 27.3438 44.4289 28.4375 45.3883 30.157C44.1336 31.3164 42.4633 32.0312 40.625 32.0312C38.7867 32.0312 37.1164 31.3164 35.8617 30.157Z" fill="#2C2C2C"/>
<path d="M5.46875 11.7188H8.59375V13.2812H5.46875V11.7188Z" fill="#2C2C2C"/>
<path d="M10.1562 11.7188H19.5312V13.2812H10.1562V11.7188Z" fill="#2C2C2C"/>
<path d="M5.46875 14.8438H19.5312V16.4062H5.46875V14.8438Z" fill="#2C2C2C"/>
<path d="M5.46875 17.9688H19.5312V19.5312H5.46875V17.9688Z" fill="#2C2C2C"/>
</g>
<defs>
<clipPath id="clip0_63_140">
<rect width="50" height="50" fill="white"/>
</clipPath>
</defs>
</svg>
