<svg width="50" height="50" viewBox="0 0 50 50" fill="none" xmlns="http://www.w3.org/2000/svg">
<rect width="50" height="50" fill="white"/>
<path d="M26.8477 11.3969C26.5883 10.4914 26.2266 9.61953 25.7688 8.79375L26.8828 6.99453L22.693 2.80469L20.8937 3.91875C20.068 3.46094 19.1961 3.09922 18.2906 2.83984L17.8062 0.78125H11.8813L11.3969 2.83984C10.4914 3.09922 9.61953 3.46094 8.79375 3.91875L6.99453 2.80469L2.80469 6.99453L3.91875 8.79375C3.46094 9.61953 3.09922 10.4914 2.83984 11.3969L0.78125 11.8813V17.8062L2.83984 18.2906C3.09922 19.1961 3.46094 20.068 3.91875 20.8937L2.80469 22.693L6.99453 26.8828L8.79375 25.7688C9.61953 26.2266 10.4914 26.5883 11.3969 26.8477L11.8813 28.9062H17.8062L18.2906 26.8477C19.1961 26.5883 20.068 26.2266 20.8937 25.7688L22.1023 26.5164C21.9563 25.5805 21.875 24.6258 21.875 23.6562V19.7859C20.3195 21.9945 17.75 23.4375 14.8438 23.4375C10.0977 23.4375 6.25 19.5898 6.25 14.8438C6.25 10.0977 10.0977 6.25 14.8438 6.25C19.5898 6.25 23.4375 10.0977 23.4375 14.8438H24.8672C26.2328 14.8438 27.5875 14.6922 28.9062 14.3969V11.8813L26.8477 11.3969Z" fill="#009FEF"/>
<path d="M33.5937 33.1361L28.5828 28.1252L32.0312 24.6768L33.5937 26.2393L39.8437 19.9893L43.2921 23.4377L33.5937 33.1361Z" fill="#009FEF"/>
<path d="M31.8054 19.29L32.257 20.7854C32.7796 20.6283 33.3093 20.4486 33.8304 20.2533L33.2828 18.79C32.7929 18.9744 32.296 19.1424 31.8054 19.29Z" fill="#2C2C2C"/>
<path d="M28.0234 20.1056L27.3438 20.1954V23.6571C27.3438 23.8665 27.3484 24.0751 27.3594 24.2829L28.9203 24.2032C28.9109 24.0212 28.9062 23.8399 28.9062 23.6563V21.5563C29.4859 21.4634 30.068 21.3493 30.6453 21.2165L30.293 19.6938C29.5398 19.8688 28.7758 20.0063 28.0234 20.1056Z" fill="#2C2C2C"/>
<path d="M49.2188 14.0625H45.4461C41.9352 14.0625 38.5359 13.0336 35.5852 11.0656L35.1266 10.7992L34.6961 11.0859C31.7766 13.0336 28.3773 14.0625 24.8664 14.0625H24.1789C23.7797 9.25781 19.75 5.46875 14.8438 5.46875C9.67422 5.46875 5.46875 9.67422 5.46875 14.8438C5.46875 20.0133 9.67422 24.2188 14.8438 24.2188C17.1719 24.2188 19.3906 23.3445 21.0938 21.8219V23.657C21.0938 27.9055 22.518 31.932 24.9609 35.1961L22.3328 44.8328L26.1906 43.868L29.1102 48.7344L31.7297 40.8758C32.7484 41.3906 33.8164 41.8266 34.9359 42.1562L35.1562 42.2203L35.3766 42.1555C36.4961 41.8258 37.5641 41.3898 38.5828 40.875L41.2023 48.7336L44.1219 43.8672L47.9797 44.832L45.3516 35.1953C47.7945 31.9312 49.2188 27.9047 49.2188 23.6562V14.0625ZM14.8438 22.6562C10.5359 22.6562 7.03125 19.1516 7.03125 14.8438C7.03125 10.5359 10.5359 7.03125 14.8438 7.03125C18.8875 7.03125 22.2234 10.1203 22.6164 14.0625H21.0938V19.5148C19.6195 21.482 17.3055 22.6562 14.8438 22.6562ZM28.7023 45.0164L26.9344 42.0703L24.5422 42.668L26.182 36.6539C27.3945 37.9828 28.7914 39.1453 30.3414 40.0984L28.7023 45.0164ZM45.7703 42.668L43.3781 42.0703L41.6102 45.0164L39.9711 40.0984C41.5211 39.1453 42.918 37.9828 44.1305 36.6539L45.7703 42.668ZM47.6562 23.6562C47.6562 31.3859 42.5281 38.3164 35.1562 40.5906C27.7844 38.3164 22.6562 31.3859 22.6562 23.6562V15.625H24.8664C28.5172 15.625 32.0562 14.6023 35.1555 12.65C38.2398 14.5984 41.7875 15.625 45.4461 15.625H47.6562V23.6562Z" fill="#2C2C2C"/>
<path d="M14.8438 10.1562C12.2586 10.1562 10.1562 12.2586 10.1562 14.8438C10.1562 17.4289 12.2586 19.5312 14.8438 19.5312C17.4289 19.5312 19.5312 17.4289 19.5312 14.8438C19.5312 12.2586 17.4289 10.1562 14.8438 10.1562ZM14.8438 17.9688C13.1203 17.9688 11.7188 16.5672 11.7188 14.8438C11.7188 13.1203 13.1203 11.7188 14.8438 11.7188C16.5672 11.7188 17.9688 13.1203 17.9688 14.8438C17.9688 16.5672 16.5672 17.9688 14.8438 17.9688Z" fill="#2C2C2C"/>
<path d="M35.5297 14.6779L35.157 14.4756L34.7844 14.6779C31.7937 16.2982 28.4086 17.1662 24.9953 17.1865L24.2188 17.1912V23.6561C24.2188 30.435 28.507 36.5428 34.8898 38.8537L35.1562 38.9498L35.4227 38.8537C41.8055 36.5428 46.0938 30.435 46.0938 23.6561V17.1912L45.3172 17.1865C41.9062 17.1662 38.5219 16.2982 35.5297 14.6779ZM44.5312 23.6561C44.5312 29.685 40.7758 35.1264 35.1562 37.285C29.5367 35.1256 25.7812 29.6842 25.7812 23.6561V18.7303C29.0453 18.5967 32.2633 17.7451 35.157 16.2482C38.0516 17.7451 41.2687 18.5967 44.5312 18.7303V23.6561Z" fill="#2C2C2C"/>
</svg>
