<svg width="50" height="50" viewBox="0 0 50 50" fill="none" xmlns="http://www.w3.org/2000/svg">
<g clip-path="url(#clip0_29_583)">
<path d="M37.1367 21.0938C36.0445 21.0938 35.1562 20.2055 35.1562 19.1133V17.9688H34.375C33.0828 17.9688 32.0312 16.9172 32.0312 15.625V6.25C32.0312 4.95781 33.0828 3.90625 34.375 3.90625H46.875C48.1672 3.90625 49.2188 4.95781 49.2188 6.25V15.625C49.2188 16.9172 48.1672 17.9688 46.875 17.9688H42.4242L38.2359 20.7609C37.9086 20.9789 37.5289 21.0938 37.1367 21.0938Z" fill="#009FEF"/>
<path d="M16.4062 3.90625H27.3438V7.8125H16.4062V3.90625Z" fill="#009FEF"/>
<path d="M32.0312 23.4375H39.8438V29.6875H32.0312V23.4375Z" fill="#009FEF"/>
<path d="M46.875 36.7188H46.0938V17.9688H44.5312V36.7188H16.2883L16.168 35.1562H42.9688V17.9688H42.4242L41.4062 18.6469V33.5938H16.0484L15.9281 32.0312H28.125C29.4172 32.0312 30.4688 30.9797 30.4688 29.6875V14.8438H32.0312V13.2812H30.4688V11.7188H32.0312V10.1562H30.4688V3.125C30.4688 1.83281 29.4172 0.78125 28.125 0.78125H14.7102C14.0844 0.78125 13.4953 1.025 13.0523 1.46797L6.15547 8.36484C5.7125 8.80703 5.46875 9.39609 5.46875 10.0227V23.1141L3.3125 25.2703C1.67969 26.9023 0.78125 29.0727 0.78125 31.3805C0.78125 31.8539 0.821094 32.332 0.898437 32.8008L2.11406 40.0914C2.28281 41.1047 2.56172 42.1016 2.94297 43.0539L3.90625 45.4633V49.2188H14.8438V45.4633L15.2164 44.5312H43.75C46.7656 44.5312 49.2188 42.0781 49.2188 39.0625C49.2188 37.7703 48.1672 36.7188 46.875 36.7188ZM23.4375 38.2812H34.375V39.0625C34.375 39.493 34.0242 39.8438 33.5938 39.8438H24.2188C23.7883 39.8438 23.4375 39.493 23.4375 39.0625V38.2812ZM28.9062 3.125V29.6875C28.9062 30.118 28.5555 30.4688 28.125 30.4688H15.8078L15.7531 29.7555C15.7297 29.4539 15.6484 29.1703 15.5305 28.9062H27.3438V11.7188H8.59375V28.9062H10.7562C10.6984 29.0391 10.65 29.1781 10.6141 29.3227L10.3273 30.4688H7.8125C7.38203 30.4688 7.03125 30.118 7.03125 29.6875V10.1562H12.5C13.7922 10.1562 14.8438 9.10469 14.8438 7.8125V2.34375H28.125C28.5555 2.34375 28.9062 2.69453 28.9062 3.125ZM13.2812 27.3438C13.2812 24.7586 15.3836 22.6562 17.9688 22.6562C20.5539 22.6562 22.6562 24.7586 22.6562 27.3438H13.2812ZM15.625 18.75C15.625 17.4578 16.6766 16.4062 17.9688 16.4062C19.2609 16.4062 20.3125 17.4578 20.3125 18.75C20.3125 20.0422 19.2609 21.0938 17.9688 21.0938C16.6766 21.0938 15.625 20.0422 15.625 18.75ZM20.5508 21.6586C21.3563 20.9422 21.875 19.9102 21.875 18.75C21.875 16.5961 20.1227 14.8438 17.9688 14.8438C15.8148 14.8438 14.0625 16.5961 14.0625 18.75C14.0625 19.9102 14.5813 20.9422 15.3867 21.6586C13.2266 22.6437 11.7188 24.8188 11.7188 27.3438H10.1562V13.2812H25.7812V27.3438H24.2188C24.2188 24.8188 22.7109 22.6437 20.5508 21.6586ZM7.03125 31.8875C7.27656 31.975 7.5375 32.0312 7.8125 32.0312H9.92578C9.52734 33.5187 8.98438 34.9711 8.29531 36.3492C8.18203 36.5773 7.95312 36.7188 7.69844 36.7188C7.33047 36.7188 7.03125 36.4195 7.03125 36.0516V31.8875ZM13.2812 3.44844V7.8125C13.2812 8.24297 12.9305 8.59375 12.5 8.59375H8.13594L13.2812 3.44844ZM2.43984 32.5445C2.37656 32.1609 2.34375 31.7695 2.34375 31.3805C2.34375 29.4898 3.07969 27.7117 4.41719 26.375L5.46875 25.3234V29.6875C5.46875 29.9625 5.525 30.2234 5.6125 30.4688H5.46875V36.0516C5.46875 37.2812 6.46875 38.2812 7.69844 38.2812C8.54766 38.2812 9.3125 37.8094 9.69297 37.0484C10.4898 35.4539 11.1125 33.7703 11.5445 32.043L12.1305 29.7008C12.2469 29.2328 12.6656 28.9062 13.1484 28.9062C13.6938 28.9062 14.1539 29.332 14.1953 29.875L14.807 37.8227C14.8312 38.1484 14.8438 38.4742 14.8438 38.8008C14.8438 40.4297 14.5367 42.0227 13.932 43.5352L13.5336 44.5312H5.21641L4.39297 42.4742C4.05391 41.6258 3.80547 40.7383 3.65469 39.8352L2.43984 32.5445ZM13.2812 47.6562H5.46875V46.0938H13.2812V47.6562ZM43.75 42.9688H15.7797C16.1914 41.6188 16.4062 40.2227 16.4062 38.8008C16.4062 38.6273 16.393 38.4547 16.3867 38.2812H21.875V39.0625C21.875 40.3547 22.9266 41.4062 24.2188 41.4062H33.5938C34.8859 41.4062 35.9375 40.3547 35.9375 39.0625V38.2812H46.0938H46.875C47.3055 38.2812 47.6562 38.632 47.6562 39.0625C47.6562 41.2164 45.9039 42.9688 43.75 42.9688Z" fill="#2C2C2C"/>
<path d="M45.8649 7.58369L44.7602 6.479L38.2813 12.9579L36.4899 11.1665L35.3852 12.2712L38.2813 15.1673L45.8649 7.58369Z" fill="#2C2C2C"/>
<path d="M16.4062 3.90625H19.5312V5.46875H16.4062V3.90625Z" fill="#2C2C2C"/>
<path d="M21.0938 3.90625H27.3438V5.46875H21.0938V3.90625Z" fill="#2C2C2C"/>
<path d="M16.4062 7.03125H27.3438V8.59375H16.4062V7.03125Z" fill="#2C2C2C"/>
<path d="M32.0312 22.6562H39.8438V24.2188H32.0312V22.6562Z" fill="#2C2C2C"/>
<path d="M32.0312 25.7812H39.8438V27.3438H32.0312V25.7812Z" fill="#2C2C2C"/>
<path d="M32.0312 28.9062H39.8438V30.4688H32.0312V28.9062Z" fill="#2C2C2C"/>
</g>
<defs>
<clipPath id="clip0_29_583">
<rect width="50" height="50" fill="white"/>
</clipPath>
</defs>
</svg>
