<svg width="50" height="50" viewBox="0 0 50 50" fill="none" xmlns="http://www.w3.org/2000/svg">
<rect width="50" height="50" fill="white"/>
<g clip-path="url(#clip0_63_138)">
<path d="M49.9886 38.7099H40.4179V32.2583H33.1362V33.8712H38.805V41.9357H11.3856V33.8712H17.0532V32.2583H9.7727V38.7099H0.201599L3.96451 44.3551L0.201599 50.0002H19.4501V43.5486H30.7404V50.0002H49.9886L46.2257 44.3551L49.9886 38.7099ZM5.90307 44.3551L3.21437 40.3228H9.7727V43.1293L16.3444 48.3873H3.21437L5.90307 44.3551ZM17.8372 47.5155L12.8784 43.5486H17.8372V47.5155ZM37.3122 43.5486L32.3533 47.5155V43.5486H37.3122ZM46.9758 48.3873H33.8469L40.4179 43.1293V40.3228H46.9758L44.2871 44.3551L46.9758 48.3873Z" fill="#2C2C2C"/>
<path d="M32.3534 38.7095H33.9663V40.3224H32.3534V38.7095Z" fill="#2C2C2C"/>
<path d="M33.9662 37.0967H35.5792V38.7096H33.9662V37.0967Z" fill="#2C2C2C"/>
<path d="M30.7404 37.0967H32.3534V38.7096H30.7404V37.0967Z" fill="#2C2C2C"/>
<path d="M16.2243 38.7095H17.8372V40.3224H16.2243V38.7095Z" fill="#2C2C2C"/>
<path d="M17.8372 37.0967H19.4501V38.7096H17.8372V37.0967Z" fill="#2C2C2C"/>
<path d="M14.6114 37.0967H16.2243V38.7096H14.6114V37.0967Z" fill="#2C2C2C"/>
<path d="M32.3534 35.4839H33.9663V37.0968H32.3534V35.4839Z" fill="#2C2C2C"/>
<path d="M16.2243 35.4839H17.8372V37.0968H16.2243V35.4839Z" fill="#2C2C2C"/>
<path d="M42.8372 8.06452C38.8345 8.06452 35.5792 4.80878 35.5792 0.806452V0H14.6114V0.806452C14.6114 4.80878 11.3557 8.06452 7.35336 8.06452H6.54691V15.0324C6.54691 25.871 14.287 35.1452 24.9508 37.0838L25.0953 37.1106L25.2394 37.0838C35.9032 35.1452 43.6437 25.871 43.6437 15.0324V8.06452H42.8372ZM25.0953 31.4516C17.9684 31.4516 12.1921 25.6749 12.1921 18.5484C12.1921 11.4218 17.9684 5.64516 25.0953 5.64516C32.2218 5.64516 37.9985 11.4218 37.9985 18.5484C37.9985 25.6749 32.2218 31.4516 25.0953 31.4516Z" fill="#009FEF"/>
<path d="M22.0282 24.993C21.8427 24.993 21.6541 24.9446 21.4639 24.834C20.5176 24.2874 20.8902 23.047 21.2501 21.8476C21.3619 21.4758 21.5379 20.8879 21.5655 20.593C21.3017 20.476 20.7299 20.3429 20.3668 20.2583C19.1233 19.9677 17.8372 19.6688 17.8372 18.5485C17.8372 17.4282 19.1233 17.1282 20.3668 16.8387C20.7299 16.7541 21.3017 16.621 21.5655 16.504C21.5395 16.2091 21.3619 15.6212 21.2501 15.2487C20.8902 14.0492 20.5184 12.8096 21.4639 12.2631C22.3881 11.7244 23.2623 12.6478 24.1057 13.5405C24.3912 13.8429 24.8468 14.3261 25.0953 14.4832C25.3434 14.3261 25.8001 13.8421 26.0856 13.5405C26.9275 12.6486 27.7978 11.7236 28.7267 12.2631C29.6725 12.8096 29.3 14.05 28.9405 15.2495C28.8283 15.6212 28.6523 16.2091 28.6251 16.504C28.8885 16.621 29.4603 16.7541 29.8233 16.8387C31.0669 17.1294 32.3533 17.4282 32.3533 18.5485C32.3533 19.6688 31.0669 19.9689 29.8233 20.2583C29.4603 20.3429 28.8885 20.476 28.6251 20.593C28.6507 20.8879 28.8283 21.4758 28.9405 21.8484C29.3 23.0478 29.6717 24.2874 28.7267 24.834C27.8017 25.3711 26.9275 24.4492 26.0848 23.5566C25.7994 23.2541 25.3434 22.771 25.0953 22.6139C24.8468 22.771 24.3904 23.2549 24.1049 23.5566C23.4355 24.2646 22.7484 24.993 22.0282 24.993ZM20.1589 18.5485C20.3621 18.6001 20.5677 18.6485 20.7323 18.6863C21.7541 18.9242 22.6354 19.1301 22.9984 19.7558C23.3702 20.3985 23.104 21.2849 22.796 22.3106C22.7598 22.43 22.7169 22.5717 22.6759 22.7194C22.7685 22.6225 22.8582 22.5292 22.9331 22.4485C23.6832 21.6542 24.3314 20.9679 25.0953 20.9679C25.8588 20.9679 26.5074 21.6542 27.2571 22.4485C27.3339 22.5292 27.4217 22.6225 27.5154 22.7194C27.4725 22.5717 27.4316 22.4307 27.3953 22.3114C27.087 21.2856 26.8208 20.3985 27.1917 19.7566C27.5548 19.1301 28.4373 18.9242 29.4587 18.6863C29.6233 18.6477 29.8289 18.6001 30.0324 18.5477C29.8289 18.4961 29.6233 18.4477 29.4587 18.4099C28.4373 18.1721 27.5556 17.9661 27.1929 17.3404C26.8208 16.6978 27.087 15.8114 27.3953 14.7856C27.4316 14.6663 27.4741 14.5241 27.5154 14.3769C27.4225 14.4733 27.3331 14.5671 27.2579 14.6478C26.5074 15.4428 25.8588 16.1292 25.0953 16.1292C24.3314 16.1292 23.6832 15.4428 22.9331 14.6486C22.8563 14.5678 22.7685 14.4745 22.6751 14.3776C22.7177 14.5253 22.759 14.6663 22.7952 14.7856C23.1032 15.8114 23.3694 16.6986 22.9984 17.3404C22.6354 17.9669 21.7533 18.1729 20.7315 18.4107C20.5677 18.4485 20.3621 18.4961 20.1589 18.5485Z" fill="#2C2C2C"/>
<path d="M25.0953 32.2582C17.5356 32.2582 11.3856 26.1082 11.3856 18.5485C11.3856 10.9888 17.5356 4.83887 25.0953 4.83887C32.655 4.83887 38.805 10.9888 38.805 18.5485C38.805 26.1082 32.655 32.2582 25.0953 32.2582ZM25.0953 6.45177C18.4251 6.45177 12.9985 11.8784 12.9985 18.5485C12.9985 25.2187 18.4251 30.6453 25.0953 30.6453C31.7655 30.6453 37.1921 25.2187 37.1921 18.5485C37.1921 11.8784 31.7655 6.45177 25.0953 6.45177Z" fill="#2C2C2C"/>
<path d="M25.0953 29.0322C19.6821 29.0322 15.0962 24.8062 14.654 19.4119L16.2621 19.2808C16.6354 23.8442 20.5153 27.4193 25.0953 27.4193C29.6749 27.4193 33.5548 23.8442 33.9281 19.2808L35.5363 19.4119C35.0944 24.8062 30.5081 29.0322 25.0953 29.0322Z" fill="#2C2C2C"/>
<path d="M33.9281 17.8159C33.5548 13.2524 29.6749 9.67736 25.0953 9.67736C20.5153 9.67736 16.6354 13.2524 16.2621 17.8159L14.654 17.6848C15.0962 12.2904 19.6821 8.06445 25.0953 8.06445C30.5081 8.06445 35.0944 12.2904 35.5363 17.6848L33.9281 17.8159Z" fill="#2C2C2C"/>
</g>
<defs>
<clipPath id="clip0_63_138">
<rect width="50" height="50" fill="white"/>
</clipPath>
</defs>
</svg>
