<svg width="50" height="50" viewBox="0 0 50 50" fill="none" xmlns="http://www.w3.org/2000/svg">
<rect width="50" height="50" fill="white"/>
<g clip-path="url(#clip0_63_139)">
<path d="M22.6562 46.0938H5.46875C4.60703 46.0938 3.90625 45.393 3.90625 44.5312V16.4062C3.90625 15.5445 4.60703 14.8438 5.46875 14.8438H22.6562C23.518 14.8438 24.2188 15.5445 24.2188 16.4062V44.5312C24.2188 45.393 23.518 46.0938 22.6562 46.0938Z" fill="#009FEF"/>
<path d="M13.2812 30.4688V32.0312H14.8438V30.4688C16.5672 30.4688 17.9688 29.0672 17.9688 27.3438C17.9688 25.6203 16.5672 24.2188 14.8438 24.2188H13.2812C12.4195 24.2188 11.7188 23.518 11.7188 22.6562C11.7188 21.7945 12.4195 21.0938 13.2812 21.0938H14.8438C15.7055 21.0938 16.4062 21.7945 16.4062 22.6562H17.9688C17.9688 20.9328 16.5672 19.5312 14.8438 19.5312V17.9688H13.2812V19.5312C11.5578 19.5312 10.1562 20.9328 10.1562 22.6562C10.1562 24.3797 11.5578 25.7812 13.2812 25.7812H14.8438C15.7055 25.7812 16.4062 26.482 16.4062 27.3438C16.4062 28.2055 15.7055 28.9062 14.8438 28.9062H13.2812C12.4195 28.9062 11.7188 28.2055 11.7188 27.3438V26.5625H10.1562V27.3438C10.1562 29.0672 11.5578 30.4688 13.2812 30.4688Z" fill="#2C2C2C"/>
<path d="M7.03125 35.1562H21.0938V36.7188H7.03125V35.1562Z" fill="#2C2C2C"/>
<path d="M19.5312 38.2812H21.0938V39.8438H19.5312V38.2812Z" fill="#2C2C2C"/>
<path d="M7.03125 38.2812H17.9688V39.8438H7.03125V38.2812Z" fill="#2C2C2C"/>
<path d="M7.03125 41.4062H10.1562V42.9688H7.03125V41.4062Z" fill="#2C2C2C"/>
<path d="M11.7188 41.4062H21.0938V42.9688H11.7188V41.4062Z" fill="#2C2C2C"/>
<path d="M46.875 29.0172V16.4062C46.875 14.6828 45.4734 13.2812 43.75 13.2812C42.0266 13.2812 40.625 14.6828 40.625 16.4062V37.5C40.625 38.3617 39.9242 39.0625 39.0625 39.0625C38.2008 39.0625 37.5 38.3617 37.5 37.5V9.375C37.5 7.65156 36.0984 6.25 34.375 6.25H27.2063C26.5727 3.13359 23.8117 0.78125 20.5117 0.78125C19.2094 0.78125 17.9414 1.15078 16.8438 1.84922L0.78125 12.0711V45.3125C0.78125 47.4664 2.53359 49.2188 4.6875 49.2188H23.4375C25.5914 49.2188 27.3438 47.4664 27.3438 45.3125V7.8125H34.375C35.2367 7.8125 35.9375 8.51328 35.9375 9.375V37.5C35.9375 39.2234 37.3391 40.625 39.0625 40.625C40.7859 40.625 42.1875 39.2234 42.1875 37.5V16.4062C42.1875 15.5445 42.8883 14.8438 43.75 14.8438C44.6117 14.8438 45.3125 15.5445 45.3125 16.4062V29.0172C43.9688 29.3664 42.9688 30.5789 42.9688 32.0312C42.9688 33.7547 44.3703 35.1562 46.0938 35.1562C47.8172 35.1562 49.2188 33.7547 49.2188 32.0312C49.2188 30.5789 48.2188 29.3664 46.875 29.0172ZM23.4375 47.6562H4.6875C3.39531 47.6562 2.34375 46.6047 2.34375 45.3125V13.2812H25.7812V45.3125C25.7812 46.6047 24.7297 47.6562 23.4375 47.6562ZM25.7812 11.7188H4.24531L17.6828 3.16797C18.5297 2.62812 19.5078 2.34375 20.5117 2.34375C22.9453 2.34375 24.993 4.00391 25.5961 6.25H24.1078C23.7586 4.90547 22.5453 3.90625 21.0938 3.90625C19.3703 3.90625 17.9688 5.30781 17.9688 7.03125C17.9688 8.75469 19.3703 10.1562 21.0938 10.1562C22.5453 10.1562 23.7586 9.15703 24.1078 7.8125H25.7812V11.7188ZM22.6562 7.03125C22.6562 7.89297 21.9555 8.59375 21.0938 8.59375C20.232 8.59375 19.5312 7.89297 19.5312 7.03125C19.5312 6.16953 20.232 5.46875 21.0938 5.46875C21.9555 5.46875 22.6562 6.16953 22.6562 7.03125ZM46.0938 33.5938C45.232 33.5938 44.5312 32.893 44.5312 32.0312C44.5312 31.1695 45.232 30.4688 46.0938 30.4688C46.9555 30.4688 47.6562 31.1695 47.6562 32.0312C47.6562 32.893 46.9555 33.5938 46.0938 33.5938Z" fill="#2C2C2C"/>
</g>
<defs>
<clipPath id="clip0_63_139">
<rect width="50" height="50" fill="white"/>
</clipPath>
</defs>
</svg>
