<svg width="50" height="50" viewBox="0 0 50 50" fill="none" xmlns="http://www.w3.org/2000/svg">
<g clip-path="url(#clip0_29_614)">
<path d="M44.5312 31.2039V42.4852L41.4062 40.9227V35.1562H39.8438V40.9234L36.7188 42.4859V31.2023H35.1562V45.0141L36.7188 44.2328V47.6562H2.34375V4.6875C2.34375 3.39531 3.39531 2.34375 4.6875 2.34375C5.97969 2.34375 7.03125 3.39531 7.03125 4.6875V13.2812H36.7188V18.75H38.2812V13.2812H42.9688V4.6875C42.9688 2.53359 41.2164 0.78125 39.0625 0.78125H4.6875C2.53359 0.78125 0.78125 2.53359 0.78125 4.6875V49.2188H38.2812V43.4516L40.625 42.2797L46.0938 45.0141V31.2039H44.5312ZM39.0625 2.34375C40.3547 2.34375 41.4062 3.39531 41.4062 4.6875V11.7188H8.59375V4.6875C8.59375 3.80859 8.30156 2.99688 7.81094 2.34375H39.0625Z" fill="#2C2C2C"/>
<path d="M49.2188 25C49.2188 23.7656 48.4875 22.6852 47.425 22.1836C47.8219 21.0773 47.5742 19.7961 46.7016 18.9234C45.8281 18.0508 44.5461 17.8039 43.4414 18.2C42.9398 17.1375 41.8594 16.4062 40.625 16.4062C39.3906 16.4062 38.3102 17.1375 37.8086 18.2C36.7039 17.8031 35.4219 18.0508 34.5484 18.9234C33.6758 19.7961 33.4281 21.0773 33.825 22.1836C32.7625 22.6852 32.0312 23.7656 32.0312 25C32.0312 26.2344 32.7625 27.3148 33.825 27.8164C33.4289 28.9227 33.6758 30.2031 34.5484 31.0766C35.4227 31.95 36.7047 32.1977 37.8086 31.8C38.3102 32.8625 39.3906 33.5938 40.625 33.5938C41.8594 33.5938 42.9398 32.8625 43.4414 31.8C44.5453 32.1969 45.8289 31.9492 46.7016 31.0766C47.5742 30.2031 47.8211 28.9227 47.425 27.8164C48.4875 27.3148 49.2188 26.2344 49.2188 25ZM40.625 29.6875C38.0359 29.6875 35.9375 27.5891 35.9375 25C35.9375 22.4109 38.0359 20.3125 40.625 20.3125C43.2141 20.3125 45.3125 22.4109 45.3125 25C45.3125 27.5891 43.2141 29.6875 40.625 29.6875Z" fill="#009FEF"/>
<path d="M40.625 30.4688C37.6094 30.4688 35.1562 28.0148 35.1562 25C35.1562 21.9844 37.6094 19.5312 40.625 19.5312C43.6406 19.5312 46.0938 21.9844 46.0938 25C46.0938 28.0148 43.6406 30.4688 40.625 30.4688ZM40.625 21.0938C38.4711 21.0938 36.7188 22.8461 36.7188 25C36.7188 27.1539 38.4711 28.9062 40.625 28.9062C42.7789 28.9062 44.5312 27.1539 44.5312 25C44.5312 22.8461 42.7789 21.0938 40.625 21.0938Z" fill="#2C2C2C"/>
<path d="M40.625 27.3438C39.3328 27.3438 38.2812 26.2922 38.2812 25C38.2812 23.7078 39.3328 22.6562 40.625 22.6562C41.9172 22.6562 42.9688 23.7078 42.9688 25C42.9688 26.2922 41.9172 27.3438 40.625 27.3438ZM40.625 24.2188C40.1945 24.2188 39.8438 24.5695 39.8438 25C39.8438 25.4305 40.1945 25.7812 40.625 25.7812C41.0555 25.7812 41.4062 25.4305 41.4062 25C41.4062 24.5695 41.0555 24.2188 40.625 24.2188Z" fill="#2C2C2C"/>
<path d="M5.46875 14.8438H3.90625V16.4062H5.46875V14.8438Z" fill="#2C2C2C"/>
<path d="M35.1562 14.8438H7.03125V16.4062H35.1562V14.8438Z" fill="#2C2C2C"/>
<path d="M32.0312 17.9688H3.90625V19.5312H32.0312V17.9688Z" fill="#2C2C2C"/>
<path d="M32.0312 21.0938H3.90625V22.6562H32.0312V21.0938Z" fill="#2C2C2C"/>
<path d="M31.25 46.0938H6.25C4.95781 46.0938 3.90625 45.0422 3.90625 43.75V37.5C3.90625 36.2078 4.95781 35.1562 6.25 35.1562H31.25C32.5422 35.1562 33.5938 36.2078 33.5938 37.5V43.75C33.5938 45.0422 32.5422 46.0938 31.25 46.0938Z" fill="#009FEF"/>
<path d="M10.1562 38.2812H8.59375V39.8438H10.1562V38.2812Z" fill="#2C2C2C"/>
<path d="M10.1562 41.4062H8.59375V42.9688H10.1562V41.4062Z" fill="#2C2C2C"/>
<path d="M11.7188 39.8438H10.1562V41.4062H11.7188V39.8438Z" fill="#2C2C2C"/>
<path d="M8.59375 39.8438H7.03125V41.4062H8.59375V39.8438Z" fill="#2C2C2C"/>
<path d="M16.4062 38.2812H14.8438V39.8438H16.4062V38.2812Z" fill="#2C2C2C"/>
<path d="M16.4062 41.4062H14.8438V42.9688H16.4062V41.4062Z" fill="#2C2C2C"/>
<path d="M17.9688 39.8438H16.4062V41.4062H17.9688V39.8438Z" fill="#2C2C2C"/>
<path d="M14.8438 39.8438H13.2812V41.4062H14.8438V39.8438Z" fill="#2C2C2C"/>
<path d="M22.6562 38.2812H21.0938V39.8438H22.6562V38.2812Z" fill="#2C2C2C"/>
<path d="M22.6562 41.4062H21.0938V42.9688H22.6562V41.4062Z" fill="#2C2C2C"/>
<path d="M24.2188 39.8438H22.6562V41.4062H24.2188V39.8438Z" fill="#2C2C2C"/>
<path d="M21.0938 39.8438H19.5312V41.4062H21.0938V39.8438Z" fill="#2C2C2C"/>
<path d="M28.9062 38.2812H27.3438V39.8438H28.9062V38.2812Z" fill="#2C2C2C"/>
<path d="M28.9062 41.4062H27.3438V42.9688H28.9062V41.4062Z" fill="#2C2C2C"/>
<path d="M30.4688 39.8438H28.9062V41.4062H30.4688V39.8438Z" fill="#2C2C2C"/>
<path d="M27.3438 39.8438H25.7812V41.4062H27.3438V39.8438Z" fill="#2C2C2C"/>
<path d="M30.4688 24.2188H3.90625V25.7812H30.4688V24.2188Z" fill="#2C2C2C"/>
<path d="M30.4688 27.3438H7.03125V28.9062H30.4688V27.3438Z" fill="#2C2C2C"/>
<path d="M5.46875 27.3438H3.90625V28.9062H5.46875V27.3438Z" fill="#2C2C2C"/>
<path d="M27.3438 30.4688H3.90625V32.0312H27.3438V30.4688Z" fill="#2C2C2C"/>
<path d="M30.4688 30.4688H28.9062V32.0312H30.4688V30.4688Z" fill="#2C2C2C"/>
</g>
<defs>
<clipPath id="clip0_29_614">
<rect width="50" height="50" fill="white"/>
</clipPath>
</defs>
</svg>
