<svg width="80" height="78" viewBox="0 0 80 78" fill="none" xmlns="http://www.w3.org/2000/svg">
<ellipse cx="40" cy="39" rx="40" ry="39" fill="#CCECFC"/>
<g clip-path="url(#clip0_283_2009)">
<path d="M55.75 24.8438H49.0057C49.1179 25.0373 49.1875 25.2598 49.1875 25.5C49.1875 26.2252 48.6002 26.8125 47.875 26.8125C48.6002 26.8125 49.1875 27.3998 49.1875 28.125H55.0938C55.456 28.125 55.75 28.419 55.75 28.7812V47.1562C55.75 47.5185 55.456 47.8125 55.0938 47.8125H24.9062C24.544 47.8125 24.25 47.5185 24.25 47.1562V28.7812C24.25 28.419 24.544 28.125 24.9062 28.125H29.5V24.8438H24.25C22.4407 24.8438 20.9688 26.3157 20.9688 28.125V50.4375H59.0312V28.125C59.0312 26.3157 57.5593 24.8438 55.75 24.8438Z" fill="#009FEF"/>
<path d="M55.0938 27.4688H49.723C49.6357 27.2233 49.5032 27.0022 49.3319 26.8125C49.6469 26.4634 49.8438 26.006 49.8438 25.5C49.8438 24.994 49.6462 24.5366 49.3319 24.1875C49.6469 23.8384 49.8438 23.381 49.8438 22.875C49.8438 21.7896 48.9604 20.9062 47.875 20.9062H44.1219L44.5045 19.3759C44.5636 19.1396 44.5938 18.8948 44.5938 18.6501C44.5938 16.9989 43.2511 15.6562 41.5999 15.6562H40.8393L39.6227 19.307C39.5026 19.6679 39.2821 19.9836 38.9848 20.2218L37.0278 21.7876C36.68 22.0658 36.243 22.2188 35.798 22.2188H35.4062V20.9062H28.8438V27.4688H24.9062C24.1824 27.4688 23.5938 28.0574 23.5938 28.7812V47.1562C23.5938 47.8801 24.1824 48.4688 24.9062 48.4688H55.0938C55.8176 48.4688 56.4062 47.8801 56.4062 47.1562V28.7812C56.4062 28.0574 55.8176 27.4688 55.0938 27.4688ZM35.798 23.5312C36.5402 23.5312 37.268 23.276 37.8482 22.812L39.8051 21.2462C40.2999 20.8505 40.6681 20.3228 40.8682 19.7217L41.783 16.9779C42.6237 17.0698 43.2812 17.7845 43.2812 18.6501C43.2812 18.7872 43.2642 18.9244 43.2307 19.0576L42.4406 22.2188H47.875C48.2366 22.2188 48.5312 22.5134 48.5312 22.875C48.5312 23.2366 48.2366 23.5312 47.875 23.5312H44.5938V24.8438H47.875C48.2366 24.8438 48.5312 25.1384 48.5312 25.5C48.5312 25.8616 48.2366 26.1562 47.875 26.1562H44.5938V27.4688H47.875C48.2366 27.4688 48.5312 27.7634 48.5312 28.125C48.5312 28.4866 48.2366 28.7812 47.875 28.7812H46.5625H44.5938V30.0938H46.5625C46.9241 30.0938 47.2188 30.3884 47.2188 30.75C47.2188 31.1116 46.9241 31.4062 46.5625 31.4062H39.6174C39.1108 31.4062 38.6035 31.2862 38.15 31.0597L36.2174 30.0938H35.4062V23.5312H35.798ZM30.1562 22.2188H34.0938V31.4062H30.1562V22.2188ZM55.0938 47.1562H24.9062V28.7812H28.8438V32.7188H35.4062V31.4062H35.9076L37.5627 32.2338C38.1973 32.5514 38.9073 32.7188 39.6174 32.7188H46.5625C47.6479 32.7188 48.5312 31.8354 48.5312 30.75C48.5312 30.4908 48.4781 30.2447 48.3869 30.0176C49.0103 29.8483 49.5078 29.3843 49.723 28.7812H55.0938V47.1562Z" fill="#2C2C2C"/>
<path d="M57.0625 56.3438H22.9375C21.1282 56.3438 19.6562 54.8718 19.6562 53.0625V49.7812H60.3438V53.0625C60.3438 54.8718 58.8718 56.3438 57.0625 56.3438ZM20.9688 51.0938V53.0625C20.9688 54.1479 21.8521 55.0312 22.9375 55.0312H57.0625C58.1479 55.0312 59.0312 54.1479 59.0312 53.0625V51.0938H20.9688Z" fill="#2C2C2C"/>
<path d="M36.7188 52.4062H43.2812V53.7188H36.7188V52.4062Z" fill="#2C2C2C"/>
<path d="M44.5938 52.4062H45.9062V53.7188H44.5938V52.4062Z" fill="#2C2C2C"/>
<path d="M34.0938 52.4062H35.4062V53.7188H34.0938V52.4062Z" fill="#2C2C2C"/>
<path d="M48.5312 36.6562L49.8438 39.9375H52.4688L50.3471 41.6779L51.4686 45.1875L48.5312 43.0186L45.5939 45.1875L46.7154 41.6779L43.9375 39.9375H47.2188L48.5312 36.6562Z" fill="#009FEF"/>
<path d="M40 34.6875L41.3125 37.9688H44.5938L41.8158 39.7091L42.9374 43.2188L40 41.0498L37.0626 43.2188L38.1842 39.7091L35.4062 37.9688H38.6875L40 34.6875Z" fill="#009FEF"/>
<path d="M31.4688 36.6562L32.7812 39.9375H36.0625L33.2846 41.6779L34.4061 45.1875L31.4688 43.0186L28.5314 45.1875L29.6529 41.6779L27.5312 39.9375H30.1562L31.4688 36.6562Z" fill="#009FEF"/>
<path d="M53.7812 35.3438H52.4688V31.4062H51.1562V30.0938H53.7812V35.3438Z" fill="#2C2C2C"/>
<path d="M52.4688 36.6562H53.7812V37.9688H52.4688V36.6562Z" fill="#2C2C2C"/>
</g>
<defs>
<clipPath id="clip0_283_2009">
<rect width="42" height="42" fill="white" transform="translate(19 15)"/>
</clipPath>
</defs>
</svg>
