<svg width="50" height="50" viewBox="0 0 50 50" fill="none" xmlns="http://www.w3.org/2000/svg">
<g clip-path="url(#clip0_71_454)">
<path d="M17 33V40.1429C17 41.7209 17.7959 43 18.7778 43H31.2222C32.2041 43 33 41.7209 33 40.1429V33H17Z" fill="#009FEF"/>
<path d="M32.2581 16.9355C32.2581 15.6014 31.1729 14.5161 29.8388 14.5161C28.5047 14.5161 27.4194 15.6014 27.4194 16.9355C27.4194 18.2695 28.5047 19.3548 29.8388 19.3548C31.1729 19.3548 32.2581 18.2695 32.2581 16.9355ZM29.0323 16.9355C29.0323 16.4908 29.3941 16.129 29.8388 16.129C30.2834 16.129 30.6452 16.4908 30.6452 16.9355C30.6452 17.3801 30.2834 17.7419 29.8388 17.7419C29.3941 17.7419 29.0323 17.3801 29.0323 16.9355Z" fill="#2C2C2C"/>
<path d="M46.7742 12.9032H48.3871C49.2764 12.9032 50 12.1796 50 11.2903V3.22581C50 2.33649 49.2764 1.6129 48.3871 1.6129H46.7742C45.8849 1.6129 45.1613 2.33649 45.1613 3.22581V3.31936C44.9468 3.25806 44.7225 3.22581 44.4932 3.22581H35.5412C32.6886 3.22581 30.0068 4.33669 27.9896 6.35383C27.6219 6.72147 27.4194 7.21038 27.4194 7.73054C27.4194 8.80403 28.2927 9.67742 29.3662 9.67742C29.8863 9.67742 30.3752 9.4749 30.7429 9.10716C31.4154 8.43478 32.3094 8.06452 33.2602 8.06452C35.3757 8.06452 37.0968 9.78558 37.0968 11.9011V17.8807C36.1582 18.2136 35.4839 19.1101 35.4839 20.1614V27.4195H32.2581V22.0363C34.2091 21.1104 35.4839 19.1278 35.4839 16.9356C35.4839 13.8229 32.9514 11.2904 29.8387 11.2904C26.726 11.2904 24.1935 13.8229 24.1935 16.9356C24.1935 19.1279 25.4683 21.1105 27.4194 22.0363V27.4194H24.187C24.138 26.4416 23.7152 25.5445 23.0201 24.8947L23.6234 24.2913C23.9911 23.9237 24.1936 23.4347 24.1936 22.9146C24.1936 21.9551 23.4954 21.1576 22.5807 20.9985V7.59204C22.5807 6.88992 22.3789 6.21885 22.0025 5.64516C22.3788 5.07137 22.5806 4.4003 22.5806 3.69829V1.6129C22.5806 0.723589 21.8571 0 20.9677 0H19.3548C18.4655 0 17.7419 0.723589 17.7419 1.6129V3.69829C17.7419 4.4004 17.9437 5.07147 18.3202 5.64516C17.9437 6.21895 17.7419 6.89002 17.7419 7.59204V20.9985C16.8273 21.1576 16.129 21.9552 16.129 22.9146C16.129 23.4348 16.3316 23.9237 16.6993 24.2913L17.3025 24.8947C16.6074 25.5445 16.1846 26.4416 16.1356 27.4194H11.2903V20.9103C14.0225 20.5177 16.129 18.1615 16.129 15.3226V13.7097C16.129 10.597 13.5966 8.06452 10.4839 8.06452H9.67742V12.9032H6.45161V8.06452H5.64516C2.53246 8.06452 0 10.597 0 13.7097V15.3226C0 18.1616 2.10655 20.5178 4.83871 20.9103V27.4194H2.41935C1.08528 27.4194 0 28.5047 0 29.8387V45.9677C0 48.1911 1.80887 50 4.03226 50H45.9677C48.1911 50 50 48.1911 50 45.9677V29.8387C50 28.5047 48.9147 27.4194 47.5806 27.4194H43.5484V20.1613C43.5484 19.11 42.8741 18.2135 41.9355 17.8806V13.3756C41.9355 12.2258 42.871 11.2903 44.0208 11.2903H44.4932C44.7226 11.2903 44.9468 11.2581 45.1613 11.1968V11.2903C45.1613 12.1796 45.8849 12.9032 46.7742 12.9032ZM46.7742 3.22581H48.3871V11.2903H46.7742V3.22581ZM38.7097 14.5161H40.3226V17.7419H38.7097V14.5161ZM37.9032 19.3548H41.129C41.5737 19.3548 41.9355 19.7166 41.9355 20.1613V32.2581H37.0968V20.1613C37.0968 19.7166 37.4586 19.3548 37.9032 19.3548ZM32.2581 35.4839V35.6226V37.0968C32.2581 37.2625 32.2329 37.4223 32.1865 37.5728C32.2321 37.6738 32.2581 37.7854 32.2581 37.9032V39.5161C32.2581 40.8501 31.1727 41.9355 29.8387 41.9355H20.1613C18.8273 41.9355 17.7419 40.8501 17.7419 39.5161V37.9032C17.7419 37.7854 17.7679 37.6738 17.8135 37.5728C17.767 37.4223 17.7419 37.2625 17.7419 37.0968V35.6226V35.4839H1.6129V33.871H27.4194H32.2581H48.3871V35.4839H32.2581ZM18.7563 25.8065H21.5663C22.1959 26.188 22.5806 26.8636 22.5806 27.6098V32.2581H17.7419V27.6098C17.7419 26.8636 18.1267 26.188 18.7563 25.8065ZM35.4839 29.0323V32.2581H32.2581V29.0323H35.4839ZM25.8065 16.9355C25.8065 14.7121 27.6153 12.9032 29.8387 12.9032C32.0621 12.9032 33.871 14.7121 33.871 16.9355C33.871 18.641 32.7907 20.169 31.1828 20.7374L30.6452 20.9275V32.2581H29.0323V20.9275L28.4947 20.7374C26.8867 20.169 25.8065 18.641 25.8065 16.9355ZM27.4194 32.2581H24.1935V29.0323H27.4194V32.2581ZM19.3548 1.6129H20.9677V3.69829C20.9677 4.11411 20.8364 4.50877 20.5965 4.83871H19.726C19.4862 4.50877 19.3548 4.11401 19.3548 3.69829V1.6129ZM19.7261 6.45161H20.5966C20.8364 6.78155 20.9678 7.17631 20.9678 7.59204V20.9677H19.3549V7.59204C19.3548 7.17631 19.4862 6.78155 19.7261 6.45161ZM18.0759 22.5806H22.2466C22.4307 22.5806 22.5805 22.7304 22.5805 22.9146C22.5805 23.0038 22.5458 23.0877 22.4828 23.1508L21.4401 24.1935H18.8825L17.8397 23.1508C17.7767 23.0878 17.7419 23.0039 17.7419 22.9147C17.7419 22.7304 17.8917 22.5806 18.0759 22.5806ZM16.129 29.0323V32.2581H11.2903V29.0323H16.129ZM1.6129 15.3226V13.7097C1.6129 11.7625 3.0005 10.1332 4.83871 9.75847V14.5161H11.2903V9.75847C13.1285 10.1332 14.5161 11.7625 14.5161 13.7097V15.3226C14.5161 17.546 12.7073 19.3548 10.4839 19.3548H9.67742V32.2581H6.45161V19.3548H5.64516C3.42177 19.3548 1.6129 17.546 1.6129 15.3226ZM2.41935 29.0323H4.83871V32.2581H1.6129V29.8387C1.6129 29.3941 1.9747 29.0323 2.41935 29.0323ZM45.9677 48.3871H4.03226C2.69819 48.3871 1.6129 47.3017 1.6129 45.9677V37.0968H16.269C16.1793 37.3493 16.129 37.6204 16.129 37.9032V39.5161C16.129 41.7395 17.9379 43.5484 20.1613 43.5484H29.8387C32.0621 43.5484 33.871 41.7395 33.871 39.5161V37.9032C33.871 37.6204 33.8208 37.3493 33.731 37.0968H48.3871V45.9677C48.3871 47.3017 47.3018 48.3871 45.9677 48.3871ZM47.5806 29.0323C48.0253 29.0323 48.3871 29.3941 48.3871 29.8387V32.2581H43.5484V29.0323H47.5806ZM45.0635 9.44123C44.9112 9.59355 44.7086 9.67742 44.4932 9.67742H44.0208C42.1417 9.67742 40.5866 11.0865 40.3538 12.9032H38.7097V11.9011C38.7097 8.89617 36.265 6.45161 33.2602 6.45161C31.8785 6.45161 30.5795 6.98962 29.6025 7.96673C29.5394 8.02974 29.4555 8.06452 29.3663 8.06452C29.1822 8.06452 29.0324 7.91472 29.0324 7.73054C29.0324 7.64133 29.0671 7.55736 29.1302 7.49425C30.8425 5.78175 33.1194 4.83871 35.5411 4.83871H44.4931C44.7086 4.83871 44.9111 4.92258 45.0634 5.0749L45.1612 5.17268V9.34335L45.0635 9.44123Z" fill="#2C2C2C"/>
</g>
<defs>
<clipPath id="clip0_71_454">
<rect width="50" height="50" fill="white"/>
</clipPath>
</defs>
</svg>
