<svg width="50" height="50" viewBox="0 0 50 50" fill="none" xmlns="http://www.w3.org/2000/svg">
<g clip-path="url(#clip0_71_433)">
<path d="M26.6129 11.2903C26.3403 11.2903 26.075 11.317 25.8064 11.3307V25.8065H11.3306C11.3169 26.075 11.2903 26.3403 11.2903 26.6129C11.2903 35.075 18.1508 41.9355 26.6129 41.9355C35.075 41.9355 41.9354 35.075 41.9354 26.6129C41.9354 18.1508 35.075 11.2903 26.6129 11.2903Z" fill="#009FEF"/>
<path d="M26.6129 3.22583H25.8065V4.83873H26.6129C38.6194 4.83873 48.3871 14.6065 48.3871 26.6129C48.3871 38.6194 38.6194 48.3871 26.6129 48.3871C14.6065 48.3871 4.83873 38.6194 4.83873 26.6129V25.8065H3.22583V26.6129C3.22583 39.5081 13.717 50 26.6129 50C39.5089 50 50 39.5081 50 26.6129C50 13.7178 39.5089 3.22583 26.6129 3.22583Z" fill="#2C2C2C"/>
<path d="M35.2475 34.1072L27.4193 26.279V13.7097H25.8064V26.9468L34.1072 35.2476L35.2475 34.1072Z" fill="#2C2C2C"/>
<path d="M24.1935 8.87097V8.06452V3.22581H19.3548V2.41935C19.3548 1.08548 18.2694 0 16.9355 0H7.25806C5.92419 0 4.83871 1.08548 4.83871 2.41935V3.22581H0V8.06452V8.87097V24.1935H24.1935V8.87097ZM6.45161 2.41935C6.45161 1.97419 6.81371 1.6129 7.25806 1.6129H16.9355C17.3798 1.6129 17.7419 1.97419 17.7419 2.41935V3.22581H6.45161V2.41935ZM1.6129 4.83871H22.5806V8.06452V8.87097C22.5806 10.2048 21.4952 11.2903 20.1613 11.2903H15.3226V8.06452H8.87097V11.2903H4.03226C2.69839 11.2903 1.6129 10.2048 1.6129 8.87097V8.06452V4.83871ZM13.7097 9.67742V13.7097C13.7097 14.1548 13.3476 14.5161 12.9032 14.5161H11.2903C10.846 14.5161 10.4839 14.1548 10.4839 13.7097V9.67742H13.7097ZM1.6129 22.5806V12.0758C2.28871 12.5879 3.12097 12.9032 4.03226 12.9032H8.87097V13.7097C8.87097 15.0435 9.95645 16.129 11.2903 16.129H12.9032C14.2371 16.129 15.3226 15.0435 15.3226 13.7097V12.9032H20.1613C21.0726 12.9032 21.9048 12.5879 22.5806 12.0758V22.5806H1.6129Z" fill="#2C2C2C"/>
<path d="M18.0492 43.058L19.2468 40.9839L17.85 40.1774L16.6541 42.2484C14.3742 40.7911 12.4339 38.8508 10.9767 36.571L13.0476 35.375L12.2412 33.9782L10.167 35.1758C8.9436 32.8363 8.20408 30.2072 8.08392 27.4185H10.4839V25.8056H6.45166V27.4185H6.47182C6.89763 38.1637 15.7662 46.7742 26.613 46.7742C37.7299 46.7742 46.7742 37.7298 46.7742 26.6129C46.7742 15.7661 38.1638 6.89757 27.4194 6.47176V6.4516H25.8065V10.4839H27.4194V8.08466C30.2081 8.20482 32.8371 8.94434 35.1767 10.1677L33.9791 12.2419L35.3759 13.0484L36.5718 10.9774C38.8517 12.4347 40.792 14.375 42.2492 16.6548L40.1783 17.8508L40.9847 19.2476L43.0589 18.05C44.2823 20.3895 45.0218 23.0185 45.142 25.8072H42.742V27.4201H45.1412C45.021 30.2089 44.2815 32.8379 43.0581 35.1774L40.9839 33.9798L40.1775 35.3766L42.2484 36.5726C40.7912 38.8524 38.8509 40.7927 36.571 42.25L35.375 40.179L33.9783 40.9855L35.1759 43.0597C32.8363 44.2831 30.2073 45.0226 27.4186 45.1427V42.7419H25.8057V45.1411C23.0178 45.021 20.3888 44.2814 18.0492 43.058Z" fill="#2C2C2C"/>
</g>
<defs>
<clipPath id="clip0_71_433">
<rect width="50" height="50" fill="white"/>
</clipPath>
</defs>
</svg>
