<svg width="50" height="50" viewBox="0 0 50 50" fill="none" xmlns="http://www.w3.org/2000/svg">
<g clip-path="url(#clip0_71_461)">
<path d="M39.8438 49.2188C39.0648 49.2188 38.3633 48.7852 38.0141 48.0891L31.4492 34.957C30.8078 33.675 30.4688 32.2398 30.4688 30.8055C30.4688 28.8906 31.0492 27.0484 32.1469 25.482L35.9375 20.3125V15.625C35.9375 15.193 36.2867 14.8438 36.7188 14.8438H42.9688C43.4008 14.8438 43.75 15.193 43.75 15.625V20.3125L47.5406 25.4813C48.6383 27.0484 49.2188 28.8898 49.2188 30.8055C49.2188 32.2398 48.8797 33.6758 48.2383 34.957L41.6734 48.0883C41.3242 48.7852 40.6227 49.2188 39.8438 49.2188Z" fill="#009FEF"/>
<path d="M46.0938 24.2188H43.75V25.7812H46.0938V24.2188Z" fill="#2C2C2C"/>
<path d="M40.625 24.2188H33.5938V25.7812H40.625V24.2188Z" fill="#2C2C2C"/>
<path d="M43.75 18.75H35.9375V20.3125H43.75V18.75Z" fill="#2C2C2C"/>
<path d="M21.0938 7.03125H25.1844L29.8719 4.6875L25.1844 2.34375H21.0938V0.78125H5.46875V2.34375H0.78125V7.03125H5.46875V8.59375H7.67656C4.48828 10.507 2.34375 13.9875 2.34375 17.9688C2.34375 23.468 6.42734 28.0195 11.7188 28.7812V47.6562H14.8438V46.0938H13.2812V28.9062C18.6508 28.9062 23.1461 25.1039 24.0523 19.8406C24.6242 19.4125 25 18.7367 25 17.9688C25 17.2008 24.6242 16.525 24.0523 16.0969C23.4953 12.8617 21.5852 10.1805 18.9453 8.59375H21.0938V7.03125ZM24.8156 3.90625L26.3781 4.6875L24.8156 5.46875H21.0938V3.90625H24.8156ZM2.34375 5.46875V3.90625H5.46875V5.46875H2.34375ZM22.6562 17.1875C23.0867 17.1875 23.4375 17.5375 23.4375 17.9688C23.4375 18.4 23.0867 18.75 22.6562 18.75H14.7422L14.5164 19.1383C14.0883 19.8734 13.3344 20.3125 12.5 20.3125C11.7812 20.3125 11.1117 19.9891 10.6633 19.425C10.2078 18.8523 10.0516 18.1313 10.2234 17.3953C10.4133 16.5789 11.0875 15.8977 11.9016 15.6984C12.1023 15.6492 12.3023 15.625 12.4992 15.625C13.3266 15.625 14.0805 16.0508 14.5164 16.7984L14.743 17.1875H22.6562ZM22.357 15.625H15.6094C14.6727 14.3758 13.0891 13.8023 11.5305 14.1805C10.1367 14.5219 9.02578 15.6445 8.70078 17.0414C8.42422 18.2336 8.69297 19.457 9.43906 20.3961C10.1859 21.3367 11.3016 21.875 12.5 21.875C13.7211 21.875 14.8758 21.2859 15.6086 20.3125H22.357C21.3039 24.3789 17.5547 27.3438 13.2812 27.3438C8.11172 27.3438 3.90625 23.1383 3.90625 17.9688C3.90625 12.7992 8.11172 8.59375 13.2812 8.59375C17.5547 8.59375 21.3039 11.5586 22.357 15.625ZM19.5312 7.03125H7.03125V2.34375H19.5312V7.03125Z" fill="#2C2C2C"/>
<path d="M13.2812 25.7812C15.5008 25.7812 17.6234 24.832 19.1039 23.1773L17.9398 22.1352C16.7547 23.4594 15.057 24.2188 13.2812 24.2188C9.83516 24.2188 7.03125 21.4148 7.03125 17.9688C7.03125 14.5227 9.83516 11.7188 13.2812 11.7188C15.057 11.7188 16.7547 12.4781 17.9398 13.8023L19.1039 12.7602C17.6234 11.1055 15.5008 10.1562 13.2812 10.1562C8.97344 10.1562 5.46875 13.6609 5.46875 17.9688C5.46875 22.2766 8.97344 25.7812 13.2812 25.7812Z" fill="#2C2C2C"/>
<path d="M17.1875 3.90625H9.375V5.46875H17.1875V3.90625Z" fill="#2C2C2C"/>
<path d="M17.9688 45.3125H16.4062V48.4375H17.9688V45.3125Z" fill="#2C2C2C"/>
<path d="M21.0938 45.3125H19.5312V48.4375H21.0938V45.3125Z" fill="#2C2C2C"/>
<path d="M24.2188 45.3125H22.6562V48.4375H24.2188V45.3125Z" fill="#2C2C2C"/>
<path d="M39.0625 14.0625V15.625H40.625V14.0625C40.625 11.9086 38.8727 10.1562 36.7188 10.1562H31.25C29.0961 10.1562 27.3438 11.9086 27.3438 14.0625V46.0938H25.7812V47.6562H28.9062V14.0625C28.9062 12.7703 29.9578 11.7188 31.25 11.7188H36.7188C38.0109 11.7188 39.0625 12.7703 39.0625 14.0625Z" fill="#2C2C2C"/>
</g>
<defs>
<clipPath id="clip0_71_461">
<rect width="50" height="50" fill="white"/>
</clipPath>
</defs>
</svg>
