<svg width="58" height="58" viewBox="0 0 58 58" fill="none" xmlns="http://www.w3.org/2000/svg">
<g clip-path="url(#clip0_76_2070)">
<path d="M46.2188 31.2466V54.3007L30.8968 42.0437C31.0472 41.9168 31.2004 41.7935 31.3436 41.6567L40.1877 33.234L38.9379 31.9208L30.0938 40.3444C28.5704 41.7944 26.5731 42.5938 24.4688 42.5938C22.3644 42.5938 20.3671 41.7944 18.8437 40.3435L4.07812 26.2812H27.7276V24.4688H0.90625V57.0938H48.0312V31.2466H46.2188ZM29.3444 43.1239L44.5404 55.2812H4.39713L19.594 43.123C21.0694 43.954 22.7369 44.4062 24.4688 44.4062C26.2006 44.4062 27.8681 43.954 29.3444 43.1239ZM18.0416 42.0427L2.71875 54.3016V27.4893L17.5939 41.6549C17.738 41.7926 17.8912 41.9159 18.0416 42.0427Z" fill="#2C2C2C"/>
<path d="M42.5938 48.0312H44.4062V49.8438H42.5938V48.0312Z" fill="#2C2C2C"/>
<path d="M42.5938 37.1562H44.4062V46.2188H42.5938V37.1562Z" fill="#2C2C2C"/>
<path d="M40.7812 33.5312C31.7867 33.5312 24.4688 26.2133 24.4688 17.2188C24.4688 8.22422 31.7867 0.90625 40.7812 0.90625C49.7758 0.90625 57.0938 8.22422 57.0938 17.2188C57.0938 26.2133 49.7758 33.5312 40.7812 33.5312Z" fill="#009FEF"/>
<path d="M40.7858 6.34103H40.4876C40.4867 6.34103 40.4867 6.34103 40.4858 6.34103C37.661 6.34103 35.0039 7.44122 33.0056 9.4386C31.0064 11.4369 29.9053 14.0949 29.9063 16.9206V17.2197C29.9063 20.1242 31.0382 22.8556 33.0926 24.9092C35.1462 26.9628 37.8767 28.0938 40.7803 28.0938H40.7822H42.5938V26.2813H40.7822C40.7812 26.2813 40.7813 26.2813 40.7803 26.2813C38.3607 26.2813 36.0851 25.3388 34.3741 23.6278C32.6613 21.9149 31.7188 19.6403 31.7188 17.2197V16.9206C31.7188 14.5779 32.6304 12.3767 34.2871 10.7209C35.9428 9.06522 38.1441 8.15353 40.4858 8.15353H40.4876H40.7858C45.7801 8.15535 49.8438 12.2199 49.8438 17.2142V20.3906C49.8438 21.6403 48.8278 22.6563 47.5781 22.6563C46.3284 22.6563 45.3125 21.6403 45.3125 20.3906V18.125V16.3125C45.3125 13.814 43.2798 11.7813 40.7813 11.7813C38.2827 11.7813 36.25 13.814 36.25 16.3125V18.125C36.25 20.6235 38.2827 22.6563 40.7813 22.6563C41.895 22.6563 42.9037 22.2367 43.6939 21.5669C44.2023 23.2399 45.7412 24.4688 47.5781 24.4688C49.8265 24.4688 51.6562 22.639 51.6562 20.3906V17.2142C51.6562 11.2212 46.7797 6.34285 40.7858 6.34103ZM40.7813 20.8438C39.2823 20.8438 38.0625 19.6239 38.0625 18.125V16.3125C38.0625 14.8136 39.2823 13.5938 40.7813 13.5938C42.2802 13.5938 43.5 14.8136 43.5 16.3125V18.125C43.5 19.6239 42.2802 20.8438 40.7813 20.8438Z" fill="#2C2C2C"/>
<path d="M9.96875 28.0938H11.7812V29.9062H9.96875V28.0938Z" fill="#2C2C2C"/>
<path d="M13.5938 28.0938H15.4062V29.9062H13.5938V28.0938Z" fill="#2C2C2C"/>
<path d="M17.2188 28.0938H19.0312V29.9062H17.2188V28.0938Z" fill="#2C2C2C"/>
</g>
<defs>
<clipPath id="clip0_76_2070">
<rect width="58" height="58" fill="white"/>
</clipPath>
</defs>
</svg>
