<svg width="58" height="58" viewBox="0 0 58 58" fill="none" xmlns="http://www.w3.org/2000/svg">
<g clip-path="url(#clip0_76_2035)">
<path d="M26.1961 25.8771C25.6587 24.9545 25.375 23.906 25.375 22.8384V22.7623C25.375 20.9724 26.1698 19.275 27.5446 18.1295L29.8383 16.2182C29.86 16.2001 29.8845 16.1883 29.9062 16.1711V11.7812H4.53125V46.2188H29.9062V31.2339C28.5469 29.5438 27.2962 27.7621 26.1961 25.8771Z" fill="#009FEF"/>
<path d="M20.8438 4.53125H13.5938V6.34375H20.8438V4.53125Z" fill="#2C2C2C"/>
<path d="M24.4688 4.53125H22.6562V6.34375H24.4688V4.53125Z" fill="#2C2C2C"/>
<path d="M11.7812 4.53125H9.96875V6.34375H11.7812V4.53125Z" fill="#2C2C2C"/>
<path d="M19.9375 51.6562H14.5V53.4688H19.9375V51.6562Z" fill="#2C2C2C"/>
<path d="M48.4708 29.0643C47.8446 28.4381 47.0126 28.0938 46.1281 28.0938C45.2164 28.0938 44.3347 28.4753 43.7112 29.1405L41.9757 30.991C41.1229 31.9009 39.5515 31.9272 38.6688 31.0445L36.9224 29.2982C36.4893 28.8641 36.25 28.2859 36.25 27.6714C36.25 27.0371 36.5146 26.4253 36.9777 25.9922L38.8283 24.2567C39.4935 23.6332 39.875 22.7523 39.875 21.8406C39.875 20.9561 39.5306 20.1242 38.9044 19.4989L35.1978 15.7923C34.7202 15.3147 34.152 14.9595 33.5312 14.7438V5.4375C33.5312 2.93897 31.4985 0.90625 29 0.90625H5.4375C2.93897 0.90625 0.90625 2.93897 0.90625 5.4375V52.5625C0.90625 55.061 2.93897 57.0938 5.4375 57.0938H29C31.4985 57.0938 33.5312 55.061 33.5312 52.5625V33.9672L33.2748 33.7034C30.8506 31.2112 28.7318 28.4245 26.9791 25.4203C26.5223 24.6373 26.2812 23.7437 26.2812 22.7614C26.2812 21.2362 26.9528 19.8016 28.1246 18.8246L28.7798 18.2791L35.4743 24.9735C34.8218 25.7194 34.4375 26.6737 34.4375 27.6714C34.4375 28.7707 34.8653 29.8038 35.6428 30.5805L37.3892 32.3268C38.1658 33.1035 39.1989 33.5322 40.2982 33.5322C41.296 33.5322 42.2503 33.1479 42.9952 32.4963L49.6897 39.1908L49.1441 39.846C48.1663 41.016 46.7317 41.6875 45.2065 41.6875C44.2576 41.6875 43.3296 41.4247 42.5212 40.9272L41.528 40.3163C39.5877 39.1219 37.7308 37.7634 36.0071 36.2772L34.8236 37.6502C36.6188 39.198 38.5555 40.6145 40.5773 41.8606L41.5715 42.4714C42.6653 43.1438 43.9223 43.5 45.2065 43.5C47.2709 43.5 49.2139 42.5901 50.5352 41.0042L52.4465 38.7105C53.1063 37.9202 53.4688 36.917 53.4688 35.8884C53.4688 34.7112 53.0102 33.6037 52.1773 32.7718L48.4708 29.0643ZM5.4375 2.71875H29C30.4989 2.71875 31.7188 3.93856 31.7188 5.4375V8.15625H2.71875V5.4375C2.71875 3.93856 3.93856 2.71875 5.4375 2.71875ZM29 55.2812H5.4375C3.93856 55.2812 2.71875 54.0614 2.71875 52.5625V49.8438H31.7188V52.5625C31.7188 54.0614 30.4989 55.2812 29 55.2812ZM26.9646 17.4335C25.3786 18.7548 24.4688 20.6969 24.4688 22.8384C24.4688 24.0646 24.795 25.2735 25.4131 26.3329C27.1784 29.3589 29.2982 32.1719 31.7188 34.7021V48.0312H2.71875V9.96875H31.7188V14.5154C30.8179 14.5897 29.9561 14.9404 29.2583 15.5223L26.9646 17.4335ZM30.4183 16.9142C31.4161 16.0832 32.9966 16.1548 33.9155 17.0728L37.6221 20.7794C37.9066 21.0631 38.0625 21.4401 38.0625 21.8406C38.0625 22.2539 37.8894 22.6526 37.5885 22.9354L36.7675 23.7057L30.1781 17.1163L30.4183 16.9142ZM51.0545 37.5505L50.8533 37.7915L44.264 31.2022L45.0343 30.3811C45.5898 29.7875 46.613 29.7712 47.1893 30.3467L50.8959 34.0532C51.3862 34.5426 51.6562 35.1942 51.6562 35.8884C51.6562 36.4947 51.4424 37.0847 51.0545 37.5505Z" fill="#2C2C2C"/>
<path d="M54.1737 14.7012C50.2868 10.8143 43.9621 10.8143 40.0752 14.7012L41.3566 15.9826C44.5367 12.8026 49.7113 12.8026 52.8923 15.9826C56.0723 19.1627 56.0723 24.3373 52.8923 27.5183L54.1737 28.7997C58.0606 24.9119 58.0606 18.5881 54.1737 14.7012Z" fill="#2C2C2C"/>
<path d="M51.6111 26.2359C54.0843 23.7628 54.0843 19.7381 51.6111 17.265C49.138 14.7918 45.1133 14.7918 42.6401 17.265L43.9216 18.5464C45.6879 16.7801 48.5634 16.7801 50.3297 18.5464C52.096 20.3136 52.096 23.1882 50.3297 24.9545L51.6111 26.2359Z" fill="#2C2C2C"/>
<path d="M19.9375 30.1292V29.8881C21.0667 29.0372 21.75 27.6986 21.75 26.2822V24.6582C21.75 22.2222 19.9366 20.1577 17.6211 19.9565C16.3515 19.846 15.0909 20.2737 14.1574 21.1292C13.2231 21.9847 12.6875 23.2027 12.6875 24.4688V26.2813C12.6875 27.6977 13.3708 29.0372 14.5 29.8872V30.1283L11.4278 31.0065C9.50112 31.5565 8.15625 33.341 8.15625 35.3438V38.0625H26.2812V35.3438C26.2812 33.341 24.9364 31.5565 23.0097 31.0065L19.9375 30.1292ZM24.4688 35.3438V36.25H9.96875V35.3438C9.96875 34.1457 10.7735 33.0781 11.9262 32.7492L16.3125 31.4958V28.8822L15.8621 28.6203C15.0093 28.1237 14.5 27.2491 14.5 26.2813V24.4688C14.5 23.7093 14.8217 22.978 15.3827 22.4641C15.95 21.943 16.6859 21.6911 17.4652 21.7609C18.8509 21.8814 19.9375 23.1529 19.9375 24.6573V26.2813C19.9375 27.2491 19.4282 28.1237 18.5754 28.6203L18.125 28.8822V31.4958L22.5113 32.7492C23.664 33.0781 24.4688 34.1457 24.4688 35.3438Z" fill="#2C2C2C"/>
</g>
<defs>
<clipPath id="clip0_76_2035">
<rect width="58" height="58" fill="white"/>
</clipPath>
</defs>
</svg>
