<svg width="58" height="58" viewBox="0 0 58 58" fill="none" xmlns="http://www.w3.org/2000/svg">
<g clip-path="url(#clip0_76_2055)">
<path d="M10.2903 58C4.61661 58 0 53.3834 0 47.7097C0 42.036 4.61661 37.4193 10.2903 37.4193C15.964 37.4193 20.5806 42.036 20.5806 47.7097C20.5806 53.3834 15.964 58 10.2903 58Z" fill="#009FEF"/>
<path d="M49.5807 13.0968C47.0016 13.0968 44.9033 10.9985 44.9033 8.41936C44.9033 5.84023 47.0016 3.74194 49.5807 3.74194C52.1599 3.74194 54.2582 5.84023 54.2582 8.41936C54.2582 10.9985 52.1599 13.0968 49.5807 13.0968Z" fill="#009FEF"/>
<path d="M24.3224 34.6129H14.9676C13.4203 34.6129 12.1611 35.8721 12.1611 37.4194V37.598C12.8085 37.7178 13.4334 37.8993 14.0321 38.1341V37.4194C14.0321 36.9039 14.4521 36.4839 14.9676 36.4839H24.3224C24.8379 36.4839 25.2579 36.9039 25.2579 37.4194V58H27.1289V37.4194C27.1289 35.8721 25.8697 34.6129 24.3224 34.6129Z" fill="#2C2C2C"/>
<path d="M24.3226 18.7097H0V20.5807H24.3226C24.838 20.5807 25.2581 21.0007 25.2581 21.5161V28.0645C25.2581 28.58 24.838 29 24.3226 29H13.0968C9.48581 29 6.54839 31.9374 6.54839 35.5484V38.1341C7.1471 37.8993 7.772 37.7178 8.41935 37.598V35.5484C8.41935 32.9693 10.5176 30.871 13.0968 30.871H24.3226C25.8699 30.871 27.129 29.6118 27.129 28.0645V21.5161C27.129 19.9688 25.8699 18.7097 24.3226 18.7097Z" fill="#2C2C2C"/>
<path d="M11.8777 42.2362C11.6111 41.5832 10.988 41.1613 10.2901 41.1613C9.59228 41.1613 8.96925 41.5832 8.71667 42.2025L4.80634 50.8173C4.72028 51.0269 4.67725 51.2486 4.67725 51.475V51.606C4.67725 52.5527 5.43686 53.3226 6.37141 53.3226C6.78021 53.3226 7.17499 53.1729 7.43318 52.9428L10.2901 50.7584L13.0966 52.9016C13.4053 53.1729 13.8001 53.3226 14.2089 53.3226C15.1425 53.3226 15.9031 52.5527 15.9031 51.6069V51.4759C15.9031 51.2486 15.86 51.0278 15.7599 50.7865L11.8777 42.2362ZM6.52389 51.5592L6.53138 51.5414C6.5426 51.5611 6.54821 51.5835 6.54821 51.6069L6.52389 51.5592ZM11.2256 49.1185V46.7742H9.35467V49.1194L6.71473 51.1401L10.2901 43.2624L13.8843 51.1513L11.2256 49.1185Z" fill="#2C2C2C"/>
<path d="M25.2581 12.1613C25.2581 12.6767 24.838 13.0968 24.3226 13.0968H0V14.9677H24.3226C25.8699 14.9677 27.129 13.7086 27.129 12.1613V0H25.2581V12.1613Z" fill="#2C2C2C"/>
<path d="M32.7421 45.8387V37.4194C32.7421 36.9039 33.1621 36.4839 33.6775 36.4839H46.7743C50.3853 36.4839 53.3227 33.5465 53.3227 29.9355V27.4527C55.5735 26.6547 57.0646 25.1514 57.0646 23.3871C57.0646 21.6087 55.5641 20.0577 53.1609 19.2625L54.8644 14.9649C56.7746 13.4205 58.0001 11.0612 58.0001 8.41935C58.0001 3.77748 54.2226 0 49.5808 0C44.9389 0 41.1614 3.77748 41.1614 8.41935C41.1614 11.0892 42.414 13.4682 44.3589 15.0117L46.0184 19.2579C43.6058 20.0512 42.0969 21.605 42.0969 23.3871C42.0969 25.1514 43.5881 26.6547 45.8388 27.4527V28.0645C45.8388 28.58 45.4188 29 44.9034 29H33.6775C33.1621 29 32.7421 28.58 32.7421 28.0645V0H30.8711V28.0645C30.8711 29.6118 32.1303 30.871 33.6775 30.871H44.9034C46.4506 30.871 47.7098 29.6118 47.7098 28.0645V27.9167C48.3066 28.0103 48.9315 28.0645 49.5808 28.0645C50.23 28.0645 50.8549 28.0103 51.4517 27.9167V29.9355C51.4517 32.5146 49.3534 34.6129 46.7743 34.6129H33.6775C32.1303 34.6129 30.8711 35.8721 30.8711 37.4194V45.8387C30.8711 47.386 32.1303 48.6452 33.6775 48.6452H58.0001V46.7742H33.6775C33.1621 46.7742 32.7421 46.3542 32.7421 45.8387ZM43.0324 8.41935C43.0324 4.80839 45.9698 1.87097 49.5808 1.87097C53.1917 1.87097 56.1292 4.80839 56.1292 8.41935C56.1292 12.0303 53.1917 14.9677 49.5808 14.9677C45.9698 14.9677 43.0324 12.0303 43.0324 8.41935ZM49.5808 16.8387C50.5294 16.8387 51.4377 16.6741 52.289 16.3831L49.9952 22.171C49.8586 22.5124 49.3001 22.5059 49.1682 22.1775L46.909 16.3972C47.75 16.6797 48.6462 16.8387 49.5808 16.8387ZM43.9679 23.3871C43.9679 22.4488 45.0596 21.5199 46.7004 21.0016L47.4292 22.866C47.7837 23.751 48.6275 24.3226 49.5808 24.3226C50.534 24.3226 51.3778 23.751 51.7333 22.8632L52.4695 21.0054C54.1057 21.5236 55.1937 22.4507 55.1937 23.3871C55.1937 24.7145 52.8886 26.1935 49.5808 26.1935C46.2729 26.1935 43.9679 24.7145 43.9679 23.3871Z" fill="#2C2C2C"/>
<path d="M30.8711 55.1935V58H32.7421V55.1935C32.7421 54.6781 33.1621 54.2581 33.6775 54.2581H58.0001V52.3871H33.6775C32.1303 52.3871 30.8711 53.6462 30.8711 55.1935Z" fill="#2C2C2C"/>
</g>
<defs>
<clipPath id="clip0_76_2055">
<rect width="58" height="58" fill="white"/>
</clipPath>
</defs>
</svg>
