<svg width="50" height="50" viewBox="0 0 50 50" fill="none" xmlns="http://www.w3.org/2000/svg">
<g clip-path="url(#clip0_29_456)">
<path d="M8.87097 50C3.97984 50 0 46.0202 0 41.129C0 36.2379 3.97984 32.2581 8.87097 32.2581C13.7621 32.2581 17.7419 36.2379 17.7419 41.129C17.7419 46.0202 13.7621 50 8.87097 50Z" fill="#009FEF"/>
<path d="M42.7419 11.2903C40.5186 11.2903 38.7097 9.48148 38.7097 7.25809C38.7097 5.0347 40.5186 3.22583 42.7419 3.22583C44.9653 3.22583 46.7742 5.0347 46.7742 7.25809C46.7742 9.48148 44.9653 11.2903 42.7419 11.2903Z" fill="#009FEF"/>
<path d="M20.9678 29.8387H12.9032C11.5694 29.8387 10.4839 30.9242 10.4839 32.258V32.4121C11.042 32.5153 11.5807 32.6717 12.0968 32.8742V32.258C12.0968 31.8137 12.4589 31.4516 12.9032 31.4516H20.9678C21.4121 31.4516 21.7742 31.8137 21.7742 32.258V50H23.3871V32.258C23.3871 30.9242 22.3016 29.8387 20.9678 29.8387Z" fill="#2C2C2C"/>
<path d="M20.9677 16.129H0V17.7419H20.9677C21.4121 17.7419 21.7742 18.104 21.7742 18.5484V24.1935C21.7742 24.6379 21.4121 25 20.9677 25H11.2903C8.17742 25 5.64516 27.5323 5.64516 30.6452V32.8742C6.16129 32.6718 6.7 32.5153 7.25806 32.4121V30.6452C7.25806 28.4218 9.06693 26.6129 11.2903 26.6129H20.9677C22.3016 26.6129 23.3871 25.5274 23.3871 24.1935V18.5484C23.3871 17.2145 22.3016 16.129 20.9677 16.129Z" fill="#2C2C2C"/>
<path d="M10.2395 36.4105C10.0097 35.8476 9.47258 35.4839 8.87097 35.4839C8.26935 35.4839 7.73226 35.8476 7.51451 36.3815L4.14355 43.8081C4.06935 43.9887 4.03226 44.1799 4.03226 44.375V44.4879C4.03226 45.304 4.6871 45.9678 5.49274 45.9678C5.84516 45.9678 6.18548 45.8387 6.40806 45.6403L8.87097 43.7573L11.2903 45.6049C11.5565 45.8387 11.8968 45.9678 12.2492 45.9678C13.054 45.9678 13.7097 45.304 13.7097 44.4887V44.3758C13.7097 44.1799 13.6726 43.9895 13.5863 43.7815L10.2395 36.4105ZM5.62419 44.4476L5.63064 44.4323C5.64032 44.4492 5.64516 44.4686 5.64516 44.4887L5.62419 44.4476ZM9.67742 42.3436V40.3226H8.06452V42.3444L5.78871 44.0863L8.87097 37.2952L11.9694 44.096L9.67742 42.3436Z" fill="#2C2C2C"/>
<path d="M21.7742 10.4839C21.7742 10.9282 21.4121 11.2903 20.9677 11.2903H0V12.9032H20.9677C22.3016 12.9032 23.3871 11.8177 23.3871 10.4839V0H21.7742V10.4839Z" fill="#2C2C2C"/>
<path d="M28.2258 39.5161V32.2581C28.2258 31.8137 28.5879 31.4516 29.0323 31.4516H40.3226C43.4355 31.4516 45.9678 28.9194 45.9678 25.8064V23.6661C47.9081 22.9782 49.1936 21.6823 49.1936 20.1613C49.1936 18.6282 47.9 17.2911 45.8282 16.6056L47.2968 12.9008C48.9436 11.5694 50 9.53548 50 7.25806C50 3.25645 46.7436 0 42.7419 0C38.7403 0 35.4839 3.25645 35.4839 7.25806C35.4839 9.55968 36.5637 11.6105 38.2403 12.9411L39.671 16.6016C37.5911 17.2855 36.2903 18.625 36.2903 20.1613C36.2903 21.6823 37.5758 22.9782 39.5161 23.6661V24.1935C39.5161 24.6379 39.154 25 38.7097 25H29.0323C28.5879 25 28.2258 24.6379 28.2258 24.1935V0H26.6129V24.1935C26.6129 25.5274 27.6984 26.6129 29.0323 26.6129H38.7097C40.0436 26.6129 41.129 25.5274 41.129 24.1935V24.0661C41.6436 24.1468 42.1823 24.1935 42.7419 24.1935C43.3016 24.1935 43.8403 24.1468 44.3548 24.0661V25.8064C44.3548 28.0298 42.546 29.8387 40.3226 29.8387H29.0323C27.6984 29.8387 26.6129 30.9242 26.6129 32.2581V39.5161C26.6129 40.85 27.6984 41.9355 29.0323 41.9355H50V40.3226H29.0323C28.5879 40.3226 28.2258 39.9605 28.2258 39.5161ZM37.0968 7.25806C37.0968 4.14516 39.629 1.6129 42.7419 1.6129C45.8548 1.6129 48.3871 4.14516 48.3871 7.25806C48.3871 10.371 45.8548 12.9032 42.7419 12.9032C39.629 12.9032 37.0968 10.371 37.0968 7.25806ZM42.7419 14.5161C43.5597 14.5161 44.3428 14.3742 45.0766 14.1234L43.0992 19.1129C42.9815 19.4073 42.5 19.4016 42.3863 19.1185L40.4387 14.1355C41.1637 14.379 41.9363 14.5161 42.7419 14.5161ZM37.9032 20.1613C37.9032 19.3524 38.8444 18.5516 40.2589 18.1048L40.8871 19.7121C41.1928 20.475 41.9202 20.9677 42.7419 20.9677C43.5637 20.9677 44.2911 20.475 44.5976 19.7097L45.2323 18.1081C46.6428 18.5548 47.5807 19.354 47.5807 20.1613C47.5807 21.3056 45.5936 22.5806 42.7419 22.5806C39.8903 22.5806 37.9032 21.3056 37.9032 20.1613Z" fill="#2C2C2C"/>
<path d="M26.6129 47.5807V50H28.2258V47.5807C28.2258 47.1363 28.5879 46.7742 29.0323 46.7742H50V45.1613H29.0323C27.6984 45.1613 26.6129 46.2468 26.6129 47.5807Z" fill="#2C2C2C"/>
</g>
<defs>
<clipPath id="clip0_29_456">
<rect width="50" height="50" fill="white"/>
</clipPath>
</defs>
</svg>
