<svg width="50" height="50" viewBox="0 0 50 50" fill="none" xmlns="http://www.w3.org/2000/svg">
<g clip-path="url(#clip0_29_457)">
<path d="M41.7347 7.9371C41.4339 5.89355 40.7556 3.54274 39.254 1.93065C38.0621 0.65 36.5218 0 34.6774 0C32.204 0 30.6637 1.55081 29.7081 3.28387C29.2024 3.24919 28.7089 3.22581 28.2258 3.22581H21.7742C21.2911 3.22581 20.7976 3.24919 20.2919 3.28387C19.3363 1.55081 17.796 0 15.3226 0C13.4782 0 11.9379 0.65 10.7452 1.93065C9.24355 3.54274 8.56613 5.89355 8.26452 7.9371C3.01129 12.0984 0 18.2944 0 25C0 31.4339 2.80726 37.2226 7.25806 41.2121V47.5806C7.25806 48.9145 8.34355 50 9.67742 50H19.3548C20.6887 50 21.7742 48.9145 21.7742 47.5806V46.7742H28.2258V47.5806C28.2258 48.9145 29.3113 50 30.6452 50H37.9032V48.3871H30.6452C30.2 48.3871 29.8387 48.0258 29.8387 47.5806V46.7065C29.8911 46.7024 29.9387 46.7008 29.9919 46.6968L29.8613 45.0887C29.2645 45.1379 28.7298 45.1613 28.2258 45.1613H21.7742C10.6573 45.1613 1.6129 36.1169 1.6129 25C1.6129 19.329 3.94194 14.0508 8.05323 10.2419C8.0129 11.3185 8.06048 12.0645 8.06694 12.154L9.675 12.0395C9.67097 11.9782 9.27581 5.87177 11.9274 3.02661C12.8153 2.075 13.9258 1.6129 15.3226 1.6129C19.379 1.6129 20.1589 8.08871 20.1661 8.15403L21.7694 7.975C21.754 7.83952 21.5823 6.44274 21.0016 4.85726C21.2613 4.84677 21.5202 4.83871 21.7742 4.83871H28.2258C28.4798 4.83871 28.7387 4.84677 28.9984 4.85726C28.4177 6.44274 28.2452 7.84032 28.2306 7.975L29.8339 8.15323C29.8411 8.0879 30.6073 1.6129 34.6774 1.6129C36.0742 1.6129 37.1847 2.075 38.0726 3.02742C40.7242 5.87177 40.329 11.979 40.325 12.0403L41.9331 12.1548C41.9395 12.0653 41.9871 11.3194 41.9468 10.2427C46.0581 14.0508 48.3871 19.329 48.3871 25C48.3871 27.4734 47.9395 29.896 47.0581 32.2008L48.5637 32.7774C49.5161 30.2879 50 27.671 50 25C50 18.2944 46.9887 12.0984 41.7347 7.9371ZM8.87097 42.5258C12.0782 44.8935 15.9556 46.3984 20.1613 46.7081V47.5806C20.1613 48.0258 19.8 48.3871 19.3548 48.3871H9.67742C9.23226 48.3871 8.87097 48.0258 8.87097 47.5806V42.5258Z" fill="#2C2C2C"/>
<path d="M40.3226 50H37.9032V48.3871H40.3226C40.5685 48.3871 40.7984 48.2709 40.9548 48.0693L42.229 49.0589C41.7645 49.6564 41.0701 50 40.3226 50Z" fill="#2C2C2C"/>
<path d="M30.3403 30.0605C29.9137 29.9137 29.4734 29.8387 29.0323 29.8387H27.4194V28.2258H29.0323C29.6532 28.2258 30.2694 28.3307 30.8661 28.5363L30.3403 30.0605Z" fill="#2C2C2C"/>
<path d="M32.2581 15.3226C30.4791 15.3226 29.0323 16.7693 29.0323 18.5484C29.0323 20.3274 30.4791 21.7742 32.2581 21.7742C34.0371 21.7742 35.4839 20.3274 35.4839 18.5484C35.4839 16.7693 34.0371 15.3226 32.2581 15.3226ZM32.2581 20.1613C31.3686 20.1613 30.6452 19.4379 30.6452 18.5484C30.6452 17.6589 31.3686 16.9355 32.2581 16.9355C33.1476 16.9355 33.871 17.6589 33.871 18.5484C33.871 19.4379 33.1476 20.1613 32.2581 20.1613Z" fill="#2C2C2C"/>
<path d="M25.8064 28.2258H20.9677C17.8556 28.2258 15.3226 30.7589 15.3226 33.871C15.3226 36.9831 17.8556 39.5162 20.9677 39.5162H26.654V37.9032H20.9677C18.7443 37.9032 16.9355 36.0944 16.9355 33.871C16.9355 31.6476 18.7443 29.8387 20.9677 29.8387H25.8064V28.2258Z" fill="#2C2C2C"/>
<path d="M37.9032 50C44.5841 50 50 44.5841 50 37.9032C50 31.2224 44.5841 25.8065 37.9032 25.8065C31.2224 25.8065 25.8065 31.2224 25.8065 37.9032C25.8065 44.5841 31.2224 50 37.9032 50Z" fill="#009FEF"/>
<path d="M18.5484 33.871C18.5484 35.2048 19.6339 36.2903 20.9678 36.2903C22.3016 36.2903 23.3871 35.2048 23.3871 33.871C23.3871 32.5371 22.3016 31.4516 20.9678 31.4516C19.6339 31.4516 18.5484 32.5371 18.5484 33.871ZM21.7742 33.871C21.7742 34.3161 21.4129 34.6774 20.9678 34.6774C20.5226 34.6774 20.1613 34.3161 20.1613 33.871C20.1613 33.4258 20.5226 33.0645 20.9678 33.0645C21.4129 33.0645 21.7742 33.4258 21.7742 33.871Z" fill="#2C2C2C"/>
<path d="M17.7419 15.3226C15.9629 15.3226 14.5161 16.7693 14.5161 18.5484C14.5161 20.3274 15.9629 21.7742 17.7419 21.7742C19.521 21.7742 20.9677 20.3274 20.9677 18.5484C20.9677 16.7693 19.521 15.3226 17.7419 15.3226ZM17.7419 20.1613C16.8524 20.1613 16.129 19.4379 16.129 18.5484C16.129 17.6589 16.8524 16.9355 17.7419 16.9355C18.6314 16.9355 19.3548 17.6589 19.3548 18.5484C19.3548 19.4379 18.6314 20.1613 17.7419 20.1613Z" fill="#2C2C2C"/>
<path d="M39.5161 37.0967H36.2903C35.4008 37.0967 34.6774 36.3734 34.6774 35.4838V34.6774C34.6774 33.7879 35.4008 33.0645 36.2903 33.0645H39.5161C40.4056 33.0645 41.129 33.7879 41.129 34.6774H42.7419C42.7419 32.8984 41.2952 31.4516 39.5161 31.4516H38.7097V29.8387H37.0968V31.4516H36.2903C34.5113 31.4516 33.0645 32.8984 33.0645 34.6774V35.4838C33.0645 37.2629 34.5113 38.7097 36.2903 38.7097H39.5161C40.4056 38.7097 41.129 39.433 41.129 40.3226V41.129C41.129 42.0185 40.4056 42.7419 39.5161 42.7419H36.2903C35.4008 42.7419 34.6774 42.0185 34.6774 41.129H33.0645C33.0645 42.908 34.5113 44.3548 36.2903 44.3548H37.0968V45.9677H38.7097V44.3548H39.5161C41.2952 44.3548 42.7419 42.908 42.7419 41.129V40.3226C42.7419 38.5435 41.2952 37.0967 39.5161 37.0967Z" fill="#2C2C2C"/>
</g>
<defs>
<clipPath id="clip0_29_457">
<rect width="50" height="50" fill="white"/>
</clipPath>
</defs>
</svg>
