<svg width="184" height="62" viewBox="0 0 184 62" fill="none" xmlns="http://www.w3.org/2000/svg">
<g clip-path="url(#clip0_3_3)">
<path fill-rule="evenodd" clip-rule="evenodd" d="M28.5046 1.14441e-05C25.0751 9.82885 19.9776 18.501 14.0467 26.5956C7.80224 36.1945 5.33027 45.6721 13.7905 54.7977C26.0786 69.4845 55.551 61.1623 51.5029 34.8226C47.8386 21.8701 39.558 10.4691 28.5045 1.14441e-05L28.5046 1.14441e-05Z" fill="url(#paint0_linear_3_3)"/>
<path fill-rule="evenodd" clip-rule="evenodd" d="M8.85184 46.1768C9.58209 49.08 11.156 51.9557 13.7905 54.7977C14.143 55.2189 14.5112 55.6191 14.8909 56.0028C17.0861 55.6953 19.2468 54.9197 21.6022 53.9772C26.2734 52.1079 31.2883 49.3525 35.8178 46.2085C46.024 48.2346 49.725 40.0992 49.4719 35.0509L41.4678 40.5704L35.9355 37.9588L35.5236 31.7866L43.5276 26.3264C39.1663 23.1956 29.0645 24.3952 28.4022 34.8133C23.4155 37.6236 18.59 40.6656 13.5197 42.4262C13.5057 42.6153 13.4725 42.8386 13.3927 43.0975C13.3368 43.2787 13.4125 43.6588 13.2284 44.2565C12.6 46.295 10.4521 46.8657 8.85192 46.1767L8.85184 46.1768Z" fill="#037ABD"/>
<path fill-rule="evenodd" clip-rule="evenodd" d="M10.3743 33.3228C-3.45069 37.441 -2.38719 50.393 7.27295 53.977C12.2468 55.8222 16.1738 54.6061 20.8772 52.7241C25.5484 50.8548 30.5635 48.0994 35.093 44.9554C45.2992 46.9815 49 38.8461 48.7471 33.7978C46.0788 35.6377 43.4108 37.4775 40.7428 39.3171C38.8987 38.4467 37.0546 37.5762 35.2105 36.7058C35.0734 34.6485 34.9359 32.5909 34.7986 30.5335C37.4666 28.7135 40.1346 26.8934 42.8029 25.0734C38.4412 21.9426 28.3397 23.1421 27.6774 33.5603C21.2416 37.1871 15.0744 41.2006 8.30325 42.3463C8.37091 39.2125 9.00155 36.1824 10.3743 33.3227V33.3228Z" fill="#EFF9FF"/>
<path fill-rule="evenodd" clip-rule="evenodd" d="M20.9346 52.701C25.5897 50.8323 30.582 48.0865 35.093 44.9554C39.1386 45.7587 42.1614 44.9643 44.3216 43.3993L32.0939 38.8081L16.4839 48.2887L20.9346 52.701Z" fill="url(#paint1_linear_3_3)"/>
<path fill-rule="evenodd" clip-rule="evenodd" d="M10.3743 33.3228C9.49854 33.5837 8.6832 33.8803 7.92544 34.2074C4.71961 35.9485 1.78866 39.7406 3.58219 42.5375C5.11271 44.9239 7.67056 44.9255 10.1053 44.1933C14.4362 42.8907 20.575 38.9334 27.6773 33.5603C21.2416 37.1872 15.0744 41.2007 8.30322 42.3464C8.37089 39.2126 9.00152 36.1825 10.3743 33.3228Z" fill="url(#paint2_linear_3_3)"/>
<path fill-rule="evenodd" clip-rule="evenodd" d="M49.6524 45.3351C47.467 53.6697 39.8327 60.5013 30.1627 60.4162C28.4733 60.4015 26.0753 60.3815 25.144 58.6984C24.5031 57.5405 24.8798 56.0252 25.9992 54.9086C27.4876 53.4241 30.1439 53.135 32.1611 52.9923C38.1693 52.5676 43.2196 54.1833 49.6524 45.3351Z" fill="url(#paint3_linear_3_3)"/>
<path fill-rule="evenodd" clip-rule="evenodd" d="M29.4488 4.19942C29.5145 16.9276 20.2932 25.5718 19.1718 37.103C16.6027 37.5346 14.0336 37.9666 11.4645 38.3982C15.574 25.7312 23.6633 16.4439 29.4488 4.19942Z" fill="url(#paint4_linear_3_3)"/>
<path fill-rule="evenodd" clip-rule="evenodd" d="M10.3743 33.3228C8.33466 34.3843 6.36627 35.508 5.25823 37.3833C4.35857 38.9057 3.86436 40.9435 5.70469 41.9822C6.36955 42.3575 7.24482 42.4674 8.30325 42.3464C8.30856 38.7474 9.26557 35.9699 10.3743 33.3228Z" fill="url(#paint5_linear_3_3)"/>
<path d="M76.1449 50.0075C74.8009 51.0171 73.2444 51.522 71.475 51.522C69.6236 51.522 68.1595 51.0414 67.0827 50.0801C66.0061 49.1188 65.4679 47.753 65.4679 45.9827V41.6468C65.4679 39.8765 66.0061 38.5143 67.0827 37.5601C68.1595 36.6056 69.603 36.1285 71.4134 36.1285C73.1001 36.1285 74.5678 36.5711 75.8158 37.4563C76.0216 37.5806 76.0559 37.7398 75.9187 37.9334L74.6226 39.925C74.4855 40.1186 74.3141 40.1531 74.1083 40.0288C73.3402 39.5309 72.4625 39.2819 71.475 39.2819C70.6247 39.2819 69.9699 39.5068 69.5104 39.9561C69.0509 40.4056 68.8211 41.0105 68.8211 41.7714V45.8375C68.8211 46.6397 69.0544 47.2587 69.5207 47.6944C69.987 48.1299 70.6453 48.3478 71.4956 48.3478C72.5516 48.3478 73.5048 48.0572 74.3552 47.4764C74.5611 47.3244 74.7256 47.352 74.8489 47.5593L76.1656 49.5509C76.3027 49.7445 76.2959 49.8968 76.1449 50.0075V50.0075ZM64.9125 28.4171C64.7615 28.3065 64.7547 28.1542 64.8918 27.9606L66.2085 25.969C66.332 25.7617 66.4967 25.734 66.7023 25.886C67.5526 26.4669 68.5265 26.7575 69.6237 26.7575C70.474 26.7575 71.1323 26.5395 71.5986 26.1041C72.0649 25.6683 72.2979 25.0494 72.2979 24.2472V23.6247H68.348C68.1011 23.6247 67.9778 23.5004 67.9778 23.2514V21.1976C67.9778 20.9486 68.1011 20.8241 68.348 20.8241H72.2979V20.181C72.2979 19.4202 72.0681 18.8152 71.6086 18.3658C71.1493 17.9163 70.4943 17.6915 69.644 17.6915C68.6703 17.6915 67.8062 17.9405 67.052 18.4384C66.8461 18.5628 66.6747 18.5283 66.5376 18.3347L65.2416 16.3431C65.1045 16.1495 65.1387 15.9903 65.3445 15.866C66.5924 14.9808 68.0462 14.5382 69.7059 14.5382C71.5163 14.5382 72.9597 15.0153 74.0363 15.9697C75.1128 16.9239 75.6511 18.2862 75.6511 20.0565V24.3924C75.6511 26.1628 75.1128 27.5285 74.0363 28.4898C72.9597 29.4511 71.4956 29.9317 69.644 29.9317C67.8336 29.9317 66.2565 29.4267 64.9124 28.4172L64.9125 28.4171ZM87.2131 29.641H84.4152C84.1958 29.641 84.0516 29.5581 83.9831 29.3921L81.6377 25.7199L80.959 26.5084V29.2674C80.959 29.5164 80.8423 29.641 80.6092 29.641H78.2434C77.9965 29.641 77.873 29.5164 77.873 29.2674V19.2264C77.873 18.9775 77.9965 18.8531 78.2434 18.8531H80.6092C80.8422 18.8531 80.959 18.9775 80.959 19.2264V22.8986L83.6539 19.0813C83.7498 18.9293 83.8869 18.8532 84.0654 18.8532H86.781C86.9317 18.8532 87.0311 18.8981 87.0792 18.9879C87.1273 19.078 87.1034 19.1783 87.0073 19.2889L83.695 23.5625L87.4394 29.2054C87.5216 29.33 87.5423 29.4335 87.501 29.5165C87.46 29.5995 87.3639 29.6411 87.2132 29.6411L87.2131 29.641ZM96.3473 28.7696C95.2775 29.5304 94.0636 29.9108 92.7059 29.9108C91.1698 29.9108 89.9731 29.5062 89.1158 28.6969C88.2586 27.8879 87.83 26.785 87.83 25.388V23.0436C87.83 21.6606 88.2586 20.5681 89.1158 19.7659C89.9731 18.9637 91.1629 18.5625 92.6852 18.5625C93.8785 18.5625 95.0031 18.8876 96.0591 19.5377C96.251 19.676 96.2853 19.8488 96.162 20.0561L95.0716 21.7158C94.9619 21.9094 94.7904 21.9511 94.5572 21.8404C93.9676 21.5221 93.3916 21.3633 92.8291 21.3633C92.2669 21.3633 91.8245 21.5119 91.5021 21.8092C91.18 22.1066 91.0187 22.5179 91.0187 23.0435V25.3878C91.0187 25.955 91.18 26.3836 91.5021 26.6742C91.8245 26.9645 92.2601 27.1097 92.8087 27.1097C93.4944 27.1097 94.1528 26.9093 94.7836 26.5083C94.9892 26.3837 95.1607 26.4182 95.2978 26.6118L96.4088 28.2714C96.5459 28.465 96.5253 28.6311 96.3471 28.7693L96.3473 28.7696ZM98.24 18.8532H106.675C106.908 18.8532 107.024 18.9707 107.024 19.206V29.2675C107.024 29.5165 106.908 29.641 106.675 29.641H104.247C104 29.641 103.877 29.5165 103.877 29.2675V21.6125H101.017V29.2675C101.017 29.5165 100.901 29.641 100.667 29.641H98.2399C97.993 29.641 97.8695 29.5165 97.8695 29.2675V19.206C97.8695 18.9707 97.993 18.8532 98.2399 18.8532H98.24ZM109.555 19.3511C110.94 18.8255 112.394 18.5626 113.916 18.5626C115.384 18.5626 116.563 18.9811 117.455 19.8178C118.346 20.6547 118.792 21.8061 118.792 23.2721V25.3259C118.792 26.7227 118.38 27.8362 117.557 28.666C116.735 29.4959 115.658 29.9108 114.327 29.9108C113.656 29.9108 113.025 29.7933 112.435 29.5581V33.2093C112.435 33.4583 112.318 33.5829 112.085 33.5829H109.658C109.411 33.5829 109.287 33.4583 109.287 33.2093V19.7451C109.287 19.5378 109.376 19.4063 109.555 19.351L109.555 19.3511ZM113.875 27.1515C115.027 27.1515 115.603 26.5638 115.603 25.3881V23.2097C115.603 21.9927 115.02 21.3841 113.854 21.3841C113.32 21.3841 112.846 21.4602 112.435 21.6125V26.7988C112.833 27.0341 113.313 27.1515 113.875 27.1515ZM129.777 22.9815V24.9731C129.777 25.2084 129.654 25.3259 129.407 25.3259H123.585V25.6578C123.585 26.1834 123.743 26.5811 124.058 26.8509C124.374 27.1203 124.806 27.2554 125.354 27.2554C126.246 27.2554 127.117 27.0064 127.967 26.5085C128.145 26.3702 128.303 26.3979 128.44 26.5915L129.51 28.0228C129.647 28.2304 129.627 28.4032 129.448 28.5415C128.269 29.4543 126.87 29.9108 125.251 29.9108C123.839 29.9108 122.68 29.5373 121.775 28.7905C120.87 28.0436 120.417 26.9788 120.417 25.5958V22.9817C120.417 21.5156 120.863 20.4128 121.754 19.6727C122.646 18.9327 123.791 18.5628 125.19 18.5628C126.548 18.5628 127.652 18.9295 128.502 19.6623C129.352 20.3955 129.777 21.5019 129.777 22.9817V22.9815ZM126.753 22.8364C126.753 22.2969 126.609 21.8891 126.321 21.6125C126.033 21.3358 125.649 21.1976 125.169 21.1976C124.113 21.1976 123.585 21.7437 123.585 22.8364V23.2721H126.753V22.8364ZM139.838 28.7696C138.768 29.5304 137.554 29.9108 136.196 29.9108C134.66 29.9108 133.464 29.5062 132.606 28.6969C131.749 27.8879 131.32 26.785 131.32 25.388V23.0436C131.32 21.6606 131.749 20.5681 132.606 19.7659C133.464 18.9637 134.653 18.5625 136.176 18.5625C137.369 18.5625 138.494 18.8876 139.55 19.5377C139.741 19.676 139.776 19.8488 139.652 20.0561L138.562 21.7158C138.452 21.9094 138.281 21.9511 138.048 21.8404C137.458 21.5221 136.882 21.3633 136.32 21.3633C135.757 21.3633 135.315 21.5119 134.993 21.8092C134.67 22.1066 134.509 22.5179 134.509 23.0435V25.3878C134.509 25.955 134.67 26.3836 134.993 26.6742C135.315 26.9645 135.751 27.1097 136.299 27.1097C136.985 27.1097 137.643 26.9093 138.274 26.5083C138.48 26.3837 138.651 26.4182 138.788 26.6118L139.899 28.2714C140.036 28.465 140.016 28.6311 139.838 28.7693L139.838 28.7696ZM149.445 28.7696C148.375 29.5304 147.161 29.9108 145.804 29.9108C144.268 29.9108 143.071 29.5062 142.214 28.6969C141.356 27.8879 140.928 26.785 140.928 25.388V23.0436C140.928 21.6606 141.356 20.5681 142.214 19.7659C143.071 18.9637 144.261 18.5625 145.783 18.5625C146.976 18.5625 148.101 18.8876 149.157 19.5377C149.349 19.676 149.383 19.8488 149.26 20.0561L148.169 21.7158C148.06 21.9094 147.888 21.9511 147.655 21.8404C147.065 21.5221 146.489 21.3633 145.927 21.3633C145.365 21.3633 144.922 21.5119 144.6 21.8092C144.278 22.1066 144.116 22.5179 144.116 23.0435V25.3878C144.116 25.955 144.278 26.3836 144.6 26.6742C144.922 26.9645 145.358 27.1097 145.906 27.1097C146.592 27.1097 147.251 26.9093 147.881 26.5083C148.087 26.3837 148.258 26.4182 148.396 26.6118L149.507 28.2714C149.644 28.465 149.623 28.6311 149.445 28.7693L149.445 28.7696ZM79.7661 51.2315H77.0092C76.7213 51.2315 76.6252 51.0932 76.7213 50.8165L81.4942 36.6885C81.5765 36.4949 81.7068 36.3983 81.885 36.3983H85.012C85.204 36.3983 85.3344 36.4949 85.4028 36.6885L90.1757 50.8165C90.2854 51.0932 90.1895 51.2315 89.8878 51.2315H87.1516C86.9322 51.2315 86.7882 51.1277 86.7195 50.9203L85.9585 48.3892H80.9593L80.1777 50.9203C80.1228 51.1276 79.9857 51.2315 79.7662 51.2315H79.7661ZM83.4075 40.0287C83.3388 40.2499 83.109 41.0417 82.7182 42.404C82.3273 43.7665 82.0221 44.8001 81.8027 45.5056H85.1149C85.0737 45.3673 84.5321 43.5416 83.4898 40.0287H83.4075ZM99.7419 42.207V36.7715C99.7419 36.5225 99.8654 36.3982 100.112 36.3982H102.684C102.931 36.3982 103.054 36.5225 103.054 36.7715V50.8579C103.054 51.1069 102.931 51.2315 102.684 51.2315H100.112C99.8654 51.2315 99.7419 51.1069 99.7419 50.8579V45.298H95.113V50.8579C95.113 51.1069 94.9897 51.2315 94.7428 51.2315H92.1712C91.9243 51.2315 91.801 51.1069 91.801 50.8579V36.7715C91.801 36.5225 91.9243 36.3982 92.1712 36.3982H94.7428C94.9897 36.3982 95.113 36.5225 95.113 36.7715V42.207H99.7419ZM105.194 36.3982H116.015C116.248 36.3982 116.364 36.5225 116.364 36.7715V39.1367C116.364 39.3716 116.248 39.4892 116.015 39.4892H112.25V50.8579C112.25 51.1069 112.133 51.2315 111.9 51.2315H109.308C109.075 51.2315 108.958 51.1069 108.958 50.8579V39.4892H105.194C104.947 39.4892 104.823 39.3717 104.823 39.1367V36.7715C104.823 36.5225 104.947 36.3982 105.194 36.3982H105.194ZM121.466 45.1944V48.2232H127.577C127.823 48.2232 127.947 48.3407 127.947 48.5759V50.8579C127.947 51.1069 127.823 51.2315 127.577 51.2315H118.525C118.278 51.2315 118.154 51.1069 118.154 50.8579V36.7715C118.154 36.5225 118.278 36.3982 118.525 36.3982H127.247C127.494 36.3982 127.618 36.5225 127.618 36.7715V39.0537C127.618 39.2887 127.494 39.4062 127.247 39.4062H121.466V42.2485H126.568C126.815 42.2485 126.939 42.366 126.939 42.6012V44.8418C126.939 45.0768 126.815 45.1946 126.568 45.1946H121.466V45.1944ZM137.328 43.7837L141.422 50.7956C141.49 50.9063 141.501 51.0065 141.453 51.0966C141.405 51.1865 141.312 51.2314 141.175 51.2314H138.151C137.959 51.2314 137.822 51.1416 137.739 50.9616L135.25 46.2732L132.781 50.9616C132.672 51.1415 132.528 51.2314 132.349 51.2314H129.325C129.188 51.2314 129.096 51.1865 129.047 51.0966C128.999 51.0066 129.01 50.9063 129.078 50.7956L133.193 43.7837L129.408 36.8337C129.339 36.7093 129.328 36.6056 129.377 36.5225C129.425 36.4395 129.524 36.3982 129.675 36.3982H132.576C132.768 36.3982 132.905 36.488 132.987 36.6677L135.25 41.3772L137.513 36.6677C137.595 36.488 137.732 36.3982 137.925 36.3982H140.846C140.983 36.3982 141.076 36.4395 141.123 36.5225C141.172 36.6055 141.168 36.7093 141.113 36.8337L137.328 43.7837ZM151.153 42.207V36.7715C151.153 36.5225 151.276 36.3982 151.523 36.3982H154.095C154.341 36.3982 154.465 36.5225 154.465 36.7715V50.8579C154.465 51.1069 154.341 51.2315 154.095 51.2315H151.523C151.276 51.2315 151.153 51.1069 151.153 50.8579V45.298H146.524V50.8579C146.524 51.1069 146.401 51.2315 146.154 51.2315H143.582C143.335 51.2315 143.212 51.1069 143.212 50.8579V36.7715C143.212 36.5225 143.335 36.3982 143.582 36.3982H146.154C146.401 36.3982 146.524 36.5225 146.524 36.7715V42.207H151.153ZM168.722 51.2314H166.171C165.938 51.2314 165.821 51.1068 165.821 50.8578V47.6009C165.821 45.8996 165.931 43.9288 166.15 41.6883L166.088 41.6675C165.334 43.4655 164.539 45.0767 163.702 46.5014L161.028 50.9825C160.931 51.1484 160.787 51.2315 160.595 51.2315H157.859C157.626 51.2315 157.51 51.1069 157.51 50.8579V36.7715C157.51 36.5225 157.626 36.3982 157.859 36.3982H160.41C160.657 36.3982 160.781 36.5225 160.781 36.7715V40.485C160.781 42.2277 160.705 44.074 160.554 46.0243L160.616 46.0448C161 45.1736 161.734 43.6936 162.817 41.6054L165.574 36.6472C165.656 36.4812 165.794 36.3982 165.986 36.3982H168.722C168.968 36.3982 169.092 36.5225 169.092 36.7715V50.8579C169.092 51.1069 168.968 51.2315 168.722 51.2315V51.2314ZM175.078 51.2314H172.507C172.26 51.2314 172.137 51.1068 172.137 50.8578V36.7714C172.137 36.5224 172.26 36.3981 172.507 36.3981H175.078C175.325 36.3981 175.449 36.5224 175.449 36.7714V41.9994L179.399 36.6263C179.508 36.4741 179.659 36.3982 179.851 36.3982H183.102C183.253 36.3982 183.352 36.4395 183.4 36.5225C183.448 36.6055 183.424 36.7093 183.328 36.8337L178.432 42.8914L183.904 50.7956C184 50.9063 184.024 51.0065 183.976 51.0966C183.928 51.1865 183.829 51.2314 183.678 51.2314H180.51C180.331 51.2314 180.187 51.1484 180.078 50.9824L176.354 45.4433L175.449 46.4805V50.8578C175.449 51.1068 175.325 51.2314 175.078 51.2314Z" fill="#434242"/>
</g>
<defs>
<linearGradient id="paint0_linear_3_3" x1="29.4692" y1="0.923004" x2="31.5343" y2="61.9364" gradientUnits="userSpaceOnUse">
<stop stop-color="#26C2FF"/>
<stop offset="1" stop-color="#0099E0"/>
</linearGradient>
<linearGradient id="paint1_linear_3_3" x1="31.453" y1="37.359" x2="32.6413" y2="47.2938" gradientUnits="userSpaceOnUse">
<stop offset="0.0956889" stop-color="#7FC5F4"/>
<stop offset="1" stop-color="#FEFEFE" stop-opacity="0"/>
</linearGradient>
<linearGradient id="paint2_linear_3_3" x1="3.5825" y1="42.5377" x2="27.7254" y2="33.692" gradientUnits="userSpaceOnUse">
<stop stop-color="#0094D9"/>
<stop offset="1" stop-color="#0AA6E8"/>
</linearGradient>
<linearGradient id="paint3_linear_3_3" x1="49.3894" y1="46.2481" x2="24.8587" y2="58.0398" gradientUnits="userSpaceOnUse">
<stop stop-color="#0180E4"/>
<stop offset="1" stop-color="#82E9FF"/>
</linearGradient>
<linearGradient id="paint4_linear_3_3" x1="29.4146" y1="5.67791" x2="15.119" y2="37.6617" gradientUnits="userSpaceOnUse">
<stop stop-color="#72DAFF"/>
<stop offset="1" stop-color="#FEFEFE" stop-opacity="0"/>
</linearGradient>
<linearGradient id="paint5_linear_3_3" x1="9.79579" y1="33.6275" x2="5.99428" y2="42.2921" gradientUnits="userSpaceOnUse">
<stop stop-color="#0070B2"/>
<stop offset="1" stop-color="#00326F"/>
</linearGradient>
<clipPath id="clip0_3_3">
<rect width="184" height="62" fill="white"/>
</clipPath>
</defs>
</svg>
