<svg width="40" height="40" viewBox="0 0 40 40" fill="none" xmlns="http://www.w3.org/2000/svg">
<rect width="40" height="40" fill="white"/>
<path d="M9.67744 23.871C9.67744 22.5239 10.3665 21.3387 11.4103 20.6452H3.87099C2.44776 20.6452 1.29034 21.8026 1.29034 23.2258C1.29034 23.9374 1.86905 24.5161 2.58067 24.5161H9.67744V23.871Z" fill="#009FEF"/>
<path d="M27.0968 20.6452H18.2671C19.311 21.3387 20 22.5239 20 23.871V24.5161H28.3871C29.0987 24.5161 29.6774 23.9374 29.6774 23.2258C29.6774 21.8026 28.52 20.6452 27.0968 20.6452Z" fill="#009FEF"/>
<path d="M12.9032 19.4065C10.7181 19.7213 9.03226 21.6006 9.03226 23.871V25.8064C8.32065 25.8064 7.74194 26.3852 7.74194 27.0968V28.3871C7.74194 29.0987 8.32065 29.6774 9.03226 29.6774H20.6452C21.3568 29.6774 21.9355 29.0987 21.9355 28.3871V27.0968C21.9355 26.3852 21.3568 25.8064 20.6452 25.8064V23.871C20.6452 21.6006 18.9594 19.7213 16.7742 19.4065V16.7742H17.4194C18.4865 16.7742 19.3548 15.9058 19.3548 14.8387C19.3548 14.5839 19.3026 14.3419 19.2129 14.1187C20.0355 13.8955 20.6452 13.1503 20.6452 12.2581C20.6452 11.7606 20.451 11.311 20.1419 10.9677C20.4516 10.6245 20.6452 10.1748 20.6452 9.67742C20.6452 9.18 20.451 8.73032 20.1419 8.3871C20.4516 8.04387 20.6452 7.59419 20.6452 7.09677C20.6452 6.02968 19.7768 5.16129 18.7097 5.16129H16.7742V1.29032C16.7742 0.57871 16.1955 0 15.4839 0H14.1935C13.4819 0 12.9032 0.57871 12.9032 1.29032V2.58065H12.14C11.2452 2.58065 10.3794 2.84258 9.63484 3.33935L6.96129 5.12129L0 3.72903V16.7742H12.9032V19.4065ZM20.6452 28.3871H9.03226V27.0968L20.6452 27.0961V28.3871ZM19.3548 23.871V25.8064H10.3226V23.871C10.3226 22.0923 11.7697 20.6452 13.5484 20.6452H16.129C17.9077 20.6452 19.3548 22.0923 19.3548 23.871ZM15.4839 19.3548H14.1935V16.7742H15.4839V19.3548ZM14.1935 1.29032H15.4839V5.16129H14.8387C14.4832 5.16129 14.1935 4.87226 14.1935 4.51613V1.29032ZM10.3503 4.4129C10.8819 4.05806 11.5006 3.87097 12.14 3.87097H12.9032V4.51613C12.9032 5.58323 13.7716 6.45161 14.8387 6.45161H18.7097C19.0652 6.45161 19.3548 6.74064 19.3548 7.09677C19.3548 7.4529 19.0652 7.74194 18.7097 7.74194H14.1935V9.03226H18.7097C19.0652 9.03226 19.3548 9.32129 19.3548 9.67742C19.3548 10.0335 19.0652 10.3226 18.7097 10.3226H14.1935V11.6129H18.7097C19.0652 11.6129 19.3548 11.9019 19.3548 12.2581C19.3548 12.6142 19.0652 12.9032 18.7097 12.9032H14.1935V14.1935H17.4194C17.7748 14.1935 18.0645 14.4826 18.0645 14.8387C18.0645 15.1948 17.7748 15.4839 17.4194 15.4839H7.74194V6.15161L10.3503 4.4129ZM1.29032 5.30323L6.45161 6.33548V15.4839H1.29032V5.30323Z" fill="#2C2C2C"/>
<path d="M16.7742 32.9032V34.1935H20C24.6245 34.1935 28.3871 30.431 28.3871 25.8065V24.5161H27.0968V25.8065C27.0968 29.7194 23.9129 32.9032 20 32.9032H16.7742Z" fill="#2C2C2C"/>
<path d="M38.0645 2.58065H37.4193V1.93548C37.4193 0.868387 36.5509 0 35.4839 0H31.6129C30.5458 0 29.6774 0.868387 29.6774 1.93548V2.58065H27.7419C26.6748 2.58065 25.8064 3.44903 25.8064 4.51613V20.6452H27.0968V6.57032C27.8458 6.83742 28.3871 7.5471 28.3871 8.3871V21.0039C29.1548 21.4516 29.6774 22.2748 29.6774 23.2258V8.3871C29.6774 7.65935 29.4277 6.99226 29.0193 6.45161H38.7097V15.4839C38.7097 19.7529 35.2368 23.2258 30.9677 23.2258V24.5161C31.8645 24.5161 32.7297 24.3806 33.5484 24.1355V35.3277C33.5484 35.6 33.5748 35.8677 33.6258 36.1284H30.9677V34.8381C30.9677 34.1264 30.389 33.5477 29.6774 33.5477H25.8064C25.0948 33.5477 24.5161 34.1264 24.5161 34.8381V36.1284C24.5161 36.84 25.0948 37.4187 25.8064 37.4187H34.1193C34.2961 37.7187 34.5077 38.0006 34.7606 38.2535C34.8103 38.3032 34.8387 38.3723 34.8387 38.4426C34.8387 38.5897 34.7187 38.7097 34.5716 38.7097H14.1935V36.7606C14.1935 34.589 12.6445 32.7219 10.5103 32.3219L9.65998 32.1626C6.30514 31.5342 3.87095 28.6006 3.87095 25.1877V24.5161H2.58063V25.1877C2.58063 29.2213 5.45805 32.6884 9.42192 33.4303L10.2716 33.5897C11.7968 33.8761 12.9032 35.2097 12.9032 36.7606V40H34.5716C35.4303 40 36.129 39.3013 36.129 38.4426C36.129 38.0258 35.9664 37.6342 35.6722 37.3406C35.1342 36.8032 34.8387 36.089 34.8387 35.3284V23.6323C37.8851 22.1787 40 19.0781 40 15.4839V4.51613C40 3.44903 39.1316 2.58065 38.0645 2.58065ZM29.6774 36.129H25.8064V34.8387H29.6774V36.129ZM36.129 1.93548V2.58065H34.8387V1.29032H35.4839C35.8393 1.29032 36.129 1.57935 36.129 1.93548ZM30.9677 1.93548C30.9677 1.57935 31.2574 1.29032 31.6129 1.29032H33.5484V2.58065H30.9677V1.93548ZM27.0968 5.16129V4.51613C27.0968 4.16 27.3864 3.87097 27.7419 3.87097H38.0645C38.42 3.87097 38.7097 4.16 38.7097 4.51613V5.16129H27.0968Z" fill="#2C2C2C"/>
</svg>
