<svg width="40" height="40" viewBox="0 0 40 40" fill="none" xmlns="http://www.w3.org/2000/svg">
<rect width="40" height="40" fill="white"/>
<path d="M9.67743 15.4839C5.67034 15.4839 2.0684 17.9942 0.644531 21.6819V28.64C2.06776 32.3277 5.67034 34.8387 9.67743 34.8387C15.0136 34.8387 19.3549 30.4974 19.3549 25.1613C19.3549 19.8252 15.0136 15.4839 9.67743 15.4839ZM9.67743 31.6129C6.11421 31.6129 3.22582 28.7245 3.22582 25.1613V27.0968C3.22582 27.4529 2.93679 27.7419 2.58066 27.7419H1.29034C0.934209 27.7419 0.645176 27.4529 0.645176 27.0968V23.2258C0.645176 22.8697 0.934209 22.5806 1.29034 22.5806H2.58066C2.93679 22.5806 3.22582 22.8697 3.22582 23.2258V25.1613C3.22582 21.5981 6.11421 18.7097 9.67743 18.7097C13.2407 18.7097 16.129 21.5981 16.129 25.1613C16.129 28.7245 13.2407 31.6129 9.67743 31.6129Z" fill="#009FEF"/>
<path d="M16.7742 25.1613C16.7742 21.2484 13.5903 18.0645 9.67742 18.0645C6.84645 18.0645 4.40516 19.7342 3.26645 22.1374C3.06774 22.011 2.83355 21.9355 2.58065 21.9355H1.29032C0.57871 21.9355 0 22.5142 0 23.2258V27.0968C0 27.8084 0.57871 28.3871 1.29032 28.3871H2.58065C2.83355 28.3871 3.06774 28.3116 3.26645 28.1852C4.40516 30.5884 6.84645 32.2581 9.67742 32.2581C13.5903 32.2581 16.7742 29.0742 16.7742 25.1613ZM2.58194 27.0968H1.29032V23.2258H2.58065L2.58129 25.149C2.58129 25.1529 2.58065 25.1574 2.58065 25.1613C2.58065 25.1658 2.58129 25.1697 2.58129 25.1735L2.58194 27.0968ZM9.67742 30.9677C6.47548 30.9677 3.87097 28.3632 3.87097 25.1613C3.87097 21.9594 6.47548 19.3548 9.67742 19.3548C12.8794 19.3548 15.4839 21.9594 15.4839 25.1613C15.4839 28.3632 12.8794 30.9677 9.67742 30.9677Z" fill="#2C2C2C"/>
<path d="M17.4193 2.58064H25.8064V3.87097H17.4193V2.58064Z" fill="#2C2C2C"/>
<path d="M31.7981 3.04004L32.7104 2.12778L35.9356 5.35307L35.0234 6.26533L31.7981 3.04004Z" fill="#2C2C2C"/>
<path d="M14.1936 10.3226H15.4839V11.6129H14.1936V10.3226Z" fill="#2C2C2C"/>
<path d="M16.7742 10.3226H18.0645V11.6129H16.7742V10.3226Z" fill="#2C2C2C"/>
<path d="M19.3549 10.3226H20.6452V11.6129H19.3549V10.3226Z" fill="#2C2C2C"/>
<path d="M38.0646 7.74194H37.4194V1.29032C37.4194 0.57871 36.8407 0 36.1291 0H30.9678C30.2562 0 29.6775 0.57871 29.6775 1.29032V7.74194H28.2684C28.3407 7.53935 28.3871 7.32387 28.3871 7.09677C28.3871 6.59935 28.193 6.14968 27.8839 5.80645C28.193 5.46323 28.3871 5.01355 28.3871 4.51613V1.93548C28.3871 0.868387 27.5188 0 26.4517 0H14.8388C13.7717 0 12.9033 0.868387 12.9033 1.93548V4.51613C12.9033 5.01355 13.0975 5.46323 13.4065 5.80645C13.0968 6.14968 12.9033 6.59935 12.9033 7.09677C12.9033 7.32387 12.9497 7.53935 13.022 7.74194H12.2581C11.191 7.74194 10.3226 8.61032 10.3226 9.67742V15.5168C10.7601 15.5458 11.193 15.5935 11.613 15.6794V14.1935H38.7097V38.0645C38.7097 38.4206 38.4207 38.7097 38.0646 38.7097H12.2581C11.902 38.7097 11.613 38.4206 11.613 38.0645V34.6439C11.193 34.7297 10.7601 34.7774 10.3226 34.8064V38.0645C10.3226 39.1316 11.191 40 12.2581 40H38.0646C39.1317 40 40 39.1316 40 38.0645V9.67742C40 8.61032 39.1317 7.74194 38.0646 7.74194ZM30.9678 1.29032H36.1291V7.74194H35.1059L32.7142 5.35032L31.802 6.26258L33.2813 7.74194H30.9678V1.29032ZM14.1936 1.93548C14.1936 1.58 14.4826 1.29032 14.8388 1.29032H26.4517C26.8078 1.29032 27.0968 1.58 27.0968 1.93548V4.51613C27.0968 4.87161 26.8078 5.16129 26.4517 5.16129H14.8388C14.4826 5.16129 14.1936 4.87161 14.1936 4.51613V1.93548ZM14.1936 7.09677C14.1936 6.74129 14.4826 6.45161 14.8388 6.45161H26.4517C26.8078 6.45161 27.0968 6.74129 27.0968 7.09677C27.0968 7.45226 26.8078 7.74194 26.4517 7.74194H14.8388C14.4826 7.74194 14.1936 7.45226 14.1936 7.09677ZM38.7097 12.9032H11.613V9.67742C11.613 9.32194 11.902 9.03226 12.2581 9.03226H38.0646C38.4207 9.03226 38.7097 9.32194 38.7097 9.67742V12.9032Z" fill="#2C2C2C"/>
<path d="M24.5161 10.3226H28.3871V11.6129H24.5161V10.3226Z" fill="#2C2C2C"/>
<path d="M29.6774 10.3226H34.8387V11.6129H29.6774V10.3226Z" fill="#2C2C2C"/>
<path d="M25.1613 15.4839C22.0632 15.4839 19.2342 16.9219 17.4122 19.3697C17.6922 19.7426 17.9542 20.1297 18.1787 20.5413C19.7387 18.1819 22.3155 16.7742 25.1613 16.7742C29.7858 16.7742 33.5484 20.5368 33.5484 25.1613C33.5484 27.011 32.9471 28.7594 31.8509 30.2058L31.4432 28.4387C31.9697 27.4303 32.258 26.3065 32.258 25.1613C32.258 21.2484 29.0742 18.0645 25.1613 18.0645C22.3832 18.0645 19.98 19.6729 18.8155 22.0032C19.1587 22.9948 19.3548 24.0542 19.3548 25.1613C19.3548 21.9594 21.9593 19.3548 25.1613 19.3548C28.3632 19.3548 30.9677 21.9594 30.9677 25.1613C30.9677 25.5916 30.9103 26.0174 30.8167 26.4342C30.558 26.0194 30.2013 25.6697 29.7522 25.4445C29.3806 25.2594 28.9651 25.1613 28.5509 25.1613C27.9264 25.1613 27.3187 25.2858 26.7445 25.5323L25.18 26.2026L24.7832 25.8065C23.9516 24.9748 22.5 24.9748 21.6684 25.8065C21.0219 26.4529 20.6271 27.3116 20.5561 28.2232L20.5232 28.6503C19.7722 27.6535 19.3548 26.4368 19.3548 25.1613C19.3548 26.2658 19.16 27.3232 18.8174 28.3129C19.2064 29.0897 19.7309 29.8006 20.389 30.4L20.2684 31.9684C19.4451 31.3755 18.7393 30.6335 18.1761 29.7858C17.9535 30.1935 17.6942 30.5768 17.4174 30.9458C18.1645 31.9361 19.0922 32.7787 20.1561 33.4239L19.9142 36.5716L21.4342 35.8103C22.4142 35.32 23.569 35.349 24.5232 35.86C24.5645 36.7258 25.2761 37.4194 26.1516 37.4194C26.4755 37.4194 26.789 37.3245 27.0587 37.1445L28.1535 36.4142C28.578 37.0413 29.2819 37.4194 30.0542 37.4194C30.3032 37.4194 30.5484 37.3794 30.7813 37.3006L31.4051 37.0929C32.3006 36.7942 32.9032 35.9587 32.9032 35.0142C32.9032 34.8484 32.8845 34.6819 32.8471 34.5219L32.2122 31.7723C33.9032 29.9729 34.8387 27.6445 34.8387 25.1613C34.8387 19.8252 30.4974 15.4839 25.1613 15.4839ZM30.9967 35.8697L30.3716 36.0774C29.9116 36.2342 29.3729 36.0129 29.1522 35.571L29.0155 35.2981L28.3832 29.6065L27.1006 29.749L27.7026 35.1652L26.3432 36.0716C26.1297 36.2142 25.8064 36.0426 25.8064 35.7839V28.3871H24.5161V34.4432C23.5064 34.08 22.3929 34.0716 21.3729 34.4368L21.8432 28.3226C21.8896 27.7174 22.1522 27.1477 22.5813 26.7187C22.9264 26.3748 23.5264 26.3748 23.8716 26.7187L23.9032 26.7503L22.9729 27.149L23.4806 28.3348L27.2542 26.7181C27.6651 26.5413 28.1026 26.4516 28.5509 26.4516C28.7664 26.4516 28.9819 26.5026 29.1748 26.5994C29.5484 26.7858 29.8161 27.1265 29.9103 27.5329L31.5903 34.8129C31.6051 34.8794 31.6129 34.9465 31.6129 35.0142C31.6129 35.4026 31.3651 35.7465 30.9967 35.8697Z" fill="#2C2C2C"/>
</svg>
