<svg width="498" height="457" viewBox="0 0 498 457" fill="none" xmlns="http://www.w3.org/2000/svg">
<path fill-rule="evenodd" clip-rule="evenodd" d="M394.711 457H118.244C107.523 445.981 97.2403 434.597 87.3536 423.399C39.2911 368.962 -6.39603 304.342 1.64321 232.176C8.98533 166.268 65.4978 121.839 118.107 80.4778C120.841 78.328 123.565 76.1864 126.271 74.0506C128.026 72.6651 129.79 71.2699 131.562 69.868C179.518 31.9327 233.603 -10.8502 292.634 2.49292C330.819 11.124 349.055 46.3855 367.787 82.607C377.454 101.298 387.252 120.246 399.993 135.921C411.28 149.809 425.307 161.772 439.146 173.575C465.871 196.368 491.895 218.563 496.127 252.862C503.229 310.429 469.712 362.749 433.578 408.128C429.292 413.51 424.99 419.008 420.651 424.552C412.194 435.36 403.598 446.345 394.711 457Z" fill="#009FEF"/>
</svg>
