<svg width="40" height="40" viewBox="0 0 40 40" fill="none" xmlns="http://www.w3.org/2000/svg">
<rect width="40" height="40" fill="white"/>
<path d="M13.5484 27.7419H8.38712C7.67422 27.7419 7.0968 27.1645 7.0968 26.4516C7.0968 25.7387 7.67422 25.1613 8.38712 25.1613H13.5484C14.2613 25.1613 14.8387 25.7387 14.8387 26.4516C14.8387 27.1645 14.2613 27.7419 13.5484 27.7419Z" fill="#009FEF"/>
<path d="M9.67741 36.7742C8.9645 36.7742 8.38708 36.1968 8.38708 35.4839V34.1936C8.38708 33.4806 8.9645 32.9032 9.67741 32.9032C10.3903 32.9032 10.9677 33.4806 10.9677 34.1936V35.4839C10.9677 36.1968 10.3903 36.7742 9.67741 36.7742Z" fill="#009FEF"/>
<path d="M34.4606 12.6361L30.74 8.91548C30.8826 8.55097 30.9677 8.15677 30.9677 7.74193C30.9677 5.96064 29.5232 4.51613 27.7419 4.51613L27.0968 5.16129L28.3871 6.45161C28.3871 7.52064 27.5206 8.3871 26.4516 8.3871L25.1613 7.09677L24.5161 7.74193C24.5161 9.52323 25.9606 10.9677 27.7419 10.9677C28.1568 10.9677 28.551 10.8826 28.9155 10.74L32.6361 14.4606C32.88 14.7045 33.2039 14.8387 33.5484 14.8387C33.8929 14.8387 34.2168 14.7045 34.4606 14.4606C34.7045 14.2168 34.8387 13.8929 34.8387 13.5484C34.8387 13.2039 34.7045 12.88 34.4606 12.6361Z" fill="#009FEF"/>
<path d="M33.5484 32.2581L28.3871 27.0968L28.6181 27.0045C30.5961 26.2129 32.7077 25.8065 34.8387 25.8065C34.8387 27.9374 34.4322 30.049 33.6406 32.0271L33.5484 32.2581Z" fill="#009FEF"/>
<path d="M26.4516 35.4839C26.1071 35.4839 25.7832 35.3497 25.5393 35.1058C25.2954 34.8619 25.1613 34.5381 25.1613 34.1935C25.1613 33.849 25.2954 33.5252 25.5393 33.2813L26.8296 31.991C27.0735 31.7471 27.3974 31.6129 27.7419 31.6129C28.0864 31.6129 28.4103 31.7471 28.6542 31.991C28.898 32.2348 29.0322 32.5587 29.0322 32.9032C29.0322 33.2477 28.898 33.5716 28.6542 33.8155L27.3638 35.1058C27.12 35.3497 26.7961 35.4839 26.4516 35.4839Z" fill="#009FEF"/>
<path d="M30.3226 20.6452C28.6916 20.6452 27.1561 21.0548 25.8064 21.7703V18.2303C27.1561 18.9452 28.6916 19.3548 30.3226 19.3548C35.6587 19.3548 40 15.0135 40 9.67742C40 4.34129 35.6587 0 30.3226 0C26.54 0 23.2665 2.18645 21.6755 5.35677L15.0955 0.507742C14.2052 -0.147742 12.8916 -0.148387 12.0013 0.508387L0 9.35161V12.9032H1.29032V25.5148C0.474194 26.9335 0 28.5723 0 30.3226C0 35.6587 4.34129 40 9.67742 40C15.0135 40 19.3548 35.6587 19.3548 30.3226C19.3548 29.66 19.2871 29.0129 19.16 28.3871H20.8406C20.7129 29.0129 20.6452 29.66 20.6452 30.3226C20.6452 35.6587 24.9865 40 30.3226 40C35.6587 40 40 35.6587 40 30.3226C40 24.9865 35.6587 20.6452 30.3226 20.6452ZM30.3226 1.29032C34.9471 1.29032 38.7097 5.0529 38.7097 9.67742C38.7097 14.3019 34.9471 18.0645 30.3226 18.0645C25.6981 18.0645 21.9355 14.3019 21.9355 9.67742C21.9355 5.0529 25.6981 1.29032 30.3226 1.29032ZM20.6781 10.3226C20.7071 10.76 20.7548 11.1929 20.8406 11.6129H14.1935V10.3226H20.6781ZM17.1239 3.60516L15.4839 5.5729V7.74194H16.7742V6.85032L18.4213 7.67355L18.9987 6.51935L17.1471 5.59355L18.1652 4.37161L21.1632 6.58064C20.8994 7.35871 20.7355 8.18 20.6787 9.03161H14.1935V1.47806C14.2381 1.50258 14.289 1.51613 14.3303 1.54645L17.1239 3.60516ZM12.7665 1.5471C12.8077 1.51677 12.8581 1.50323 12.9032 1.47871V9.03226H2.60774L7.3071 5.56968L7.92774 7.01742L11.4865 7.72968L11.74 6.46452L8.8471 5.88645L8.37419 4.78387L12.7665 1.5471ZM1.29032 10.3226H12.9032V11.6129H1.29032V10.3226ZM2.58065 12.9032H12.9032V21.2097C12.4839 21.0606 12.0561 20.9303 11.6129 20.84V14.1935H3.87097V22.5987C3.40645 22.949 2.97484 23.3387 2.58065 23.7652V12.9032ZM10.3226 20.6781C10.1084 20.6639 9.89548 20.6452 9.67742 20.6452C8.04645 20.6452 6.51097 21.0548 5.16129 21.7703V15.4839H10.3226V20.6781ZM9.67742 38.7097C5.0529 38.7097 1.29032 34.9471 1.29032 30.3226C1.29032 25.6981 5.0529 21.9355 9.67742 21.9355C14.3019 21.9355 18.0645 25.6981 18.0645 30.3226C18.0645 34.9471 14.3019 38.7097 9.67742 38.7097ZM18.7903 27.0968C17.9748 24.8 16.3226 22.8987 14.1935 21.7703V12.9032H21.2097C21.5419 13.8381 22.0123 14.7058 22.5987 15.4839H15.4839V21.9355H23.2258V16.2348C23.62 16.6613 24.0516 17.051 24.5161 17.4013V22.5994C23.0123 23.7323 21.8516 25.2903 21.2097 27.0968H18.7903ZM21.9355 16.7742V20.6452H16.7742V16.7742H21.9355ZM30.3226 38.7097C25.6981 38.7097 21.9355 34.9471 21.9355 30.3226C21.9355 25.6981 25.6981 21.9355 30.3226 21.9355C34.9471 21.9355 38.7097 25.6981 38.7097 30.3226C38.7097 34.9471 34.9471 38.7097 30.3226 38.7097Z" fill="#2C2C2C"/>
<path d="M5.16129 27.0968H7.27549C7.16517 26.9065 7.09678 26.6877 7.09678 26.4516C7.09678 26.2155 7.16517 25.9968 7.27549 25.8065H3.87097V29.5361L9.03226 30.8265V33.0819C9.22258 32.9716 9.44129 32.9032 9.67742 32.9032C9.91355 32.9032 10.1323 32.9716 10.3226 33.0819V29.8181L5.16129 28.5277V27.0968Z" fill="#2C2C2C"/>
<path d="M28.0723 31.6607C28.2897 31.7181 28.491 31.8271 28.6542 31.991C28.8174 32.1548 28.9271 32.3555 28.9845 32.5729L31.4239 30.1336L30.5116 29.2213L28.0723 31.6607Z" fill="#2C2C2C"/>
</svg>
