<svg width="40" height="40" viewBox="0 0 40 40" fill="none" xmlns="http://www.w3.org/2000/svg">
<rect width="40" height="40" fill="white"/>
<g clip-path="url(#clip0_63_199)">
<path d="M5.80646 34.8387H31.6129V38.0645H5.80646V34.8387Z" fill="#009FEF"/>
<path d="M37.4194 28.3871H33.5484V24.5161H37.4194V28.3871Z" fill="#009FEF"/>
<path d="M5.80646 21.2903H31.6129V24.5161H5.80646V21.2903Z" fill="#009FEF"/>
<path d="M7.74194 24.5161H9.03227V34.8387H7.74194V24.5161Z" fill="#2C2C2C"/>
<path d="M10.3226 24.5161H11.6129V34.8387H10.3226V24.5161Z" fill="#2C2C2C"/>
<path d="M25.8065 24.5161H27.0968V34.8387H25.8065V24.5161Z" fill="#2C2C2C"/>
<path d="M28.3871 24.5161H29.6774V34.8387H28.3871V24.5161Z" fill="#2C2C2C"/>
<path d="M15.4838 29.6774H14.1935C14.1935 30.0393 14.0535 30.1942 13.7374 30.5103C13.3858 30.8619 12.9032 31.3439 12.9032 32.2555C12.9032 33.1671 13.3851 33.649 13.7374 34.0006C14.0535 34.3168 14.1935 34.4716 14.1935 34.8342C14.1935 35.1974 14.0535 35.3529 13.7367 35.6697C13.3851 36.0219 12.9032 36.5045 12.9032 37.4168C12.9032 38.3297 13.3851 38.8123 13.7367 39.1645C14.0535 39.4813 14.1935 39.6368 14.1935 40H15.4838C15.4838 39.0871 15.0019 38.6045 14.6503 38.2523C14.3335 37.9355 14.1935 37.7806 14.1935 37.4168C14.1935 37.0535 14.3335 36.8981 14.6497 36.5819C15.0019 36.2297 15.4838 35.7471 15.4838 34.8342C15.4838 33.9219 15.0013 33.44 14.6497 33.0884C14.3335 32.7723 14.1935 32.6174 14.1935 32.2555C14.1935 31.8935 14.3335 31.7387 14.6497 31.4226C15.0013 31.071 15.4838 30.589 15.4838 29.6774Z" fill="#2C2C2C"/>
<path d="M19.3548 29.6774H18.0645C18.0645 30.0393 17.9245 30.1942 17.6084 30.5103C17.2568 30.8619 16.7742 31.3439 16.7742 32.2555C16.7742 33.1671 17.2561 33.649 17.6084 34.0006C17.9245 34.3168 18.0645 34.4716 18.0645 34.8342C18.0645 35.1974 17.9245 35.3529 17.6077 35.6697C17.2561 36.0219 16.7742 36.5045 16.7742 37.4168C16.7742 38.3297 17.2561 38.8123 17.6077 39.1645C17.9245 39.4813 18.0645 39.6368 18.0645 40H19.3548C19.3548 39.0871 18.8729 38.6045 18.5213 38.2523C18.2045 37.9355 18.0645 37.7806 18.0645 37.4168C18.0645 37.0535 18.2045 36.8981 18.5206 36.5819C18.8729 36.2297 19.3548 35.7471 19.3548 34.8342C19.3548 33.9219 18.8722 33.44 18.5206 33.0884C18.2045 32.7723 18.0645 32.6174 18.0645 32.2555C18.0645 31.8935 18.2045 31.7387 18.5206 31.4226C18.8722 31.071 19.3548 30.589 19.3548 29.6774Z" fill="#2C2C2C"/>
<path d="M23.2258 29.6774H21.9355C21.9355 30.0393 21.7955 30.1942 21.4793 30.5103C21.1277 30.8619 20.6451 31.3439 20.6451 32.2555C20.6451 33.1671 21.1271 33.649 21.4793 34.0006C21.7955 34.3168 21.9355 34.4716 21.9355 34.8342C21.9355 35.1974 21.7955 35.3529 21.4787 35.6697C21.1271 36.0219 20.6451 36.5045 20.6451 37.4168C20.6451 38.3297 21.1271 38.8123 21.4787 39.1645C21.7955 39.4813 21.9355 39.6368 21.9355 40H23.2258C23.2258 39.0871 22.7439 38.6045 22.3922 38.2523C22.0755 37.9355 21.9355 37.7806 21.9355 37.4168C21.9355 37.0535 22.0755 36.8981 22.3916 36.5819C22.7439 36.2297 23.2258 35.7471 23.2258 34.8342C23.2258 33.9219 22.7432 33.44 22.3916 33.0884C22.0755 32.7723 21.9355 32.6174 21.9355 32.2555C21.9355 31.8935 22.0755 31.7387 22.3916 31.4226C22.7432 31.071 23.2258 30.589 23.2258 29.6774Z" fill="#2C2C2C"/>
<path d="M12.9032 24.5161H14.1935V28.3871H12.9032V24.5161Z" fill="#2C2C2C"/>
<path d="M15.4839 24.5161H16.7742V28.3871H15.4839V24.5161Z" fill="#2C2C2C"/>
<path d="M18.0645 24.5161H19.3548V28.3871H18.0645V24.5161Z" fill="#2C2C2C"/>
<path d="M20.6451 24.5161H21.9355V28.3871H20.6451V24.5161Z" fill="#2C2C2C"/>
<path d="M23.2258 24.5161H24.5162V28.3871H23.2258V24.5161Z" fill="#2C2C2C"/>
<path d="M40 5.80645H34.4606L28.6542 0H0V3.87097H10.3226V9.14258C9.77419 9.33677 9.34064 9.77355 9.14581 10.3226H6.45161V7.74194H2.58065V10.3226H0V14.1935H2.58065V16.7742H6.45161V14.1935H9.14581C9.34064 14.7419 9.77355 15.1787 10.3226 15.3735V20.6452H5.16129V38.7097H11.6129V37.4194H6.45161V21.9355H30.9677V37.4194H23.871V38.7097H32.2581V30.9677H40V5.80645ZM1.29032 12.9032V11.6129H2.58065V12.9032H1.29032ZM5.16129 15.4839H3.87097V9.03226H5.16129V15.4839ZM6.45161 11.6129H9.03226V12.9032H6.45161V11.6129ZM1.29032 2.58065V1.29032H10.3226V2.58065H1.29032ZM10.9677 14.1935C10.6123 14.1935 10.3226 13.9039 10.3226 13.5484V10.9677C10.3226 10.6123 10.6123 10.3226 10.9677 10.3226H11.6129V1.29032H15.4839V5.16129H26.5168L32.3232 10.9677H34.8387V21.9355H32.2581V21.2903V20.6452V11.6129H27.0968V20.6452H25.8064V11.6129H20.6452V14.1935H21.9355V12.9032H24.5161V20.6452H20.6452V19.3548H21.9355V15.4839H19.3548V11.6129H14.1935V15.4839H12.9032V19.3548H14.1935V20.6452H11.6129V14.1935H10.9677ZM18.0645 15.4839H15.4839V12.9032H18.0645V15.4839ZM20.6452 16.7742V18.0645H14.1935V16.7742H20.6452ZM19.3548 19.3548V20.6452H15.4839V19.3548H19.3548ZM28.3871 20.6452V12.9032H30.9677V20.6452H28.3871ZM38.7097 29.6774H32.2581V23.2258H36.129V9.67742H32.8574L27.051 3.87097H16.7742V1.29032H28.12L33.9264 7.09677H38.7097V29.6774Z" fill="#2C2C2C"/>
<path d="M12.9032 2.58064H14.1935V6.45161H12.9032V2.58064Z" fill="#2C2C2C"/>
</g>
<defs>
<clipPath id="clip0_63_199">
<rect width="40" height="40" fill="white"/>
</clipPath>
</defs>
</svg>
