<svg width="41" height="40" viewBox="0 0 41 40" fill="none" xmlns="http://www.w3.org/2000/svg">
<rect width="40" height="40" fill="white"/>
<path d="M38.4194 21.2903H39.7097V32.9032H38.4194V21.2903Z" fill="#2C2C2C"/>
<path d="M39.7097 40H33.2581V35.4839H34.5484V38.7097H38.4193V35.4839H39.7097V40Z" fill="#2C2C2C"/>
<path d="M34.5484 18.7097H33.2581V11.6129H31.3226V10.3226H33.2581C33.9697 10.3226 34.5484 10.9013 34.5484 11.6129V18.7097Z" fill="#2C2C2C"/>
<path d="M23.5806 10.3226H28.7419V11.6129H23.5806V10.3226Z" fill="#2C2C2C"/>
<path d="M16.6871 10.3226H21V11.6129H16.6871V10.3226Z" fill="#2C2C2C"/>
<path d="M16.6871 5.16129H21V6.45161H16.6871V5.16129Z" fill="#2C2C2C"/>
<path d="M9.3871 16.7742C4.76258 16.7742 1 13.0116 1 8.3871C1 3.76258 4.76258 0 9.3871 0C14.0116 0 17.7742 3.76258 17.7742 8.3871C17.7742 13.0116 14.0116 16.7742 9.3871 16.7742Z" fill="#009FEF"/>
<path d="M9.38708 14.1935C7.25224 14.1935 5.51611 12.4574 5.51611 10.3226C5.51611 9.81226 5.61095 9.31355 5.79869 8.84L7.88773 3.54645C8.15418 2.96 8.74256 2.58064 9.38708 2.58064C10.0316 2.58064 10.62 2.96 10.8864 3.54645L12.9884 8.86968C13.1671 9.32451 13.258 9.80258 13.258 10.291C13.258 12.4574 11.5219 14.1935 9.38708 14.1935ZM9.06773 4.06903L6.99869 9.31419C6.87095 9.63613 6.80644 9.97548 6.80644 10.3226C6.80644 11.7458 7.96386 12.9032 9.38708 12.9032C10.8103 12.9032 11.9677 11.7458 11.9677 10.3226C11.9677 9.96516 11.9071 9.64645 11.7877 9.34258L9.69934 4.04967C9.6116 3.85871 9.18966 3.82516 9.06773 4.06903Z" fill="#2C2C2C"/>
<path d="M23.5806 5.16129H28.7419V6.45161H23.5806V5.16129Z" fill="#2C2C2C"/>
<path d="M39.7097 18.7097H38.4193V9.67741C38.4193 7.89871 36.9722 6.45161 35.1935 6.45161H31.3226V5.16129H35.1935C37.6832 5.16129 39.7097 7.18774 39.7097 9.67741V18.7097Z" fill="#2C2C2C"/>
<path d="M22.9355 12.2581H21.6452C21.289 12.2581 21 11.969 21 11.6129V5.16129C21 4.80516 21.289 4.51613 21.6452 4.51613H22.9355C23.2916 4.51613 23.5806 4.80516 23.5806 5.16129V11.6129C23.5806 11.969 23.2916 12.2581 22.9355 12.2581Z" fill="#009FEF"/>
<path d="M30.6774 12.2581H29.3871C29.031 12.2581 28.7419 11.969 28.7419 11.6129V5.16129C28.7419 4.80516 29.031 4.51613 29.3871 4.51613H30.6774C31.0336 4.51613 31.3226 4.80516 31.3226 5.16129V11.6129C31.3226 11.969 31.0336 12.2581 30.6774 12.2581Z" fill="#009FEF"/>
<path d="M39.7097 35.4839H33.2581C32.9019 35.4839 32.6129 35.1948 32.6129 34.8387V33.5484C32.6129 33.1923 32.9019 32.9032 33.2581 32.9032H39.7097C40.0658 32.9032 40.3549 33.1923 40.3549 33.5484V34.8387C40.3549 35.1948 40.0658 35.4839 39.7097 35.4839Z" fill="#009FEF"/>
<path d="M10.0323 35.4839H3.58065C3.22452 35.4839 2.93549 35.1948 2.93549 34.8387V33.5484C2.93549 33.1923 3.22452 32.9032 3.58065 32.9032H10.0323C10.3884 32.9032 10.6774 33.1923 10.6774 33.5484V34.8387C10.6774 35.1948 10.3884 35.4839 10.0323 35.4839Z" fill="#009FEF"/>
<path d="M39.7097 21.2903H33.2581C32.9019 21.2903 32.6129 21.0013 32.6129 20.6452V19.3548C32.6129 18.9987 32.9019 18.7097 33.2581 18.7097H39.7097C40.0658 18.7097 40.3549 18.9987 40.3549 19.3548V20.6452C40.3549 21.0013 40.0658 21.2903 39.7097 21.2903Z" fill="#009FEF"/>
<path d="M10.0323 32.9032H8.74194V29.6774C8.74194 28.9658 9.32065 28.3871 10.0323 28.3871H11.9677V29.6774H10.0323V32.9032Z" fill="#2C2C2C"/>
<path d="M4.87095 32.9032H3.58063V27.7419C3.58063 25.2523 5.60708 23.2258 8.09676 23.2258H11.9677V24.5161H8.09676C6.31805 24.5161 4.87095 25.9632 4.87095 27.7419V32.9032Z" fill="#2C2C2C"/>
<path d="M23.5807 23.2258V20.6452H24.2258C25.2929 20.6452 26.1613 19.7768 26.1613 18.7097C26.1613 17.6426 25.2929 16.7742 24.2258 16.7742H23.5807C23.5807 15.351 22.4232 14.1935 21 14.1935C19.5768 14.1935 18.4194 15.351 18.4194 16.7742H17.7742C16.7071 16.7742 15.8387 17.6426 15.8387 18.7097C15.8387 19.7768 16.7071 20.6452 17.7742 20.6452H18.4194V23.2258H14.5484V24.5161H27.4516V23.2258H23.5807ZM21 15.4839C21.7116 15.4839 22.2903 16.0626 22.2903 16.7742H19.7097C19.7097 16.0626 20.2884 15.4839 21 15.4839ZM17.129 18.7097C17.129 18.3535 17.4181 18.0645 17.7742 18.0645H24.2258C24.5819 18.0645 24.871 18.3535 24.871 18.7097C24.871 19.0658 24.5819 19.3548 24.2258 19.3548H17.7742C17.4181 19.3548 17.129 19.0658 17.129 18.7097ZM19.7097 20.6452H22.2903V23.2258H19.7097V20.6452Z" fill="#2C2C2C"/>
<path d="M33.2581 21.2903V23.2258H30.0323V24.5161H33.2581V28.3871H30.0323V29.6774H33.2581V32.9032H34.5484V21.2903H33.2581Z" fill="#2C2C2C"/>
<path d="M13.9032 30.3226H12.6129C12.2567 30.3226 11.9677 30.0335 11.9677 29.6774V23.2258C11.9677 22.8697 12.2567 22.5806 12.6129 22.5806H13.9032C14.2593 22.5806 14.5484 22.8697 14.5484 23.2258V29.6774C14.5484 30.0335 14.2593 30.3226 13.9032 30.3226Z" fill="#009FEF"/>
<path d="M29.3871 30.3226H28.0968C27.7406 30.3226 27.4516 30.0335 27.4516 29.6774V23.2258C27.4516 22.8697 27.7406 22.5806 28.0968 22.5806H29.3871C29.7432 22.5806 30.0322 22.8697 30.0322 23.2258V29.6774C30.0322 30.0335 29.7432 30.3226 29.3871 30.3226Z" fill="#009FEF"/>
<path d="M14.5484 28.3871H27.4516V29.6774H14.5484V28.3871Z" fill="#2C2C2C"/>
<path d="M37.129 30.9677H35.8387V29.6774H37.129V30.9677ZM37.129 28.3871H35.8387V27.0968H37.129V28.3871ZM37.129 25.8065H35.8387V24.5161H37.129V25.8065Z" fill="#2C2C2C"/>
<path d="M22.9355 27.0968H21.6452V25.8065H22.9355V27.0968ZM20.3549 27.0968H19.0645V25.8065H20.3549V27.0968ZM17.7742 27.0968H16.4839V25.8065H17.7742V27.0968Z" fill="#2C2C2C"/>
<path d="M37.129 16.7742H35.8387V15.4839H37.129V16.7742ZM37.129 14.1936H35.8387V12.9032H37.129V14.1936ZM37.129 11.6129H35.8387V10.3226H37.129V11.6129Z" fill="#2C2C2C"/>
<path d="M10.0322 40H3.58063V35.4839H4.87095V38.7097H8.74192V35.4839H10.0322V40Z" fill="#2C2C2C"/>
</svg>
