<svg width="41" height="40" viewBox="0 0 41 40" fill="none" xmlns="http://www.w3.org/2000/svg">
<rect width="40" height="40" fill="white"/>
<path d="M30.9732 10.9627H25.811V7.09106H30.9732V10.9627Z" fill="#009FEF"/>
<path d="M20.6488 33.5473H15.4866V28.3851H20.6488V33.5473Z" fill="#009FEF"/>
<path d="M29.6826 37.4189H24.5204V32.2567H29.6826V37.4189Z" fill="#009FEF"/>
<path d="M36.1353 37.4189H30.9731V32.2567H36.1353V37.4189Z" fill="#009FEF"/>
<path d="M40.007 26.4493L37.3098 12.8985H34.8448V8.91655L36.2986 9.95479C36.629 10.1923 37.0187 10.3174 37.4253 10.3174C38.0492 10.3174 38.6384 10.0142 39.001 9.50633C39.3017 9.08561 39.4204 8.57262 39.3353 8.0622C39.2494 7.55115 38.9707 7.10526 38.5506 6.80715L29.5161 0.353126C28.8554 -0.117924 27.9262 -0.117924 27.2674 0.354416L18.2348 6.80586C17.8135 7.10526 17.5347 7.55179 17.4489 8.0622C17.3637 8.57262 17.4818 9.08561 17.7838 9.50762C18.3826 10.3439 19.6467 10.5542 20.4836 9.95608L21.9393 8.9159V12.8985H15.7376L14.8388 12.0997C14.1283 11.466 12.9726 11.4673 12.2648 12.0984L0.650493 22.4215C0.263329 22.7648 0.0336122 23.2384 0.00328438 23.7546C-0.0263982 24.2715 0.14589 24.7683 0.48853 25.1536C0.85569 25.5678 1.38352 25.8053 1.93588 25.8053C2.41015 25.8053 2.86701 25.6311 3.22255 25.3149L3.8717 24.738V40H38.7164V30.9662H40.007V26.4493ZM36.2515 14.1891L38.7164 26.5131V27.0945H23.2299V24.738L23.879 25.3149C24.6469 25.9982 25.9304 25.9214 26.6124 25.1548C26.9557 24.7683 27.128 24.2715 27.0977 23.7546C27.0673 23.2377 26.8376 22.7648 26.4517 22.4228L23.7229 19.9965H34.8448V14.1891H36.2515ZM29.6826 18.706H27.1015V13.5438H29.6826V18.706ZM19.7332 8.90622C19.4531 9.10561 19.0317 9.03399 18.833 8.75716C18.7323 8.61649 18.693 8.4455 18.7214 8.27514C18.7504 8.10221 18.8407 7.95831 18.9833 7.85636L28.0172 1.40428C28.2379 1.24683 28.5469 1.24812 28.7663 1.40363L37.8008 7.8583C37.9402 7.95702 38.0331 8.10544 38.0615 8.27514C38.0899 8.4455 38.0505 8.61585 37.9505 8.75587C37.7511 9.03592 37.3317 9.10819 37.0491 8.90558L28.3921 2.72192L19.7332 8.90622ZM28.3921 4.30736L33.5543 7.9951V18.706H30.9732V12.2533H25.811V18.706H23.2299V7.99445L28.3921 4.30736ZM21.9393 14.1891V18.4111L17.1895 14.1891H21.9393ZM2.36498 24.3508C2.10752 24.5799 1.68229 24.5535 1.45321 24.2966C1.339 24.1689 1.28157 24.003 1.29189 23.8301C1.30222 23.6578 1.37836 23.5004 1.50742 23.3862L13.1223 13.0618C13.2411 12.9566 13.3927 12.8985 13.5508 12.8985C13.7089 12.8985 13.8612 12.9566 13.9805 13.0631L25.5955 23.3874C25.7239 23.5017 25.8 23.6585 25.8097 23.8307C25.82 24.0056 25.7639 24.1669 25.6477 24.2986C25.4206 24.5541 24.9934 24.5799 24.7366 24.3515L13.5508 14.4078L2.36498 24.3508ZM13.5508 16.1346L21.9393 23.5907V25.804H16.7772V20.6418H10.3244V25.804H5.16224V23.5907L13.5508 16.1346ZM15.4866 25.804H11.615V21.9324H15.4866V25.804ZM5.16224 27.0945H21.9393V38.7095H14.1961V30.9662H6.45279V38.7095H5.16224V27.0945ZM12.9055 38.7095H7.74334V32.2567H12.9055V38.7095ZM37.4259 38.7095H23.2299V30.9662H37.4259V38.7095ZM23.2299 29.6756V28.3851H38.7164V29.6756H23.2299Z" fill="#2C2C2C"/>
</svg>
