<svg width="40" height="40" viewBox="0 0 40 40" fill="none" xmlns="http://www.w3.org/2000/svg">
<rect width="40" height="40" fill="white"/>
<path d="M38.7104 12.9032H20.6459C19.9343 12.9032 19.3556 12.3245 19.3556 11.6129V1.29032C19.3556 0.57871 19.9343 0 20.6459 0H38.7104C39.422 0 40.0007 0.57871 40.0007 1.29032V11.6129C40.0007 12.3245 39.422 12.9032 38.7104 12.9032Z" fill="#009FEF"/>
<path d="M9.03297 20.6452C9.03297 21.3568 9.61168 21.9355 10.3233 21.9355V23.2258C10.3233 23.9374 10.902 24.5161 11.6136 24.5161H14.1943C14.9059 24.5161 15.4846 23.9374 15.4846 23.2258V21.9355C16.1962 21.9355 16.7749 21.3568 16.7749 20.6452V19.3548H18.0652V18.0645H16.7749V16.7742C16.7749 16.0626 16.1962 15.4839 15.4846 15.4839H10.3233C9.61168 15.4839 9.03297 16.0626 9.03297 16.7742V18.0645H7.74265V19.3548H9.03297V20.6452ZM14.1943 23.2258H11.6136V21.9355H14.1943V23.2258ZM10.3233 16.7742H15.4846L15.4859 20.6452H10.3233V16.7742Z" fill="#2C2C2C"/>
<path d="M37.7852 38.7097L36.6014 36.7361C36.2162 36.0942 35.5652 35.6594 34.8394 35.529V25.4677C37.091 24.6684 38.7104 22.5226 38.7104 20V18.0645C38.7104 17.3529 38.1317 16.7742 37.4201 16.7742H28.3878V15.4839H27.0975V16.7742H25.8072V11.6129C25.8072 10.9013 26.3859 10.3226 27.0975 10.3226C27.8091 10.3226 28.3878 10.9013 28.3878 11.6129V12.9032H29.6781V11.6129C29.6781 10.1897 28.5207 9.03226 27.0975 9.03226C25.6743 9.03226 24.5168 10.1897 24.5168 11.6129V16.7742H21.9362C21.2246 16.7742 20.6459 17.3529 20.6459 18.0645V20C20.6459 22.5226 22.2652 24.6684 24.5168 25.4677V35.529C23.791 35.6594 23.1401 36.0948 22.7549 36.7361L21.571 38.7097H12.7762L11.8678 34.6226L14.2433 34.4742C17.1104 34.2948 19.3556 31.9045 19.3556 29.0323C19.3556 27.9652 18.4872 27.0968 17.4201 27.0968H6.98846L4.54652 13.9613C4.43297 13.3477 3.89362 12.9032 3.26329 12.9032H1.30523C0.913616 12.9032 0.545874 13.0755 0.296842 13.3742C0.0523257 13.6684 -0.0476743 14.0523 0.0213579 14.4265L2.50781 27.8006V38.7097H0.000712814V40H39.3556V38.7097H37.7852ZM21.9362 20V18.0645H37.4201V20C37.4201 22.4897 35.3936 24.5161 32.9039 24.5161H26.4523C23.9626 24.5161 21.9362 22.4897 21.9362 20ZM26.4523 25.8065H32.9039C33.122 25.8065 33.3368 25.7923 33.5491 25.7684V35.4839H25.8072V25.7684C26.0194 25.7923 26.2343 25.8065 26.4523 25.8065ZM23.8607 37.4006C24.093 37.0142 24.5168 36.7742 24.9672 36.7742H34.3891C34.8394 36.7742 35.2633 37.0142 35.4956 37.4006L36.2807 38.7097H23.0756L23.8607 37.4006ZM18.0652 29.0323C18.0652 29.2516 18.0433 29.4665 18.0104 29.6774H3.79942V28.3871H17.4201C17.7762 28.3871 18.0652 28.6761 18.0652 29.0323ZM1.30523 14.1935L3.27749 14.1961L5.6762 27.0968H3.68071L1.30523 14.1935ZM3.79942 30.9677H17.5846C16.9265 32.2129 15.6556 33.0929 14.1626 33.1858L8.34716 33.549L8.42781 34.8368L10.5639 34.7032L11.4543 38.7097H3.79942V30.9677Z" fill="#2C2C2C"/>
<path d="M24.0571 6.2648L24.9695 5.35241L26.9052 7.28805L25.9928 8.20045L24.0571 6.2648Z" fill="#2C2C2C"/>
<path d="M26.6378 3.68484L27.5501 2.77259L32.7107 7.93323L31.7985 8.84549L26.6378 3.68484Z" fill="#2C2C2C"/>
<path d="M31.1537 3.6852L32.0659 2.77294L35.2912 5.99823L34.3789 6.91048L31.1537 3.6852Z" fill="#2C2C2C"/>
</svg>
