<svg width="36" height="36" viewBox="0 0 36 36" fill="none" xmlns="http://www.w3.org/2000/svg">
<mask id="mask0_51_127" style="mask-type:luminance" maskUnits="userSpaceOnUse" x="0" y="0" width="36" height="36">
<path d="M0 3.8147e-06H36V36H0V3.8147e-06Z" fill="white"/>
</mask>
<g mask="url(#mask0_51_127)">
<path d="M26.2539 19.6086C26.2539 16.8363 24.0066 14.589 21.2343 14.589C18.4621 14.589 16.2147 16.8363 16.2147 19.6086C16.2147 22.3808 18.4621 24.6282 21.2343 24.6282C24.0066 24.6282 26.2539 22.3808 26.2539 19.6086Z" stroke="white" stroke-width="1.40625" stroke-miterlimit="10" stroke-linecap="round" stroke-linejoin="round"/>
<path d="M23.4216 19.6086C23.4216 18.4006 22.4424 17.4213 21.2343 17.4213C20.0264 17.4213 19.0471 18.4006 19.0471 19.6086C19.0471 20.8165 20.0264 21.7958 21.2343 21.7958C22.4424 21.7958 23.4216 20.8165 23.4216 19.6086Z" stroke="white" stroke-width="1.40625" stroke-miterlimit="10" stroke-linecap="round" stroke-linejoin="round"/>
<path d="M23.6428 6.69796H18.8258L17.1575 10.5969H25.3112L23.6428 6.69796Z" stroke="white" stroke-width="1.40625" stroke-miterlimit="10" stroke-linecap="round" stroke-linejoin="round"/>
<path d="M25.7487 6.698H16.72C16.178 6.698 15.7386 6.25862 15.7386 5.71665V2.57621C15.7386 2.03417 16.178 1.59479 16.72 1.59479H25.7487C26.2907 1.59479 26.73 2.03417 26.73 2.57621V5.71665C26.73 6.25862 26.2907 6.698 25.7487 6.698Z" stroke="white" stroke-width="1.40625" stroke-miterlimit="10" stroke-linecap="round" stroke-linejoin="round"/>
<path d="M32.3284 3.72638C32.3284 2.89149 31.6516 2.21466 30.8167 2.21466C31.6516 2.21466 32.3284 1.53783 32.3284 0.702942C32.3284 1.53783 33.0053 2.21466 33.8401 2.21466C33.0053 2.21466 32.3284 2.89149 32.3284 3.72638Z" stroke="white" stroke-width="1.40625" stroke-miterlimit="10" stroke-linecap="round" stroke-linejoin="round"/>
<path d="M11.0273 10.5968H31.3594C32.7573 10.5968 33.8906 11.7301 33.8906 13.1281V16.6639" stroke="white" stroke-width="1.40625" stroke-miterlimit="10" stroke-linecap="round" stroke-linejoin="round"/>
<path d="M33.8906 22.992V25.9225C33.8906 27.3206 32.7574 28.4538 31.3594 28.4538H16.0635" stroke="white" stroke-width="1.40625" stroke-miterlimit="10" stroke-linecap="round" stroke-linejoin="round"/>
<path d="M5.46307 14.2382V11.3345L9.55786 7.19861H12.0092C12.9434 7.19861 13.7007 7.95595 13.7007 8.89019C13.7007 9.82443 12.9434 10.5818 12.0092 10.5818H10.9747L9.23182 12.3825" stroke="white" stroke-width="1.40625" stroke-miterlimit="10" stroke-linecap="round" stroke-linejoin="round"/>
<path d="M13.7037 22.615C14.5313 23.0759 15.5796 22.7668 16.0221 21.9223C16.45 21.1056 16.1196 20.0942 15.3142 19.6455L13.8326 18.8203C14.624 19.1774 15.5707 18.8748 16.001 18.1023C16.4549 17.2874 16.1623 16.2588 15.3474 15.805L9.25341 12.4107C9.24469 12.4058 9.23414 12.4058 9.22535 12.4104L4.07166 15.1415C3.168 15.6141 2.60156 16.5494 2.60156 17.5692V20.0934" stroke="white" stroke-width="1.40625" stroke-miterlimit="10" stroke-linecap="round" stroke-linejoin="round"/>
<path d="M7.27734 20.0994H9.53571L13.3616 22.4352C14.1577 22.9212 14.4091 23.9607 13.923 24.7568C13.437 25.5529 12.3976 25.8043 11.6014 25.3182L8.58614 23.4773H7.34766" stroke="white" stroke-width="1.40625" stroke-miterlimit="10" stroke-linecap="round" stroke-linejoin="round"/>
<path d="M13.7037 18.7485L9.23946 16.2619L6.83618 17.5052" stroke="white" stroke-width="1.40625" stroke-miterlimit="10" stroke-linecap="round" stroke-linejoin="round"/>
<path d="M3.45284 19.359C2.62631 19.7966 2.10938 20.6552 2.10938 21.5904V25.997C2.10938 28.4301 3.07589 30.7635 4.7963 32.4839V35.2964" stroke="white" stroke-width="1.40625" stroke-miterlimit="10" stroke-linecap="round" stroke-linejoin="round"/>
<path d="M13.4897 35.2968C15.0785 33.485 16.047 31.1155 16.0633 28.5202" stroke="white" stroke-width="1.40625" stroke-miterlimit="10" stroke-linecap="round" stroke-linejoin="round"/>
<path d="M16.0635 28.4538H11.1094C9.71135 28.4538 8.57812 27.3205 8.57812 25.9225V24.0344" stroke="white" stroke-width="1.40625" stroke-miterlimit="10" stroke-linecap="round" stroke-linejoin="round"/>
</g>
</svg>
