<svg width="48" height="48" viewBox="0 0 48 48" fill="none" xmlns="http://www.w3.org/2000/svg">
<rect width="48" height="48" rx="24" fill="#419FD9"/>
<path fill-rule="evenodd" clip-rule="evenodd" d="M27.4193 32.0583C28.5568 32.5559 28.9833 31.5132 28.9833 31.5132L31.9929 16.3946C31.9692 15.3756 30.5947 15.9917 30.5947 15.9917L13.7462 22.6032C13.7462 22.6032 12.9405 22.8875 13.0116 23.3852C13.0827 23.8828 13.7225 24.1198 13.7225 24.1198L17.9643 25.5416C17.9643 25.5416 19.2439 29.736 19.5046 30.5417C19.7415 31.3237 19.9548 31.3474 19.9548 31.3474C20.1918 31.4422 20.405 31.2763 20.405 31.2763L23.1539 28.7881L27.4193 32.0583ZM28.154 19.0723C28.154 19.0723 28.7464 18.7169 28.7227 19.0723C28.7227 19.0723 28.8175 19.1197 28.5095 19.4515C28.2251 19.7358 21.5189 25.7549 20.6184 26.5606C20.5473 26.608 20.4999 26.679 20.4999 26.7738L20.2392 29.0013C20.1918 29.2383 19.8838 29.262 19.8127 29.0487L18.6989 25.3994C18.6515 25.2572 18.6989 25.0913 18.8411 24.9966L28.154 19.0723Z" fill="white"/>
</svg>
