<svg width="48" height="48" viewBox="0 0 48 48" fill="none" xmlns="http://www.w3.org/2000/svg">
<rect width="48" height="48" rx="24" fill="#0DC143"/>
<path d="M31.6117 16.4189C29.7589 14.527 27.1975 13.5 24.5817 13.5C19.0232 13.5 14.5545 17.9865 14.609 23.4459C14.609 25.1757 15.0995 26.8514 15.9169 28.3649L14.5 33.5L19.7861 32.1486C21.2575 32.9595 22.8924 33.3378 24.5272 33.3378C30.0313 33.3378 34.5 28.8514 34.5 23.3919C34.5 20.7432 33.4646 18.2568 31.6117 16.4189ZM24.5817 31.6622C23.1104 31.6622 21.639 31.2838 20.3856 30.527L20.0586 30.3649L16.8978 31.1757L17.7153 28.0946L17.4973 27.7703C15.0995 23.9324 16.2439 18.8514 20.1676 16.473C24.0913 14.0946 29.1594 15.2297 31.5572 19.1216C33.955 23.0135 32.8106 28.0405 28.8869 30.4189C27.6335 31.2297 26.1076 31.6622 24.5817 31.6622ZM29.3774 25.6622L28.7779 25.3919C28.7779 25.3919 27.906 25.0135 27.361 24.7432C27.3065 24.7432 27.252 24.6892 27.1975 24.6892C27.0341 24.6892 26.9251 24.7432 26.8161 24.7973C26.8161 24.7973 26.7616 24.8514 25.9986 25.7162C25.9441 25.8243 25.8351 25.8784 25.7262 25.8784H25.6717C25.6172 25.8784 25.5082 25.8243 25.4537 25.7703L25.1812 25.6622C24.5817 25.3919 24.0368 25.0676 23.6008 24.6351C23.4918 24.527 23.3283 24.4189 23.2193 24.3108C22.8379 23.9324 22.4564 23.5 22.1839 23.0135L22.1294 22.9054C22.0749 22.8514 22.0749 22.7973 22.0204 22.6892C22.0204 22.5811 22.0204 22.473 22.0749 22.4189C22.0749 22.4189 22.2929 22.1486 22.4564 21.9865C22.5654 21.8784 22.6199 21.7162 22.7289 21.6081C22.8379 21.4459 22.8924 21.2297 22.8379 21.0676C22.7834 20.7973 22.1294 19.3378 21.9659 19.0135C21.8569 18.8514 21.748 18.7973 21.5845 18.7432H21.421C21.312 18.7432 21.1485 18.7432 20.985 18.7432C20.876 18.7432 20.767 18.7973 20.658 18.7973L20.6035 18.8514C20.4946 18.9054 20.3856 19.0135 20.2766 19.0676C20.1676 19.1757 20.1131 19.2838 20.0041 19.3919C19.6226 19.8784 19.4046 20.473 19.4046 21.0676C19.4046 21.5 19.5136 21.9324 19.6771 22.3108L19.7316 22.473C20.2221 23.5 20.876 24.4189 21.748 25.2297L21.9659 25.4459C22.1294 25.6081 22.2929 25.7162 22.4019 25.8784C23.5463 26.8514 24.8542 27.5541 26.3256 27.9324C26.4891 27.9865 26.7071 27.9865 26.8706 28.0405C27.0341 28.0405 27.252 28.0405 27.4155 28.0405C27.688 28.0405 28.015 27.9324 28.233 27.8243C28.3965 27.7162 28.5054 27.7162 28.6144 27.6081L28.7234 27.5C28.8324 27.3919 28.9414 27.3378 29.0504 27.2297C29.1594 27.1216 29.2684 27.0135 29.3229 26.9054C29.4319 26.6892 29.4864 26.4189 29.5409 26.1486C29.5409 26.0405 29.5409 25.8784 29.5409 25.7703C29.5409 25.7703 29.4864 25.7162 29.3774 25.6622Z" fill="white"/>
</svg>
