<svg width="142" height="12" viewBox="0 0 142 12" fill="none" xmlns="http://www.w3.org/2000/svg">
<path d="M1 6.75C0.585785 6.75 0.25 6.41421 0.25 6C0.25 5.58579 0.585785 5.25 1 5.25V6.75ZM141.53 5.46967C141.823 5.76256 141.823 6.23744 141.53 6.53033L136.757 11.3033C136.464 11.5962 135.99 11.5962 135.697 11.3033C135.404 11.0104 135.404 10.5355 135.697 10.2426L139.939 6L135.697 1.75736C135.404 1.46447 135.404 0.989593 135.697 0.696699C135.99 0.403806 136.464 0.403806 136.757 0.696699L141.53 5.46967ZM1 5.25H141V6.75H1V5.25Z" fill="#009FEF"/>
</svg>
