<svg width="50" height="50" viewBox="0 0 50 50" fill="none" xmlns="http://www.w3.org/2000/svg">
<rect width="50" height="50" fill="white"/>
<g clip-path="url(#clip0_63_167)">
<path d="M43.6625 24.6899C43.4023 24.6087 43.2016 24.3876 43.125 24.1001C42.6984 22.4891 42.0555 20.9391 41.2133 19.493C41.0633 19.2352 41.0492 18.9368 41.1773 18.6922C41.6562 17.7751 41.4867 16.6672 40.7555 15.936L37.9711 13.1516C37.4336 12.6141 36.6688 12.3829 35.9375 12.4962C35.9367 12.4969 35.9375 12.4985 35.9375 12.5001C35.9375 13.3633 35.2383 14.0626 34.375 14.0626V17.3969C37.7125 20.1188 39.8438 24.2633 39.8438 28.9063C39.8438 37.104 33.1977 43.7501 25 43.7501C16.8023 43.7501 10.1562 37.104 10.1562 28.9063C10.1562 24.2641 12.2875 20.1188 15.625 17.3969V14.0626C14.7617 14.0626 14.0625 13.3633 14.0625 12.5001C14.0625 12.4985 14.0633 12.4969 14.0633 12.4962C13.3312 12.3821 12.5664 12.6141 12.0297 13.1516L9.24531 15.936C8.51406 16.6672 8.34453 17.7751 8.825 18.6954C8.95156 18.9376 8.9375 19.2352 8.7875 19.493C7.94531 20.9391 7.30234 22.4891 6.87578 24.1001C6.79922 24.3883 6.59922 24.6087 6.33906 24.6907C5.35078 25.0001 4.6875 25.9032 4.6875 26.9376V30.8751C4.6875 31.9094 5.35078 32.8126 6.3375 33.1227C6.59766 33.204 6.79844 33.4251 6.875 33.7126C7.30156 35.3235 7.94453 36.8735 8.78672 38.3196C8.93672 38.5766 8.95078 38.8751 8.82266 39.1204C8.34375 40.0376 8.51328 41.1454 9.24453 41.8766L12.0289 44.661C12.7602 45.393 13.868 45.5626 14.7883 45.0813C15.032 44.9555 15.3289 44.9696 15.5859 45.1188C17.032 45.961 18.582 46.604 20.193 47.0305C20.4812 47.1071 20.7016 47.3071 20.7836 47.5672C21.0938 48.5555 21.9969 49.2188 23.0312 49.2188H26.9688C28.0031 49.2188 28.9062 48.5555 29.2164 47.5688C29.2977 47.3087 29.5188 47.1079 29.8062 47.0313C31.4172 46.6047 32.9672 45.9618 34.4133 45.1196C34.6711 44.9704 34.9688 44.9563 35.2141 45.0837C36.1313 45.5633 37.2383 45.393 37.9703 44.6618L40.7547 41.8774C41.4859 41.1462 41.6555 40.0383 41.175 39.118C41.0484 38.8758 41.0625 38.5774 41.2125 38.3204C42.0547 36.8743 42.6977 35.3243 43.1242 33.7133C43.2008 33.4251 43.4008 33.2047 43.6609 33.1227C44.6492 32.8126 45.3125 31.9094 45.3125 30.8751V26.9376C45.3125 25.9032 44.6492 25.0001 43.6625 24.6899Z" fill="#009FEF"/>
<path d="M21.875 17.9688C22.3065 17.9688 22.6562 17.619 22.6562 17.1875C22.6562 16.756 22.3065 16.4062 21.875 16.4062C21.4435 16.4062 21.0938 16.756 21.0938 17.1875C21.0938 17.619 21.4435 17.9688 21.875 17.9688Z" fill="#2C2C2C"/>
<path d="M28.125 17.9688C28.5565 17.9688 28.9062 17.619 28.9062 17.1875C28.9062 16.756 28.5565 16.4062 28.125 16.4062C27.6935 16.4062 27.3438 16.756 27.3438 17.1875C27.3438 17.619 27.6935 17.9688 28.125 17.9688Z" fill="#2C2C2C"/>
<path d="M26.5625 21.875H21.875V23.4375H26.5625C27.8547 23.4375 28.9062 22.3859 28.9062 21.0938H27.3438C27.3438 21.5242 26.993 21.875 26.5625 21.875Z" fill="#2C2C2C"/>
<path d="M46.0938 5.46875H49.2188V2.80703L48.9969 2.57891C47.8664 1.41953 46.2797 0.78125 44.5312 0.78125C42.6852 0.78125 40.9437 1.59375 39.7531 3.01016C39.275 3.57969 38.6055 3.90625 37.9156 3.90625H32.3117C30.4625 1.98438 27.8711 0.78125 25 0.78125C22.1289 0.78125 19.5375 1.98438 17.6883 3.90625H12.0844C11.3945 3.90625 10.725 3.57969 10.2461 3.01016C9.05625 1.59375 7.31484 0.78125 5.46875 0.78125C3.71953 0.78125 2.13359 1.41953 1.00313 2.57969L0.78125 2.80703V5.46875H4.80703L5.32812 8.59375H0.78125V11.2555L1.00313 11.4836C2.13359 12.643 3.71953 13.2812 5.46875 13.2812C7.31484 13.2812 9.05625 12.4688 10.2469 11.0523C10.725 10.4828 11.3945 10.1562 12.0844 10.1562H14.8828C14.8797 10.2008 14.8789 10.2453 14.8758 10.2898C13.9523 10.6039 13.2812 11.4711 13.2812 12.5C13.2812 13.5172 13.9367 14.3766 14.8438 14.7V17.0406C11.3664 20.018 9.375 24.318 9.375 28.907C9.375 37.5227 16.3844 44.532 25 44.532C33.6156 44.532 40.625 37.5227 40.625 28.907C40.625 24.318 38.6336 20.018 35.1562 17.0406V14.7008C36.0633 14.3773 36.7188 13.518 36.7188 12.5008C36.7188 11.4719 36.0477 10.6047 35.1234 10.2906C35.1203 10.2461 35.1203 10.2008 35.1164 10.157H37.9148C38.6047 10.157 39.2742 10.4836 39.7531 11.0531C40.9437 12.4688 42.6852 13.2812 44.5312 13.2812C46.2797 13.2812 47.8664 12.643 48.9969 11.4828L49.2188 11.2555V8.59375H46.0938C45.232 8.59375 44.5312 7.89297 44.5312 7.03125C44.5312 6.16953 45.232 5.46875 46.0938 5.46875ZM27.3438 2.67656C30.7031 3.63125 33.2297 6.57734 33.5539 10.1562H30.4688V7.03125H28.9062V10.1562H27.3438V2.67656ZM24.2188 2.38359C24.4766 2.36016 24.7359 2.34375 25 2.34375C25.2641 2.34375 25.5234 2.36016 25.7812 2.38359V10.1562H24.2188V2.38359ZM22.6562 2.67656V10.1562H21.0938V7.03125H19.5312V10.1562H16.4461C16.7703 6.57734 19.2969 3.63203 22.6562 2.67656ZM12.0844 8.59375C10.932 8.59375 9.82578 9.12344 9.05 10.0469C8.15781 11.1094 6.85234 11.7188 5.46875 11.7188C4.25781 11.7188 3.16016 11.325 2.34375 10.6031V10.1562H7.17266L6.13047 3.90625H2.34375V3.45937C3.16016 2.7375 4.25781 2.34375 5.46875 2.34375C6.85234 2.34375 8.15781 2.95312 9.05 4.01562C9.82656 4.93906 10.9328 5.46875 12.0844 5.46875H16.4555C15.8477 6.41563 15.3953 7.46797 15.1273 8.59375H12.0844ZM14.8836 19.1445C15.0805 20.6797 16.3805 21.875 17.9688 21.875C17.9688 24.0328 19.4367 25.85 21.425 26.393L21.2062 27.4875C17.3078 28.5422 14.0375 31.2867 12.2984 34.9C11.4352 33.0789 10.9375 31.0523 10.9375 28.9062C10.9375 25.2273 12.3609 21.7547 14.8836 19.1445ZM17.9688 17.1875V20.3125C17.107 20.3125 16.4062 19.6117 16.4062 18.75C16.4062 17.8883 17.107 17.1875 17.9688 17.1875ZM16.4062 16.0594V14.8438H17.9688V15.625C17.3969 15.625 16.868 15.7906 16.4062 16.0594ZM20.3914 32.0312H17.1875V31.2359C18.1305 30.4891 19.1836 29.8812 20.3125 29.4336V31.25C20.3125 31.5172 20.3398 31.7789 20.3914 32.0312ZM21.1141 33.5938C21.8281 34.5367 22.9484 35.1562 24.2188 35.1562H17.1875V33.5938H21.1141ZM24.2188 36.7188V38.2812H17.1875V36.7188H24.2188ZM24.2188 39.8438V42.9289C21.6281 42.7852 19.2195 41.9539 17.1875 40.5906V39.8438H24.2188ZM32.8125 39.8438V40.5906C30.7805 41.9539 28.3719 42.7852 25.7812 42.9289V39.8438H32.8125ZM25.7812 38.2812V36.7188H32.8125V38.2812H25.7812ZM32.8125 32.0312H29.6086C29.6602 31.7789 29.6875 31.5172 29.6875 31.25V29.4336C30.8164 29.8812 31.8695 30.4891 32.8125 31.2359V32.0312ZM32.8125 33.5938V35.1562H25.7812C27.0523 35.1562 28.1727 34.5367 28.8859 33.5938H32.8125ZM28.125 31.25C28.125 32.5422 27.0734 33.5938 25.7812 33.5938H24.2188C22.9266 33.5938 21.875 32.5422 21.875 31.25V29.375L25 33.2812L28.125 29.375V31.25ZM22.7125 27.9211L22.9844 26.5625H27.0164L27.2883 27.9211L25 30.7805L22.7125 27.9211ZM27.3438 25H22.6562C20.9328 25 19.5312 23.5984 19.5312 21.875V14.8438H30.4688V21.875C30.4688 23.5984 29.0672 25 27.3438 25ZM13.2695 36.643C13.8078 35.1844 14.6086 33.8531 15.625 32.7141V39.3578C14.7312 38.5555 13.9344 37.6484 13.2695 36.643ZM34.375 39.3578V32.7141C35.3914 33.8531 36.1922 35.1852 36.7305 36.643C36.0656 37.6484 35.2687 38.5555 34.375 39.3578ZM39.0625 28.9062C39.0625 31.0523 38.5656 33.0789 37.7023 34.9C35.9633 31.2867 32.693 28.5422 28.7945 27.4875L28.5758 26.393C30.5633 25.85 32.0312 24.0328 32.0312 21.875C33.6195 21.875 34.9195 20.6797 35.1164 19.1445C37.6391 21.7547 39.0625 25.2273 39.0625 28.9062ZM33.5938 18.75C33.5938 19.6117 32.893 20.3125 32.0312 20.3125V17.1875C32.893 17.1875 33.5938 17.8883 33.5938 18.75ZM32.0312 15.625V14.8438H33.5938V16.0594C33.132 15.7906 32.6031 15.625 32.0312 15.625ZM35.1562 12.5C35.1562 12.9305 34.8055 13.2812 34.375 13.2812H15.625C15.1945 13.2812 14.8438 12.9305 14.8438 12.5C14.8438 12.0695 15.1945 11.7188 15.625 11.7188H34.375C34.8055 11.7188 35.1562 12.0695 35.1562 12.5ZM46.0938 10.1562H47.6562V10.6031C46.8398 11.325 45.7414 11.7188 44.5312 11.7188C43.1477 11.7188 41.8422 11.1094 40.95 10.0469C40.1734 9.12344 39.0672 8.59375 37.9156 8.59375H34.8727C34.6055 7.46797 34.1531 6.41563 33.5445 5.46875H37.9156C39.068 5.46875 40.1742 4.93906 40.95 4.01562C41.8422 2.95312 43.1477 2.34375 44.5312 2.34375C45.7414 2.34375 46.8398 2.7375 47.6562 3.45937V3.90625H46.0938C44.3703 3.90625 42.9688 5.30781 42.9688 7.03125C42.9688 8.75469 44.3703 10.1562 46.0938 10.1562Z" fill="#2C2C2C"/>
</g>
<defs>
<clipPath id="clip0_63_167">
<rect width="50" height="50" fill="white"/>
</clipPath>
</defs>
</svg>
