<svg width="50" height="50" viewBox="0 0 50 50" fill="none" xmlns="http://www.w3.org/2000/svg">
<rect width="50" height="50" fill="white"/>
<path d="M18.5484 11.2903H17.7419C15.0677 11.2903 12.5081 12.5201 10.8339 14.5959C8.28144 15.2121 6.4516 17.5169 6.4516 20.1613C6.4516 23.0685 7.74273 25.7959 9.99273 27.6435L10.2161 27.8266H10.6016C10.5266 27.433 10.4839 27.0282 10.4839 26.6129V22.825C10.4839 21.7992 11.3153 20.9677 12.3411 20.9677C12.708 20.9677 13.0661 21.0766 13.371 21.2798L15.3226 22.5806H20.1613C21.9427 22.5806 23.3871 24.025 23.3871 25.8064V26.6129C23.3871 27.0282 23.3443 27.433 23.2693 27.8266H23.6548L23.8782 27.6435C26.1282 25.7959 27.4193 23.0685 27.4193 20.1613C27.4193 15.2701 23.4395 11.2903 18.5484 11.2903Z" fill="#009FEF"/>
<path d="M29.0323 31.4517V34.6775H32.2581V38.7097H46.7742V31.4517H29.0323Z" fill="#009FEF"/>
<path d="M45.9677 4.83871H41.9355C41.9355 2.17016 39.7653 0 37.0968 0C34.4282 0 32.2581 2.17016 32.2581 4.83871H28.2258C26.0024 4.83871 24.1935 6.64758 24.1935 8.87097V13.3234C24.8073 13.8315 25.3476 14.4234 25.8064 15.0766V8.87097C25.8064 7.5371 26.8919 6.45161 28.2258 6.45161H32.5403C32.85 7.32419 33.4008 8.08065 34.1161 8.64274C31.1419 9.83065 29.0323 12.7355 29.0323 16.129V17.7419H45.1613V16.129C45.1613 12.7355 43.0516 9.83065 40.0774 8.64274C40.7927 8.08065 41.3435 7.32419 41.6532 6.45161H45.9677C47.3016 6.45161 48.3871 7.5371 48.3871 8.87097V16.9355C48.3871 18.2694 47.3016 19.3548 45.9677 19.3548H39.1379L35.3573 23.8911C35.1984 24.0831 34.9629 24.1935 34.7121 24.1935C34.2484 24.1935 33.871 23.8161 33.871 23.3524V19.3548H27.3782C27.4024 19.621 27.4193 19.8887 27.4193 20.1613C27.4193 20.4323 27.3968 20.7 27.375 20.9677H32.2581V23.3524C32.2581 24.7056 33.3589 25.8065 34.7121 25.8065C35.4427 25.8065 36.1306 25.4847 36.5976 24.9234L39.8944 20.9677H45.9677C48.1911 20.9677 50 19.1589 50 16.9355V8.87097C50 6.64758 48.1911 4.83871 45.9677 4.83871ZM43.5484 16.129H30.6452C30.6452 12.5718 33.5395 9.67742 37.0968 9.67742C40.654 9.67742 43.5484 12.5718 43.5484 16.129ZM37.0968 8.06452C35.3177 8.06452 33.871 6.61774 33.871 4.83871C33.871 3.05968 35.3177 1.6129 37.0968 1.6129C38.8758 1.6129 40.3226 3.05968 40.3226 4.83871C40.3226 6.61774 38.8758 8.06452 37.0968 8.06452Z" fill="#2C2C2C"/>
<path d="M16.129 45.1614H17.7419V46.7743H16.129V45.1614Z" fill="#2C2C2C"/>
<path d="M16.129 41.9355H17.7419V43.5485H16.129V41.9355Z" fill="#2C2C2C"/>
<path d="M45.9677 27.4194H29.8387C27.6153 27.4194 25.8065 29.2283 25.8065 31.4517V36.1743C25.8 36.1727 25.7944 36.1702 25.7887 36.1694L20.1613 34.8452V33.1049C22.5468 31.9146 24.1935 29.4549 24.1935 26.613V25.8065C24.1935 23.5832 22.3847 21.7743 20.1613 21.7743H15.5669L13.8185 20.609C13.3798 20.3162 12.8685 20.1614 12.3411 20.1614C10.8718 20.1614 9.67742 21.3557 9.67742 22.8251V26.613C9.67742 29.4557 11.3242 31.9146 13.7097 33.1049V34.8452L8.08226 36.1694C3.32339 37.2888 0 41.4856 0 46.3743V50.0001H33.871V46.3743C33.871 44.7944 33.5194 43.2896 32.8895 41.9356H35.9121L39.2089 45.8904C39.6758 46.4525 40.3637 46.7743 41.0944 46.7743C42.4476 46.7743 43.5484 45.6735 43.5484 44.3202V41.9356H45.9677C48.1911 41.9356 50 40.1267 50 37.9033V31.4517C50 29.2283 48.1911 27.4194 45.9677 27.4194ZM21.4468 36.8049L19.8226 41.2146L17.9435 38.7098L19.6831 36.3896L21.4468 36.8049ZM19.1581 43.0162L17.1798 48.3872H16.6919L14.7137 43.0162L16.9355 40.0533L19.1581 43.0162ZM11.2903 26.613V22.8251C11.2903 22.2452 11.7613 21.7743 12.3411 21.7743C12.5492 21.7743 12.7508 21.8356 12.9242 21.9509L15.0782 23.3872H20.1613C21.4952 23.3872 22.5806 24.4727 22.5806 25.8065V26.613C22.5806 29.7259 20.0476 32.2582 16.9355 32.2582C13.8234 32.2582 11.2903 29.7259 11.2903 26.613ZM16.9355 33.8711C17.4903 33.8711 18.029 33.8025 18.5484 33.684V35.2154L16.9355 37.3662L15.3226 35.2154V33.684C15.8419 33.8025 16.3806 33.8711 16.9355 33.8711ZM14.1879 36.3896L15.9274 38.7098L14.0492 41.2138L12.425 36.8041L14.1879 36.3896ZM1.6129 46.3743C1.6129 42.2372 4.425 38.6864 8.45242 37.7388L10.8419 37.1767L14.9726 48.3872H8.06452V43.5485H6.45161V48.3872H1.6129V46.3743ZM32.2581 48.3872H27.4194V43.5485H25.8065V48.3872H18.8984L23.0282 37.1767L25.4177 37.7388C29.446 38.6872 32.2581 42.238 32.2581 46.3743V48.3872ZM48.3871 37.9033C48.3871 39.2372 47.3016 40.3227 45.9677 40.3227H41.9355V44.3202C41.9355 44.784 41.5581 45.1614 41.0944 45.1614C40.8435 45.1614 40.6081 45.0509 40.4484 44.859L36.6685 40.3227H31.9516C30.8315 38.7356 29.2758 37.4662 27.4194 36.6977V31.4517C27.4194 30.1178 28.5048 29.0323 29.8387 29.0323H45.9677C47.3016 29.0323 48.3871 30.1178 48.3871 31.4517V37.9033Z" fill="#2C2C2C"/>
<path d="M29.0323 30.645H46.7742V32.2579H29.0323V30.645Z" fill="#2C2C2C"/>
<path d="M29.0323 33.8711H46.7742V35.484H29.0323V33.8711Z" fill="#2C2C2C"/>
<path d="M32.2581 37.0967H43.5484V38.7096H32.2581V37.0967Z" fill="#2C2C2C"/>
<path d="M45.1613 37.0967H46.7742V38.7096H45.1613V37.0967Z" fill="#2C2C2C"/>
</svg>
