<svg width="50" height="50" viewBox="0 0 50 50" fill="none" xmlns="http://www.w3.org/2000/svg">
<rect width="50" height="50" fill="white"/>
<g clip-path="url(#clip0_63_168)">
<path d="M24.1935 10.4839C24.1935 14.4925 20.9441 17.742 16.9354 17.742C12.9268 17.742 9.67737 14.4925 9.67737 10.4839C9.67737 6.47526 12.9268 3.22583 16.9354 3.22583C20.9441 3.22583 24.1935 6.47526 24.1935 10.4839Z" fill="#009FEF"/>
<path d="M6.45161 49.9999H1.6129C0.723365 49.9999 0 49.2765 0 48.387V38.7096C0 37.82 0.723365 37.0967 1.6129 37.0967H6.45161C7.34115 37.0967 8.06452 37.82 8.06452 38.7096V48.387C8.06452 49.2765 7.34115 49.9999 6.45161 49.9999Z" fill="#009FEF"/>
<path d="M38.8476 36.2904C38.0234 36.2904 37.2484 36.6113 36.6645 37.1945L35.921 37.9387L35.758 37.2886C35.4918 36.2258 34.542 35.4839 33.4469 35.4839C32.3889 35.4839 31.4469 36.1943 31.1563 37.2122L30.0372 41.1291H25.0993L22.9918 40.6034C22.75 40.5427 22.5807 40.325 22.5807 40.0757C22.5807 39.93 22.637 39.7938 22.7394 39.691L25.7081 36.7219C26.292 36.1388 26.613 35.3646 26.613 34.5389C26.613 32.837 25.2284 31.4517 23.525 31.4517C22.7008 31.4517 21.9259 31.7726 21.3419 32.3558L14.6548 39.0436C14.3492 39.3484 13.9444 39.5162 13.5136 39.5162H8.06458V41.1291H13.5136C14.3752 41.1291 15.1848 40.7936 15.7952 40.184L22.4823 33.4961C22.7614 33.2177 23.1316 33.0646 23.525 33.0646C24.3389 33.0646 25.0001 33.7257 25.0001 34.5389C25.0001 34.9267 24.8429 35.3063 24.5677 35.5816L21.5994 38.5499C21.1919 38.9574 20.9678 39.4992 20.9678 40.0749C20.9678 41.0661 21.6396 41.9265 22.6008 42.1671L24.804 42.718L32.3959 42.742C33.0421 42.742 33.6501 42.4904 34.1073 42.0332L37.8048 38.3349C38.084 38.0565 38.4542 37.9033 38.8476 37.9033C39.6615 37.9033 40.3226 38.5644 40.3226 39.3776C40.3226 39.7654 40.1655 40.145 39.8903 40.4203L35.8041 44.5065C35.3371 44.9727 34.7476 45.2814 34.1002 45.3992L27.0402 46.6833C26.7098 46.7435 26.3704 46.7742 26.0314 46.7742H8.06458V48.3871H26.0314C26.4669 48.3871 26.904 48.3478 27.33 48.2694L34.3888 46.9865C35.3615 46.8089 36.2443 46.347 36.9444 45.6469L41.0299 41.5607C41.6146 40.9775 41.9355 40.2033 41.9355 39.3776C41.9355 37.6757 40.551 36.2904 38.8476 36.2904ZM32.9669 40.8928C32.8145 41.0452 32.6113 41.1291 32.3959 41.1291H31.7139L32.7066 37.654C32.8007 37.326 33.1047 37.0968 33.4469 37.0968C33.8001 37.0968 34.1073 37.337 34.1935 37.68L34.5912 39.2693L32.9669 40.8928Z" fill="#2C2C2C"/>
<path d="M26.6129 13.7097H33.871V6.45161H35.8387C36.0639 6.45161 36.2872 6.48312 36.5034 6.54533L41.2783 7.90819C41.6386 8.01215 42.0123 8.06452 42.3871 8.06452H45.9677V6.45161H42.3871C42.1619 6.45161 41.9386 6.42011 41.7225 6.35789L36.9475 4.99504C36.5872 4.89108 36.2135 4.83871 35.8387 4.83871H33.871V0H0V20.9677H33.871V18.4492L34.6451 18.7598C36.8298 19.6332 39.3251 19.5458 41.5138 18.4515C42.4403 17.9873 43.4799 17.7419 44.5187 17.7419H45.9677V16.129H44.5187C43.2306 16.129 41.9418 16.433 40.7435 17.0324C39.0499 17.8805 37.005 17.966 35.2445 17.2611L33.9025 16.724C32.9137 16.3291 31.8733 16.129 30.809 16.129H24.1935C24.1935 14.7953 25.2792 13.7097 26.6129 13.7097ZM24.1935 17.7419H30.809C31.2992 17.7419 31.784 17.7943 32.2581 17.8991V19.3548H1.6129V1.6129H32.2581V12.0968H26.6129C24.3896 12.0968 22.5806 13.9058 22.5806 16.129C22.5806 17.0186 23.304 17.7419 24.1935 17.7419Z" fill="#2C2C2C"/>
<path d="M48.3871 19.3548H46.7742C45.8846 19.3548 45.1613 18.6314 45.1613 17.7418V6.45153C45.1613 5.56199 45.8846 4.83862 46.7742 4.83862H48.3871C49.2766 4.83862 50 5.56199 50 6.45153V17.7418C50 18.6314 49.2766 19.3548 48.3871 19.3548Z" fill="#009FEF"/>
<path d="M30.6451 6.45164H29.0322V4.83873H27.4193V3.22583H30.6451V6.45164Z" fill="#2C2C2C"/>
<path d="M4.83873 6.45164H3.22583V3.22583H6.45164V4.83873H4.83873V6.45164Z" fill="#2C2C2C"/>
<path d="M6.45164 17.7419H3.22583V14.5161H4.83873V16.129H6.45164V17.7419Z" fill="#2C2C2C"/>
<path d="M31.4516 26.6129V20.9678H25V26.6129H21.7742L28.2258 33.0645L34.6774 26.6129H31.4516Z" fill="#009FEF"/>
<path d="M40.3226 27.4194H41.9355V33.0646H40.3226V27.4194Z" fill="#2C2C2C"/>
<path d="M40.3226 24.1936H41.9355V25.8065H40.3226V24.1936Z" fill="#2C2C2C"/>
<path d="M40.3226 20.9678H41.9355V22.5807H40.3226V20.9678Z" fill="#2C2C2C"/>
<path d="M37.0968 27.4194H38.7097V33.871H37.0968V27.4194Z" fill="#2C2C2C"/>
<path d="M3.22583 37.0967H4.83873V44.3547H3.22583V37.0967Z" fill="#2C2C2C"/>
<path d="M3.22583 45.9678H4.83873V50H3.22583V45.9678Z" fill="#2C2C2C"/>
<path d="M37.0968 24.1936H38.7097V25.8065H37.0968V24.1936Z" fill="#2C2C2C"/>
<path d="M17.742 9.67733H16.1291C15.6849 9.67733 15.3226 9.31585 15.3226 8.87088C15.3226 8.42592 15.6849 8.06443 16.1291 8.06443H17.742C18.1862 8.06443 18.5484 8.42592 18.5484 8.87088H20.1613C20.1613 7.53716 19.0757 6.45153 17.742 6.45153V4.83862H16.1291V6.45153C14.7954 6.45153 13.7097 7.53716 13.7097 8.87088C13.7097 10.2046 14.7954 11.2902 16.1291 11.2902H17.742C18.1862 11.2902 18.5484 11.6517 18.5484 12.0967C18.5484 12.5417 18.1862 12.9031 17.742 12.9031H16.1291C15.6849 12.9031 15.3226 12.5417 15.3226 12.0967H13.7097C13.7097 13.4304 14.7954 14.516 16.1291 14.516V16.1289H17.742V14.516C19.0757 14.516 20.1613 13.4304 20.1613 12.0967C20.1613 10.763 19.0757 9.67733 17.742 9.67733Z" fill="#2C2C2C"/>
</g>
<defs>
<clipPath id="clip0_63_168">
<rect width="50" height="50" fill="white"/>
</clipPath>
</defs>
</svg>
