<svg width="50" height="50" viewBox="0 0 50 50" fill="none" xmlns="http://www.w3.org/2000/svg">
<g clip-path="url(#clip0_29_301)">
<path d="M38.652 15.3226C38.4956 15.3226 38.3383 15.2766 38.202 15.1855C37.9383 15.0081 37.8036 14.6935 37.8569 14.3798L38.3867 11.2903H36.2327C34.8988 11.2903 33.8133 10.2048 33.8133 8.87097V2.41935C33.8133 1.08548 34.8988 0 36.2327 0H47.523C48.8569 0 49.9424 1.08548 49.9424 2.41935V8.87097C49.9424 10.2048 48.8569 11.2903 47.523 11.2903H45.3351L39.0795 15.2C38.9488 15.2815 38.8004 15.3226 38.652 15.3226Z" fill="#009FEF"/>
<path d="M8.06508 33.9279L10.1505 31.8425L5.31202 27.0041L3.22665 29.0895L8.06508 33.9279Z" fill="#009FEF"/>
<path d="M21.0085 46.8726L23.3294 44.7459L18.4907 39.9072L16.1552 42.0193L21.0085 46.8726Z" fill="#009FEF"/>
<path d="M38.7101 37.9467C38.0577 35.9911 36.3931 34.5475 34.3641 34.1782L28.9746 33.1975V32.7798C29.9125 32.2354 30.7286 31.5072 31.3786 30.6451H33.0069C34.3407 30.6451 35.4262 29.5596 35.4262 28.2257V18.5483C35.4262 12.7677 30.723 8.06445 24.9423 8.06445C19.1617 8.06445 14.4585 12.7677 14.4585 18.5483V24.1935C14.4585 25.7483 15.5641 27.0491 17.0302 27.3524C17.4827 29.6701 18.931 31.6314 20.9101 32.7798V33.1975L15.5198 34.1782C13.4915 34.5475 11.8262 35.9911 11.1746 37.9467L10.852 38.9153L8.10524 36.1685C7.79073 35.854 7.79073 35.3419 8.10524 35.0274L11.2907 31.8427L5.3117 25.8636L1.7117 29.4636C0.645568 30.5298 0.0584717 31.9475 0.0584717 33.4556C0.0584717 34.9636 0.645568 36.3806 1.7117 37.4467L12.6109 48.3459C13.677 49.412 15.0948 49.9999 16.6028 49.9999C18.1109 49.9999 19.5278 49.412 20.569 48.3701L24.4972 44.7709L23.2722 43.5483H40.577L38.7101 37.9467ZM24.9423 35.9564L22.523 33.537V33.4991C23.2875 33.7395 24.0996 33.8709 24.9423 33.8709C25.7851 33.8709 26.5972 33.7395 27.3617 33.4991V33.537L24.9423 35.9564ZM33.0069 29.0322H32.3286C32.5625 28.4991 32.7399 27.937 32.8544 27.3524C33.1996 27.2806 33.5173 27.1435 33.8133 26.9709V28.2257C33.8133 28.6709 33.4512 29.0322 33.0069 29.0322ZM33.0069 22.8048C33.4867 23.0846 33.8133 23.5991 33.8133 24.1935C33.8133 24.7878 33.4867 25.3024 33.0069 25.5822V22.8048ZM16.0714 24.1935C16.0714 23.5991 16.398 23.0846 16.8778 22.8048V25.5822C16.398 25.3024 16.0714 24.7878 16.0714 24.1935ZM16.8778 20.1612V21.0822C16.5907 21.1572 16.3214 21.2701 16.0714 21.4161V18.5483C16.0714 13.6572 20.0512 9.67736 24.9423 9.67736C29.8335 9.67736 33.8133 13.6572 33.8133 18.5483V21.4161C33.5633 21.2701 33.294 21.1564 33.0069 21.0822V20.1612H32.2004C29.8157 20.1612 27.5738 19.2322 25.8867 17.5459L24.9423 16.6016L23.998 17.5459C22.3109 19.2322 20.069 20.1612 17.6843 20.1612H16.8778ZM18.4907 25.8064V21.7435C20.9125 21.5612 23.1706 20.562 24.9423 18.8774C26.7141 20.562 28.9722 21.562 31.394 21.7435V25.8064C31.394 26.9822 31.073 28.0822 30.5214 29.0322H24.9423V30.6451H29.1956C28.0585 31.6459 26.5722 32.258 24.9423 32.258C21.3851 32.258 18.4907 29.3636 18.4907 25.8064ZM9.00928 31.8427L8.13347 32.7185L4.43508 29.0201L5.31089 28.1443L9.00928 31.8427ZM16.6012 48.387C15.5246 48.387 14.5117 47.9669 13.7496 47.2056L2.85041 36.3072C2.08912 35.5459 1.66976 34.533 1.66976 33.4564C1.66976 32.379 2.08912 31.3661 2.85041 30.6048L3.29396 30.1612L6.99234 33.8596L6.96331 33.8886C6.02057 34.8322 6.02057 36.3669 6.96331 37.3104L12.7464 43.0935C13.2036 43.5499 13.8109 43.8024 14.4577 43.8024C15.1044 43.8024 15.7117 43.5507 16.1391 43.1217L16.1996 43.0677L19.9149 46.783L19.452 47.2072C18.6907 47.9669 17.6778 48.387 16.6012 48.387ZM21.1052 45.6911L17.398 41.9838L18.4633 41.0209L22.1641 44.7217L21.1052 45.6911ZM21.6593 41.9354L18.5181 38.7943L15.0278 41.9515C14.7238 42.2572 14.1923 42.2572 13.8875 41.9515L12.1262 40.1903L12.7036 38.4564C13.169 37.0596 14.3585 36.0282 15.8077 35.7636L21.4448 34.7395L24.9423 38.237L28.4391 34.7403L34.0754 35.7645C35.5246 36.029 36.7141 37.0596 37.1794 38.4572L38.3399 41.9354H21.6593Z" fill="#2C2C2C"/>
<path d="M46.7165 3.22583H37.0391V4.83873H46.7165V3.22583Z" fill="#2C2C2C"/>
<path d="M43.4907 6.45166H37.0391V8.06456H43.4907V6.45166Z" fill="#2C2C2C"/>
<path d="M46.7165 6.45166H45.1036V8.06456H46.7165V6.45166Z" fill="#2C2C2C"/>
<path d="M7.61571 20.046L6.78587 18.663L4.60039 19.9743C6.88587 10.6735 15.2496 4.03234 24.9423 4.03234C27.0609 4.03234 29.1512 4.34685 31.1552 4.96782L31.6326 3.4275C29.4738 2.75814 27.223 2.41943 24.9423 2.41943C14.4052 2.41943 5.32862 9.70814 2.96894 19.8751L1.44071 17.3275L0.0576477 18.1573L2.89232 22.8807L7.61571 20.046Z" fill="#2C2C2C"/>
<path d="M49.5512 17.8571L44.8278 15.0225L41.9931 19.7458L43.3762 20.5757L44.7875 18.2233C45.5302 20.3967 45.9101 22.67 45.9101 24.9999C45.9101 29.7958 44.2488 34.4846 41.2335 38.2015L42.4859 39.2176C45.7343 35.2144 47.523 30.1644 47.523 24.9999C47.523 22.5329 47.1254 20.1241 46.3504 17.8176L48.7206 19.2394L49.5512 17.8571Z" fill="#2C2C2C"/>
</g>
<defs>
<clipPath id="clip0_29_301">
<rect width="50" height="50" fill="white"/>
</clipPath>
</defs>
</svg>
